<?xml version="1.0" encoding="utf-8"?>
<!-- Generator: Adobe Illustrator 14.0.0, SVG Export Plug-In  -->
<!DOCTYPE svg PUBLIC "-//W3C//DTD SVG 1.1//EN" "http://www.w3.org/Graphics/SVG/1.1/DTD/svg11.dtd" [
	<!ENTITY ns_flows "http://ns.adobe.com/Flows/1.0/">
]>
<svg version="1.1"
	 xmlns="http://www.w3.org/2000/svg" xmlns:xlink="http://www.w3.org/1999/xlink" xmlns:a="http://ns.adobe.com/AdobeSVGViewerExtensions/3.0/"
	 x="0px" y="0px" width="98px" height="98px" viewBox="0 0 98 98" enable-background="new 0 0 98 98" xml:space="preserve">
<defs>
</defs>
<linearGradient id="SVGID_1_" gradientUnits="userSpaceOnUse" x1="48.9995" y1="12.501" x2="48.9995" y2="83.6684">
	<stop  offset="0" style="stop-color:#BDC2C4"/>
	<stop  offset="1" style="stop-color:#454B4D"/>
</linearGradient>
<path fill="url(#SVGID_1_)" d="M48.999,84C29.148,84,13,67.852,13,48c0-19.85,16.148-36,35.999-36C68.852,12,85,28.15,85,48
	C85,67.852,68.852,84,48.999,84L48.999,84z"/>
<linearGradient id="SVGID_2_" gradientUnits="userSpaceOnUse" x1="48.9995" y1="13.501" x2="48.9995" y2="82.8443">
	<stop  offset="0" style="stop-color:#D1D7D9"/>
	<stop  offset="0.2364" style="stop-color:#BDC2C4"/>
	<stop  offset="1" style="stop-color:#697173"/>
</linearGradient>
<circle fill="url(#SVGID_2_)" cx="49" cy="48" r="35"/>
<path opacity="0.35" fill="#F1F1F2" d="M50.22,49.221c11.722,0,23.042-0.732,33.759-2.079C83.521,28.211,68.043,13,48.999,13
	c-18.932,0-34.345,15.035-34.97,33.816C25.461,48.368,37.606,49.221,50.22,49.221z"/>
<linearGradient id="SVGID_3_" gradientUnits="userSpaceOnUse" x1="14.3335" y1="30.75" x2="84.1678" y2="30.75">
	<stop  offset="0" style="stop-color:#C0C5C7"/>
	<stop  offset="0.2" style="stop-color:#F7FDFF"/>
	<stop  offset="0.8" style="stop-color:#F7FDFF"/>
	<stop  offset="1" style="stop-color:#CDD3D5"/>
</linearGradient>
<path fill="url(#SVGID_3_)" d="M48.999,14c19.163,0,34.72,15.402,34.989,34.5C83.99,48.334,84,48.168,84,48
	c0-19.33-15.67-35-35.001-35C29.669,13,14,28.67,14,48c0,0.168,0.01,0.334,0.012,0.5C14.281,29.402,29.837,14,48.999,14z"/>
<linearGradient id="SVGID_4_" gradientUnits="userSpaceOnUse" x1="49.0005" y1="79.5" x2="49.0005" y2="17.1192">
	<stop  offset="0" style="stop-color:#BDC2C4"/>
	<stop  offset="1" style="stop-color:#454B4D"/>
</linearGradient>
<path fill="url(#SVGID_4_)" d="M48.999,79C31.905,79,18,65.094,18,48s13.905-31,30.999-31C66.094,17,80,30.906,80,48
	S66.094,79,48.999,79L48.999,79z"/>
<radialGradient id="SVGID_5_" cx="49" cy="102" r="109.0004" gradientUnits="userSpaceOnUse">
	<stop  offset="0.4" style="stop-color:#FAF9F9"/>
	<stop  offset="1" style="stop-color:#808184"/>
</radialGradient>
<path fill="url(#SVGID_5_)" d="M48.999,78C32.458,78,19,64.543,19,48c0-16.541,13.458-30,29.999-30C65.543,18,79,31.459,79,48
	C79,64.543,65.543,78,48.999,78L48.999,78z"/>
<path opacity="0.7" fill="#FFFFFF" d="M48.999,50.143c9.896,0,19.341-0.832,27.997-2.332C76.893,32.459,64.377,20,48.999,20
	c-15.375,0-27.892,12.459-27.995,27.811C29.661,49.311,39.104,50.143,48.999,50.143z"/>
<rect x="47.999" y="20.736" fill="#404041" width="2" height="6"/>
<rect x="47.999" y="70.736" fill="#404041" width="2" height="6"/>
<rect x="71" y="47.736" fill="#404041" width="6" height="2"/>
<rect x="21" y="47.736" fill="#404041" width="6" height="2"/>
<rect x="69.844" y="33.817" transform="matrix(0.5006 0.8657 -0.8657 0.5006 66.6569 -43.0647)" fill="#404041" width="1.615" height="4.842"/>
<rect x="26.542" y="58.817" transform="matrix(0.4997 0.8662 -0.8662 0.4997 66.7294 6.9494)" fill="#404041" width="1.614" height="4.841"/>
<rect x="60.694" y="24.665" transform="matrix(0.8659 0.5002 -0.5002 0.8659 21.7935 -27.1293)" fill="#404041" width="1.613" height="4.842"/>
<rect x="35.693" y="67.966" transform="matrix(0.8659 0.5002 -0.5002 0.8659 40.0995 -8.8187)" fill="#404041" width="1.613" height="4.842"/>
<rect x="35.693" y="24.665" transform="matrix(0.8662 -0.4997 0.4997 0.8662 -8.6508 21.8607)" fill="#404041" width="1.614" height="4.842"/>
<rect x="60.694" y="67.966" transform="matrix(0.8662 -0.4997 0.4997 0.8662 -26.9417 40.1451)" fill="#404041" width="1.614" height="4.842"/>
<rect x="26.542" y="33.815" transform="matrix(0.4992 -0.8665 0.8665 0.4992 -17.7019 41.8449)" fill="#404041" width="1.614" height="4.842"/>
<rect x="69.843" y="58.815" transform="matrix(0.4997 -0.8662 0.8662 0.4997 -17.6948 91.8386)" fill="#404041" width="1.614" height="4.842"/>
<path opacity="0.2" fill="#231F20" d="M51.449,49.418c-0.098-0.48-0.339-0.906-0.669-1.242l3.445-11.358l-2.87-0.871l-3.579,11.791
	c-0.622,0.352-1.08,0.958-1.226,1.68H40v1h6.551c0.026,0.131,0.066,0.26,0.113,0.383L31.232,66.232l1.297,1.299l15.376-15.375
	c0.331,0.162,0.7,0.262,1.095,0.262c1.209,0,2.217-0.857,2.449-2H75v-1H51.449z"/>
<linearGradient id="SVGID_6_" gradientUnits="userSpaceOnUse" x1="-237.3208" y1="41.0786" x2="-237.3208" y2="56.5028" gradientTransform="matrix(0.9569 0.2903 -0.2903 0.9569 291.9271 64.1554)">
	<stop  offset="0" style="stop-color:#58595B"/>
	<stop  offset="1" style="stop-color:#231F20"/>
</linearGradient>
<polygon fill="url(#SVGID_6_)" points="54.226,35.402 51.355,34.531 46.999,48.885 49.871,49.756 "/>
<linearGradient id="SVGID_7_" gradientUnits="userSpaceOnUse" x1="31.9766" y1="65.3701" x2="49.5665" y2="47.7802">
	<stop  offset="0" style="stop-color:#58595B"/>
	<stop  offset="1" style="stop-color:#231F20"/>
</linearGradient>
<polygon fill="url(#SVGID_7_)" points="50.232,48.413 48.934,47.113 31.232,64.814 32.529,66.113 "/>
<linearGradient id="SVGID_8_" gradientUnits="userSpaceOnUse" x1="57.5" y1="47.8579" x2="57.5" y2="49.318">
	<stop  offset="0" style="stop-color:#FF0000"/>
	<stop  offset="1" style="stop-color:#A8000B"/>
</linearGradient>
<path fill="url(#SVGID_8_)" d="M75,48H51.449c-0.232-1.141-1.24-2-2.449-2c-1.211,0-2.219,0.859-2.449,2H40v1h6.551
	c0.23,1.142,1.238,2,2.449,2c1.209,0,2.217-0.857,2.449-2H75V48z"/>
<linearGradient id="SVGID_9_" gradientUnits="userSpaceOnUse" x1="48.9995" y1="46.917" x2="48.9995" y2="50.0016">
	<stop  offset="0" style="stop-color:#FFE2D9"/>
	<stop  offset="1" style="stop-color:#F23D3D"/>
</linearGradient>
<circle fill="url(#SVGID_9_)" cx="49" cy="48.5" r="1.5"/>
<rect fill="none" width="98" height="98"/>
</svg>
