<?xml version="1.0" encoding="UTF-8"?>
<!DOCTYPE svg PUBLIC "-//W3C//DTD SVG 1.1 Tiny//EN" "http://www.w3.org/Graphics/SVG/1.1/DTD/svg11-tiny.dtd">
<svg width="13" height="13" viewBox="0 0 13 13">
<path d="M9.127,7.21c0,1.071-0.872,1.942-1.942,1.942c-1.071,0-1.942-0.871-1.942-1.942c0-1.071,0.871-1.942,1.942-1.942 C8.255,5.268,9.127,6.139,9.127,7.21z M7.185,4.268c-1.623,0-2.942,1.32-2.942,2.942s1.32,2.942,2.942,2.942 s2.942-1.32,2.942-2.942S8.807,4.268,7.185,4.268z"/>
<path d="M6.685,1.986V3.05c0,0-0.003,0.499,0.5,0.499s0.5-0.499,0.5-0.499V1.986c0,0-0.019-0.5-0.5-0.5 S6.685,1.986,6.685,1.986z"/>
<path d="M6.685,11.393v1.063c0,0-0.003,0.499,0.5,0.499s0.5-0.499,0.5-0.499v-1.063c0,0-0.019-0.5-0.5-0.5 S6.685,11.393,6.685,11.393z"/>
<path d="M12.419,6.721h-1.063c0,0-0.499-0.003-0.499,0.5s0.499,0.5,0.499,0.5h1.063c0,0,0.5-0.019,0.5-0.5 S12.419,6.721,12.419,6.721z"/>
<path d="M3.013,6.721H1.949c0,0-0.499-0.003-0.499,0.5s0.499,0.5,0.499,0.5h1.063c0,0,0.5-0.019,0.5-0.5 S3.013,6.721,3.013,6.721z"/>
<path d="M10.532,3.166L9.78,3.917c0,0-0.355,0.351,0,0.707c0.356,0.355,0.707,0.001,0.707,0.001l0.752-0.752 c0,0,0.34-0.367,0-0.708S10.532,3.166,10.532,3.166z"/>
<path d="M3.881,9.817l-0.752,0.752c0,0-0.355,0.351,0.001,0.707c0.355,0.355,0.706,0,0.706,0l0.752-0.752 c0,0,0.341-0.367,0-0.707C4.248,9.477,3.881,9.817,3.881,9.817z"/>
<path d="M11.24,10.568l-0.752-0.752c0,0-0.351-0.355-0.707,0c-0.355,0.356-0.001,0.707-0.001,0.707l0.752,0.752 c0,0,0.367,0.34,0.708,0S11.24,10.568,11.24,10.568z"/>
<path d="M4.588,3.917L3.836,3.165c0,0-0.351-0.355-0.707,0.001c-0.355,0.355,0,0.706,0,0.706l0.752,0.752 c0,0,0.367,0.341,0.707,0C4.929,4.284,4.588,3.917,4.588,3.917z"/>
</svg>