<?xml version="1.0" encoding="UTF-8"?>
<!DOCTYPE svg PUBLIC "-//W3C//DTD SVG 1.1 Tiny//EN" "http://www.w3.org/Graphics/SVG/1.1/DTD/svg11-tiny.dtd">
<svg baseProfile="tiny" height="320px" version="1.1" viewBox="0 0 640 320" width="640px" x="0px" xmlns="http://www.w3.org/2000/svg" xmlns:xlink="http://www.w3.org/1999/xlink" y="0px">
<defs id="symbolDefs">
<symbol id="pin" overflow="visible">
	<polygon points="0,0 0.947,-6.288 3.851,-11.624 0.583,-13.402 6.224,-17.481 7.354,-23.541 15.773,-18.959 11.299,-14.72 10.937,-7.769 7.669,-9.546 4.766,-4.209 "/>
</symbol>
</defs>

<g id="worldmap">
<rect fill="#E8F5F8" height="320" width="640"/>
<g>
<path d="M225.453,37.671c0.315,0,1.583-0.28,2.057-0.438c0.474-0.158,1.022-0.588,1.022-0.588   s-1.184-0.552-1.737-0.552c-0.552,0-2.368-0.868-2.605-0.475c-0.237,0.395-1.184,0.79-1.184,0.79s1.105,0.631,1.342,0.631   S225.453,37.671,225.453,37.671z" fill="#B9C5D1"/>
<path d="M485.456,141.13C485.456,141.99,484.461,142.28,485.456,141.13" fill="#B9C5D1"/>
<path d="M487.706,148.706c0.112-0.56,0.255-0.866-0.474-1.479C487.022,147.859,487.18,148.353,487.706,148.706" fill="#B9C5D1"/>
<path d="M487.054,146.339c0.732-1.096-0.944-0.704-0.918-0.525C486.264,146.672,487.264,146.511,487.054,146.339" fill="#B9C5D1"/>
<path d="M494.574,159.773c-0.021-0.042,0.021-1.404-1.125-2.07C493.473,158.692,494.125,158.889,494.574,159.773" fill="#B9C5D1"/>
<path d="M496.586,162.082c-0.097-0.337,0.998,2.11,0.651,1.895C494.404,162.206,496.593,163.1,496.586,162.082" fill="#B9C5D1"/>
<path d="M499.429,166.581c-0.237-0.19-1.825-2.19-1.835-2.19C498.662,164.391,498.974,165.985,499.429,166.581" fill="#B9C5D1"/>
<path d="M513.343,153.974c-0.178,0-0.118,0.474-0.415-0.118s0.237-1.007,0.237-1.007s0.533,0.415,0.533,0.651   C513.698,153.737,513.343,153.974,513.343,153.974z" fill="#B9C5D1"/>
<path d="M540.578,116.923c-0.02,0,1.351,0.112,1.48-0.06C541.547,117.544,541.056,117.676,540.578,116.923" fill="#B9C5D1"/>
<path d="M543.835,116.271c-0.217-0.079-0.434-0.157-0.651-0.236c-0.079,0.099-0.158,0.197-0.237,0.296   C543.249,116.427,543.545,116.407,543.835,116.271" fill="#B9C5D1"/>
<path d="M211.263,72.977c-0.148-0.06-1.006-0.267-1.362-0.385c-0.355-0.118-1.036-0.533-1.273-0.533   c-0.236,0-0.77-0.029-1.006-0.088c-0.237-0.06-1.273-0.207-1.273-0.207s-0.208,0.118,0.118,0.266s1.214,0.296,1.244,0.414   c0.029,0.119-0.267,0.297,0.177,0.444c0.444,0.148,0.977,0.355,1.362,0.385c0.385,0.029,0.622,0.029,1.007,0.029   c0.385,0,0.651-0.147,0.799-0.177C211.204,73.095,211.263,72.977,211.263,72.977z" fill="#B9C5D1"/>
<path d="M178.867,61.386c0.112-0.118,0.678-0.395,1.356-0.474c0.678-0.078,1.13-0.197,0.904-0.434   c-0.226-0.237-0.904-0.553-1.243-0.395c-0.339,0.157-1.355,0.315-1.355,0.631C178.528,61.031,178.867,61.386,178.867,61.386z" fill="#B9C5D1"/>
<path d="M161.706,23.072c-0.316,0.118-0.355,0.197-0.592,0.236c-0.237,0.04-1.421-0.158-1.421-0.039   c0,0.118-0.552,0.236-0.671,0.236c-0.118,0-0.631-0.236-0.474-0.276c0.158-0.039,0.829-0.117,0.671-0.117   c-0.158,0-0.513-0.158-0.513-0.316s0.552-0.435,0.552-0.435s1.026,0,1.263,0s0.75-0.079,0.868,0.119   C161.508,22.678,161.706,23.072,161.706,23.072z" fill="#B9C5D1"/>
<path d="M377.016,93.277c-0.072-0.043-0.296-0.346-0.356-0.357c0.002,0-0.563,0.766-0.098,0.699   C376.821,93.582,377.07,93.61,377.016,93.277" fill="#B9C5D1"/>
<path d="M375.625,93.011c0.274-0.09,0.169-0.474-0.034-0.521C375.208,92.399,375.181,93.037,375.625,93.011" fill="#B9C5D1"/>
<path d="M382.078,97.154c-0.323,0.217-0.753,0.303-1.047,0.507c-0.162,0.112,0.252,0.433,0.196,0.603   c-0.08,0.242-0.648,0.153-0.843,0.435c-0.269,0.388-1.096,0.347-1.505,0.249c-0.337-0.08-0.835-0.318-0.598-0.75   c0.232-0.425,0.698-0.235,1.042-0.499c0.307-0.236,0.744-0.027,1.091-0.018C380.897,97.695,381.583,97.279,382.078,97.154" fill="#B9C5D1"/>
<path d="M367.424,97.924c-0.381,0.381-1.738,0.393-2.26,0.508c-0.332,0.073-0.674-0.315-0.948-0.468   c-0.456-0.253-1.082,0.109-1.558-0.129c-0.352-0.176-0.329-0.417,0.089-0.474c0.717-0.098,1.144,0.044,1.833,0.106   C365.522,97.554,366.481,97.774,367.424,97.924" fill="#B9C5D1"/>
<path d="M370.947,95.793c-0.126,0.377-0.589,0.665-0.829,0.977C369.731,96.153,370.477,95.824,370.947,95.793" fill="#B9C5D1"/>
<path d="M365.915,89.578c-0.164,0.246-0.823,0.352-0.807-0.026C365.121,89.229,365.969,89.221,365.915,89.578" fill="#B9C5D1"/>
<path d="M366.24,94.491c-0.061,0.018-1.095-0.089-1.007,0.089c0.085,0.171,0.493,0.04,0.642,0.228   C366.045,95.022,366.246,94.659,366.24,94.491" fill="#B9C5D1"/>
<path d="M364.642,95.083c0.107-0.087,0.22-0.354,0.17-0.491c-0.011-0.031-0.687,0.494-0.763,0.55   C364.245,95.252,364.467,95.221,364.642,95.083" fill="#B9C5D1"/>
<path d="M368.608,97.48c0.171-0.173,0.337-0.772,0.72-0.641c0.164,0.057-0.482,0.755-0.75,0.758   C368.588,97.559,368.599,97.52,368.608,97.48" fill="#B9C5D1"/>
<path d="M364.76,91.502c-0.06-0.094-0.736-0.629-0.737-0.606C363.997,91.257,364.418,91.66,364.76,91.502" fill="#B9C5D1"/>
<path d="M0,27.472c0,0,0.818,1.145,3.435,0.49s4.579-1.799,9.485-0.49c0,0,4.906,1.309,5.724-0.164   c0.818-1.472,6.869-2.78,6.706-1.799s-1.799,1.472-0.164,1.963c1.635,0.49,5.724,0,5.56,1.472   c-0.163,1.473-7.522,0.818-8.013,2.453c-0.491,1.636-7.85,1.472-9.813,0.654c-1.962-0.818-4.252,1.145-5.724,1.145   c-1.472,0-7.032-1.472-7.196-0.817V27.472z" fill="#B9C5D1"/>
<path d="M0.823,33.425v1.21c0,0,2.813-0.425,3.696-0.262c0.883,0.164,1.047-0.163,0.916-0.49   s-1.145-0.393-1.505-0.688C3.571,32.901,1.15,33.294,0.823,33.425z" fill="#B9C5D1"/>
<path d="M0,38.004c0,0,8.145,1.93,8.995,2.715c0.851,0.785-0.065,0.785,0,1.177   c0.065,0.394,0.981,0.197,0.981,0.394s-0.098,0.72,0.327,0.393s0.458,0.131,0.752,0c0.294-0.132-1.21-1.079-0.719-1.309   c0.49-0.229,2.322,0.196,2.813,0.327c0.491,0.131,2.617,0.621,3.467,0.687c0.851,0.065,2.453,0.262,1.962,0.491   c-0.49,0.229-2.061,1.046-3.238,0.589c0,0,0.589,0.851-0.229,0.719c-0.818-0.131-1.799-0.72-1.832-0.359   c-0.033,0.359,1.014,1.93,0.36,2.093c-0.654,0.164-2.225,0.426-2.781,0.197c-0.556-0.229-1.374-0.916-1.962-0.884   c-0.589,0.033-0.588,0.458-1.603-0.981c0,0-0.458-0.752-2.093-0.196c-1.636,0.557-2.257,0.785-2.617-0.13   c-0.36-0.916,0.065-0.785,0.392-0.949c0.327-0.163,0.393-0.654,0.066-0.523s-0.72,0.426-0.851,0.262   c-0.131-0.164-0.196-0.556-0.458-0.262s-1.178,0.065-1.178,0.49c0,0.426,0.687,0.852,0.426,1.243   C0.72,44.578,0.196,44.905,0,44.905V38.004z" fill="#B9C5D1"/>
<path d="M15.15,48.046c0,0-0.164-1.243,1.995-0.851c0,0,1.145-0.327,1.668,0.229s1.635-0.359,2.191,0.491   s0.556,0.687,0.556,0.687s-2.028-0.098-2.42,0C19.141,48.602,16.491,47.653,15.15,48.046z" fill="#B9C5D1"/>
<path d="M22.738,53.377c0,0,3.042-0.589,3.435-0.196S28.888,56.517,22.738,53.377z" fill="#B9C5D1"/>
<path d="M6.221,67.833c0,0-4.351-0.393-1.374,1.047L6.221,67.833z" fill="#B9C5D1"/>
<path d="M7.169,68.095c0,0-1.112,0.653-0.622,1.046c0.491,0.394,1.832-0.556,1.766-0.687   C8.249,68.323,8.15,67.931,7.169,68.095z" fill="#B9C5D1"/>
<path d="M9.818,67.702c0,0,2.715,1.243,3.565,0.457c0.851-0.784,0.098-0.425,1.014-0.163   c0.916,0.262,3.009-0.981-2.943-0.785C11.454,67.211,9.394,66.492,9.818,67.702z" fill="#B9C5D1"/>
<path d="M20.056,66.23c0,0-4.023,0.163-3.369,0.916C17.341,67.898,19.5,67.473,20.056,66.23z" fill="#B9C5D1"/>
<path d="M20.678,66.066c0,0,1.439-1.341,1.963-1.014c0.523,0.327-1.341,1.668-1.668,1.439   C20.645,66.263,20.678,66.066,20.678,66.066z" fill="#B9C5D1"/>
<path d="M23.622,65.674c0,0,0.556-1.439,2.028-1.569C27.122,63.973,28.004,65.543,23.622,65.674z" fill="#B9C5D1"/>
<path d="M0,299.032c0,0,47.962,0,66.248-4.493c18.286-4.492,74.042,1.498,73.443-1.198   c-0.6-2.695,29.376-3.595,42.566-4.193c13.19-0.599,32.076-25.161,32.076-14.977s-2.398,16.475-2.098,17.973   c0.299,1.497,35.072,9.585,45.264,6.889c10.192-2.695,39.869-16.175,61.152-15.276c21.284,0.898,60.553-1.797,67.448-0.599   s20.684-8.088,33.874-5.691s24.88,7.788,31.175,6.59c6.295-1.198,12.891-2.097,14.989-4.493c2.098-2.396,31.475-1.498,44.964-1.498   s37.771-3.894,55.756-0.897c17.986,2.994,60.553,6.589,56.656,10.783c-3.896,4.193-19.785,6.589-12.59,9.585   c7.194,2.995,27.878,1.797,29.077,2.097V320H0V299.032z" fill="#B9C5D1"/>
<path d="M146.684,28.423c0,0-2.016,0.891-2.719,0.797s-5.157,0.516-2.156,1.313c0,0,0.328,0.375-0.516,0.281   c-0.844-0.094-5.673,0.188-1.688,1.594c3.985,1.406,2.625,0.142,5.017,1.688c2.392,1.547,3.798-0.375,4.36-0.891   s0.656-3.47-0.375-4.079C147.575,28.517,146.872,28.142,146.684,28.423z" fill="#B9C5D1"/>
<path d="M142.783,17.813c0,0,3.863-0.306,2.847,0.61C144.613,19.338,142.072,19.644,142.783,17.813z" fill="#B9C5D1"/>
<path d="M166.266,47.191c0,0,0.915,0.102,1.118-0.915s1.728-3.05,3.354-1.932c1.626,1.119,8.843,2.237,7.217,2.745   c-1.626,0.508-5.286,1.017-8.234,1.017S165.757,48.005,166.266,47.191z" fill="#B9C5D1"/>
<path d="M172.161,50.038c0,0-1.423-2.339,2.948-1.322C175.109,48.716,174.397,50.139,172.161,50.038z" fill="#B9C5D1"/>
<path d="M183.648,40.991c0,0-0.204-1.729,3.151-1.525l0.204,1.22C187.003,40.686,185.173,41.295,183.648,40.991z" fill="#B9C5D1"/>
<path d="M135.16,24.93c0,0-1.423-2.644,3.66-0.204c0,0,9.148-1.829,9.25,0.306s-7.404-0.568-6.607,1.423   C141.665,26.963,136.583,25.946,135.16,24.93z" fill="#B9C5D1"/>
<path d="M117.574,21.677c0,0,7.116-2.644,8.539-1.22c1.423,1.423-3.146,5.168-8.892,1.313" fill="#B9C5D1"/>
<path d="M134.245,26.657c0,0,5.489,0.306,2.745,0.61S133.737,28.792,134.245,26.657z" fill="#B9C5D1"/>
<path d="M149.086,23.913c0,0,12.91-0.102,12.199,1.017c-0.712,1.118,8.132,1.728,10.877,1.22   c2.744-0.508,7.929-0.915,7.624,0.203c-0.305,1.118-13.825,2.033-16.976,1.729c-3.151-0.306-6.709-0.509-6.607-1.322   s-5.794-1.321-6.709-2.033C148.578,24.015,148.171,24.116,149.086,23.913z" fill="#B9C5D1"/>
<path d="M170.484,121.421c0,0,4.432-3.952,8.827-1.33c0,0,3.103,0.037,3.546,0.924   c0.443,0.887,2.29,1.81,2.955,1.957c0.665,0.148,2.474,0.85,2.807,1.256s-0.369,0.85-1.292,0.85s-4.247,0.517-4.395,0   c-0.148-0.518,0.775-0.369,0.665-0.887c-0.11-0.517-0.332-0.887-0.997-1.107c-0.665-0.222-1.81-0.813-3.509-0.998   c-1.699-0.184-4.284,0.443-5.318,0.037s-0.739-0.887-1.256-0.775c-0.517,0.111-2.104,0.738-2.253,0.332   C170.115,121.272,170.484,121.421,170.484,121.421z" fill="#B9C5D1"/>
<path d="M190.392,125.653c0,0,1.034-0.688,2.622-0.207c1.588,0.48,2.433-0.191,3.029,0.037s2.283,0.051,1.78,0.524   c-0.503,0.474-0.856,0.621-0.487,0.769c0.37,0.147,1.884-0.775,1.81,0.332c-0.073,1.108-0.184,1.319-0.738,0.997   s-1.446-0.541-2.034-0.233s-1.253-0.542-1.696,0.049s-1.071,2.622-1.478,0.296c0,0-5.096,0.221-4.727-0.332   c0.369-0.555,2.917-0.961,3.989-0.407C192.46,127.478,189.949,126.782,190.392,125.653z" fill="#B9C5D1"/>
<path d="M181.786,127.552c0,0,4.765,0.259,3.73,0.775C184.482,128.845,180.42,129.14,181.786,127.552z" fill="#B9C5D1"/>
<path d="M201.316,127.961c0,0,2.501-1.193,3.138,0.029C205.091,129.214,200.126,128.998,201.316,127.961z" fill="#B9C5D1"/>
<path d="M180.014,111.966c0,0,5.008,0.671,3.796,1.998c0,0-0.251,0.439-0.583-0.188S179.09,112.113,180.014,111.966   z" fill="#B9C5D1"/>
<path d="M181.797,115.641c0,0-0.769,1.89,0.257,1.637C183.079,117.025,183.174,116.286,181.797,115.641z" fill="#B9C5D1"/>
<path d="M186.218,116.693c0,0,1.145,0.369,0.591,0.591C186.255,117.506,186.145,117.358,186.218,116.693z" fill="#B9C5D1"/>
<path d="M184.741,120.017c0,0,2.186,0.348,1.684,1.078C185.923,121.827,184.334,120.645,184.741,120.017z" fill="#B9C5D1"/>
<path d="M190.65,120.497c0,0,1.107-0.406,1.145,0.369C191.795,120.866,190.835,121.532,190.65,120.497z" fill="#B9C5D1"/>
<path d="M189.8,123.078c0,0,1.146-1.103,1.257-0.66C191.167,122.861,191.387,123.664,189.8,123.078z" fill="#B9C5D1"/>
<path d="M183.67,119.205c0,0,1.553,0.784,1.423-0.31C185.093,118.896,183.744,118.467,183.67,119.205z" fill="#B9C5D1"/>
<path d="M188.767,119.943c0,0,0.032,0.678,0.293,0.856C189.32,120.978,190.17,119.5,188.767,119.943z" fill="#B9C5D1"/>
<path d="M192.494,121.51c0,0,0.962,0.978,1.184,0.739C193.9,122.012,193.709,120.859,192.494,121.51z" fill="#B9C5D1"/>
<path d="M214.815,136.514c0,0-0.602,1.307,0.47,0.789C216.356,136.785,215.084,136.869,214.815,136.514z" fill="#B9C5D1"/>
<path d="M211.444,131.984c0,0-0.997-1.034,0.702-0.739C212.146,131.245,212.33,132.021,211.444,131.984z" fill="#B9C5D1"/>
<path d="M211.796,133.406c0,0-0.573-0.609,0.202-0.757C211.998,132.649,212.775,133.24,211.796,133.406z" fill="#B9C5D1"/>
<path d="M211.791,134.057c0,0,0.142,1.485,0.571,1.474S214.098,134.14,211.791,134.057z" fill="#B9C5D1"/>
<g>
<path d="M40.308,56.611c0,0-4.857,3.909-9.003,5.094s-6.752,4.62,1.659,1.304    c8.41-3.317,10.661-3.317,10.898-4.502s6.042-5.212,7.226-4.383s6.634-2.132,9.121-1.185c2.488,0.947,4.502,1.185,7.108,1.303    c2.606,0.119,11.846,3.554,14.333,6.278c0,0-1.185-0.474-0.119-2.369c1.066-1.895,2.725-0.592,2.132,0.119    c-0.592,0.71-2.487,1.065-1.066,1.658c1.421,0.592,5.804,2.843,6.042,4.501c0.237,1.659,4.027,4.146,4.856,4.976    s1.777,1.066,1.777,1.066s-3.554-0.119-2.843,0.592c0.71,0.711,7.463,3.08,8.884,3.08s0.474,0,0.474,0s-0.829,6.516-2.014,9.121    c-1.185,2.606,2.606,10.188,5.331,13.387c2.724,3.198,5.804,3.554,7.344,6.159c1.54,2.606,5.804,6.989,5.094,7.463    c-0.711,0.474,6.278,6.16,6.989,8.529c0.711,2.369,2.014,1.303,2.014,0.237c0-1.066-4.501-8.056-6.989-9.951    s-3.554-3.909-2.725-4.501c0.83-0.593,4.265,2.605,4.265,3.672s2.488,1.896,3.672,3.554s2.014,2.014,4.383,4.502    c2.369,2.487,4.738,4.501,4.265,6.396s1.066,2.843,2.606,4.027s2.369,1.304,3.672,2.014c0,0,9.003,5.213,11.017,3.909    c2.014-1.303,8.055,3.08,9.477,3.436c1.422,0.355,3.791,0.355,5.449,2.014s5.567,4.383,6.516,6.397    c0.947,2.014,5.804,4.146,5.923,2.724c0.118-1.421,2.132-3.908,2.843-2.369c0.711,1.54,3.672,2.488,2.843,5.805    c-0.829,3.317-1.895,7.463-2.961,7.7c-1.066,0.236-8.411,7.107,3.672,24.521c0,0,10.306,6.278,11.728,11.609    s-1.54,14.097-2.251,17.888c-0.71,3.79-4.146,13.741-3.554,17.058c0.593,3.317-1.303,6.516-1.658,7.227    c0,0,1.54-1.659,2.014-1.066c0.474,0.592-1.066,4.62-2.725,7.345c-1.658,2.724-1.54,15.044,12.794,15.518    c0,0,4.501-0.118,4.62-0.829c0,0-6.515,0.947-7.226-6.516c0,0,6.871-5.686,6.16-6.87c-0.711-1.185-3.08,0.118-3.317-1.54    s4.62-2.962,4.857-6.16c0.237-3.198-0.355-3.554-0.355-3.554s6.634,1.304,5.331-3.198c0,0,13.031,3.554,9.358-5.805    c0,0,2.606-0.829,5.212-2.961c2.606-2.133,9.714-7.463,9.24-13.149c0,0,1.185-4.265,6.752-5.449c0,0,4.264-0.592,4.62-1.303    s4.265-3.08,4.383-5.805c0.118-2.725,0.355-9.714,2.25-12.438s6.989-6.988,5.923-11.017c-1.066-4.027-2.487-2.487-3.909-3.08    c-1.421-0.592-6.87-3.435-8.647-3.554c-1.777-0.118-9.595-4.027-11.372-3.554c-1.777,0.475,1.777-5.804-4.146-5.804    c0,0-4.383-6.516-9.951-6.871c-5.567-0.355-7.818-6.16-8.292-7.581c-0.474-1.422-6.989,0.355-7.818,0.71    c-0.829,0.355-2.843,0.355-4.265-0.71c-1.421-1.066-3.316-3.198-4.027-2.606c-0.711,0.593-2.606-1.54-4.738,0.118    c-2.132,1.659-5.923,0.829-5.449,2.488c0.474,1.658-1.066,4.027-1.658,3.909c-0.593-0.119-1.896-1.896-2.843-1.896    s-6.871,1.776-7.818-0.118c-0.948-1.896-2.014-3.791-1.066-10.543c0,0-9.358,0.947-9.24-0.948    c0.118-1.896,2.843-5.449,2.724-8.766c-0.118-3.317-5.449,0.829-6.515,2.961c0,0-5.212,5.094-8.766,0.83    c-3.554-4.265-10.188-30.207,21.796-18.48c0,0,5.923,5.924,3.317,7.227c0,0-1.54,1.421,0.829,0.947c0,0,1.895,1.304,0.237-7.699    c0,0-2.369-3.317,0.711-5.213s12.438-3.909,8.411-8.884c0,0,2.014-5.805,7.818-6.634c5.805-0.829,1.896-1.304,1.54-4.265    c0,0,9.122-4.976,9.003-3.554c0,0-3.435,4.856,1.777,2.369c5.212-2.487,7.107-2.606,8.766-3.673c0,0-0.592-2.605-4.146-0.118    c0,0-23.455-8.884,7.344-9.121c0,0,9.832-0.947-5.094-9.121c0,0-6.634-6.278-6.752-8.411c0,0-6.989,8.647-8.647,3.08    s-15.518-7.937-15.874-6.041s4.383,6.989,2.725,10.068c-1.659,3.08-3.554,12.557-6.397,9.596    c-2.843-2.962-1.54-6.989-14.097-8.767c-12.557-1.776-14.097-6.159-9.24-8.884s11.553-6.588,13.29-8.077    c0,0-0.95-0.524-0.59-0.918c0.36-0.393,3.899,0.754,4.718,0.622c0.819-0.13,4.652-0.948,2.981-2.914s1.409-1.048,1.311-1.604    c-0.099-0.558-2.981-0.655-2.031-1.475s4.783,0.754,4.881-0.131s-2.719-0.394-2.064-0.819s3.21,0.426,3.473,0.196    c0.262-0.229-1.54-0.688-0.688-0.786c0.852-0.098,1.965-0.164,2.555,0.524s5.013,1.441,3.571,1.77    c-1.441,0.327-1.867,0.917-1.081,0.851c0.787-0.064,2.981-0.982,2.556-0.393s-0.328,1.311,1.278,0.786    c1.605-0.523,3.604,1.18,3.407,1.9c-0.196,0.721-3.702,2.097-3.734,2.392c-0.033,0.295,1.9,0.327,1.343,0.622    c-0.557,0.295-4.718,0.885-5.897,0.328c-1.179-0.558-2.555,1.343-1.54,1.867s8.027-0.95,10.025,1.311c0,0,1.048-0.229,1.441,0.032    c0.393,0.263-0.95,0.426-0.557,0.787c0.393,0.359,3.276,0.982,3.604,0.688c0,0,7.043,2.392,6.847,1.572    c-0.196-0.818-4.882-2.719-5.832-3.047c0,0,1.704-0.098,2.195,0.263c0.491,0.36,6.454,2.162,6.355,1.769    c-0.098-0.393-2.654-0.459-1.966-1.016s1.868-0.327,1.9-0.688s-2.654-1.081-2.228-1.311c0.426-0.229-0.229-1.213-0.59-1.016    c-0.36,0.196-4.849-2.031-3.374-2.687c1.474-0.655,3.768,0.819,4.226,0.491c0.458-0.327,2.162-1.18,1.671-0.688    c-0.492,0.491-0.099,2.687,0,2.326c0.098-0.36,2.457,1.048,1.965,0.098c-0.491-0.95,0.721-2.391,2.687-2.521    s-0.721-1.18-1.311-0.885c-0.589,0.295-0.852-0.196-0.917-0.688c-0.065-0.492-2.162-0.394-2.654-0.688    c-0.491-0.295-6.257-1.049-5.995-1.638c0.262-0.59,2.654-0.786,2.522-1.18c-0.131-0.393-3.538-0.164-2.981-0.557    c0.557-0.393,2.162,0.458,2.195-0.263s-10.124-3.439-11.696-3.112c0,0-12.351-0.556-12.351-1.277c0-0.721-0.033-1.016-1.212-1.835    c-1.18-0.819-6.618-0.753-7.044-0.458c-0.426,0.294,0.066,1.245,0.098,1.998c0.033,0.753,1.999,0.885,0.852,1.408    c-1.147,0.525-4.849-0.621-3.244-2.194c1.605-1.573,2.359-1.441,1.704-1.835c-0.655-0.394-9.239-0.786-7.831,4.488    c0,0,3.866-0.196,3.669,0.36c-0.196,0.558-2.883-0.36-2.817,0.263c0.065,0.622,11.925,1.311,11.663,1.9    c-0.262,0.589-4.521-0.099-4.783,0.327s-1.605,6.323-4.75,2.72c-3.145-3.604-8.125-6.127-9.992-6.487c0,0,8.583-3.112,6.749-3.604    c-1.834-0.491-9.435-1.016-9.599-0.557c-0.164,0.458,0.753,3.078,0.229,3.865c-0.524,0.787-3.735,2.293-1.082,3.964    c0,0-5.929,0.557-6.323,1.016c-0.393,0.459,1.769,0.557,1.212,1.475c-0.557,0.917-10.418-0.263-8.125-0.557    c2.293-0.295,5.962-2.064,4.586-2.688c-1.361-0.615-10.293-7.102-13.464-4.634c-0.034,0.025-0.066,0.053-0.099,0.081    c0,0-26.799-4.063-28.699-3.112c-1.9,0.949,0.229,1.441,0.459,1.475c0,0-4.292,5.798,5.11,4.389c0,0,3.997-2.588,4.652-2.489    c0,0,0.229,4.161,2.162,4.128c0,0-0.229,2.129,6.847,2.293c0,0,0.852,1.803,4.652,1.245c0,0,6.684,1.213-5.438,0.983    c0,0-14.579-4.292-15.988-3.539c-1.409,0.754-2.228,1.18-2.031,0.328c0.196-0.852-1.212,0.491-2.687,0.065    c-1.475-0.426-14.48-1.999-20.017,0.95c0,0-14.939-1.409-16.02-1.835c-1.082-0.426-8.715-0.36-12.023-1.966    c-3.309-1.604-5.537-0.688-6.225-0.557c-0.688,0.131-4.456,0.688-5.701,0.95c-1.245,0.262-4.259,0.295-5.373,1.016    c-1.114,0.721-0.59,2.162-2.522,2.261c-1.934,0.098-5.635,0.786-0.558,2.85c0,0,8.944,3.375,1.573,2.49    c0,0-8.583-0.622-8.256,0.426s2.097,0.491,2.392,1.277c0.295,0.786-3.473,1.999,9.599,0.819c0,0,1.867,0.852,0.623,1.376    c-1.245,0.524-3.702-0.328-5.832,0.229c-2.129,0.557-5.832,3.637-2.326,4.619c0,0,0.125,1.294,0.655,1.9    c0.229,0.262,2.949,1.638,3.506,1.474c0.557-0.163,2.391-0.818,2.162,0.688c-0.229,1.507,3.538,1.966,5.078,0.852    C39.494,55.59,40.368,54.489,40.308,56.611z" fill="#B9C5D1"/>
<path d="M159.149,15.171c0,0,11.081-1.017,15.248-0.509c4.168,0.509,27.04-3.66,34.563-0.915    c0,0-4.676,1.524-10.166,2.236c-5.489,0.712-9.25,5.998-13.723,5.896c-4.473-0.102-3.151,2.949-5.693,2.949    c-2.541,0-18.5,1.117-17.078-0.61c1.423-1.729,2.948-0.407,2.948-1.017c0-0.61-3.151-1.83,3.151-0.61c0,0,1.729-1.423,0.712-1.22    s-4.676-0.61,1.017-1.22l1.016-0.508c0,0-1.423-0.712-3.558-1.119c-2.135-0.406,1.22-1.524,5.998-0.203    c0,0,10.978-1.017,11.385-1.524c0.406-0.509-8.539-0.406-16.976-0.102S157.93,16.085,159.149,15.171z" fill="#B9C5D1"/>
<path d="M150.204,17.61c0,0,2.745-2.236,5.998-1.424c3.253,0.813,10.775,1.932,9.962,2.948    c-0.813,1.017-2.338,3.558-7.827,2.236C152.847,20.05,147.561,19.947,150.204,17.61z" fill="#B9C5D1"/>
<path d="M133.025,19.847c0,0,9.657-0.102,10.877,0.406c1.22,0.509,2.948,2.542-2.033,2.033    C136.888,21.778,132.923,22.49,133.025,19.847z" fill="#B9C5D1"/>
<path d="M102.021,24.93c0,0,14.028-3.66,13.926-2.644s-1.321,2.136-0.102,1.83c1.22-0.305,5.083,1.525,7.624,1.829    c2.542,0.306,1.728,0.204,1.728,0.204l-1.22-1.83c0,0,15.147,0.712,8.335,2.948C125.503,29.504,110.865,28.895,102.021,24.93z" fill="#B9C5D1"/>
<path d="M146.443,20.66c0,0,6.099-0.407,5.692,0.508c-0.406,0.915-3.253,2.135-4.473,1.118    C146.443,21.271,146.443,20.66,146.443,20.66z" fill="#B9C5D1"/>
<path d="M198.656,19.697c0,0-9.128,3.923,10.009,6.966c19.137,3.043,14.493,7.848,14.573,9.449    c0.08,1.601,7.687,22.019,13.933,18.176c6.246-3.844,3.924-9.368,10.57-10.489c6.646-1.121,36.913-11.771,21.779-12.892    c0,0-2.242-3.284,8.968-1.682c11.21,1.601,9.449-14.733,3.363-12.571c-6.085,2.161-7.607,1.44-9.048,1.361    c-1.441-0.081,6.406-2.322-0.08-4.164s-36.753,0.16-44.2,0.881C221.076,15.453,200.898,14.813,198.656,19.697z" fill="#B9C5D1"/>
</g>
<path d="M283.082,44.222c0,0-1.632-1.605-3.125-1.38c-1.492,0.225,0.777,1.083,0.92,1.41   c0.144,0.327-2.003,0.92-1.656,1.206c0.348,0.286,2.78,0.47,2.351,0.776s-1.717,0.94-1.083,1.104   c0.634,0.163,8.473-0.249,10.093-0.513c1.62-0.265,6.853-0.775,5.892-1.88c-0.96-1.104-6.807-2.125-8.524-1.88   S283.222,43.599,283.082,44.222z" fill="#B9C5D1"/>
<path d="M562.112,186.847c-0.557-0.102,7.599,8.084,8.974,4.932c1.375-3.153,1.375-3.315,1.132-5.417   c-0.242-2.102,1.698-8.327,2.264-6.549c0.566,1.779,9.782,17.867,15.038,22.799s-0.937,31.177-12.693,26.437   s-8.57-9.943-11.965-9.459c-3.396,0.485-1.05,4.123-7.114-1.698c-6.063-5.82-26.518,8.732-31.126,4.205   c-4.608-4.527,0.565-5.256-1.94-11.076c-2.506-5.821,4.042-18.191,15.846-21.505c11.804-3.315,11.076-4.365,11.804-6.387   s2.263,0.08,2.344-1.132c0.081-1.213-4.689,0.242-3.557-1.132c1.132-1.375,9.459,0.646,11.885-0.809   C565.427,178.601,563.891,187.17,562.112,186.847z" fill="#B9C5D1"/>
<path d="M583.698,231.635c0,0-2.991,1.375-5.417,0.647C575.856,231.554,586.447,244.732,583.698,231.635z" fill="#B9C5D1"/>
<path d="M535.96,115.62c0,0-3.599,4.934-1.497,5.499C536.565,121.686,538.347,116.023,535.96,115.62z" fill="#B9C5D1"/>
<path d="M534.787,127.264c0.221,1.992,0.342,3.314-1.27,4.493c-1.222,0.894,1.599,2.272,1.891,2.827   c0.734,1.396,3.084,2.912,5.07,3.038c2.175,0.138-0.885-2.224-1.333-2.537c-1.58-1.107-2.955-1.292-1.991-3.327   c0.563-1.188,1.33-2.084,0.847-3.46C537.514,126.917,535.828,125.442,534.787,127.264" fill="#B9C5D1"/>
<path d="M528.562,147.637c0,0-0.404,3.558-3.072,4.204c-2.668,0.646-3.557,3.962-6.953,3.072   c-3.396-0.889,0.081,4.204-1.293,3.477c-1.374-0.728-2.736-2.489-3.309-1.042c-0.572,1.446,0.316,8.479,5.087,8.722   c4.771,0.243,8.247,3.315,8.408,0.971c0.162-2.345,1.391-5.994,3.202-7.444c1.811-1.449-0.049-3.308-0.21-5.814   C530.259,151.274,535.029,147.879,528.562,147.637z" fill="#B9C5D1"/>
<path d="M552.088,162.431c0,0,6.306-3.477,8.569,3.638c0,0,0.485,0.728,1.455-0.404s-0.323-5.013,11.237,0   c11.561,5.013,6.306,4.285,7.6,4.527c1.294,0.243,2.83,0.89,2.587,1.778c-0.242,0.89-1.131-0.081-0.97,1.213   s0.154,1.227,1.451,2.473s4.866,2.005,4.618,2.96c-0.249,0.954-5.453,0.593-5.746-0.178c-0.293-0.77-0.647-1.94-2.183-2.91   c-1.536-0.97-2.344-2.021-3.719-1.051c-1.375,0.97-4.285,3.8-5.578,2.668s-2.991-2.91-3.234-2.507   c-0.242,0.404-5.255,3.801-2.102-2.829s-1.867-3.028-3.884-3.374c-2.018-0.345-3.796,0.787-5.089-0.669   c-1.294-1.455-0.162-1.455-0.324-2.587C556.615,164.047,551.118,164.29,552.088,162.431z" fill="#B9C5D1"/>
<path d="M214.875,251.454c0,0-2.512-0.439-2.605,1.263s1.612,1.856,1.923,1.082   C214.502,253.023,216.022,251.746,214.875,251.454z" fill="#B9C5D1"/>
<path d="M216.69,252.401c0,0-2.653,1.707-0.482,1.707s4.651-0.775,3.566-1.24S216.69,252.401,216.69,252.401z" fill="#B9C5D1"/>
<path d="M253.833,255.952c0,0,4.605,3.951,4.5,2.604C258.228,257.21,256.881,255.16,253.833,255.952z" fill="#B9C5D1"/>
<path d="M306.912,62.212c0,0-1.774,0.913-1.623,1.039c0.152,0.127,0.913,0.229,0.608,0.355   c-0.304,0.127-0.051,0.405-0.634,0.583s-0.608-0.381-1.395-0.278c-0.786,0.101-1.651,0.575-1.13,0.592   c0.521,0.016,1.054,0.017,0.725,0.346c-0.33,0.33-0.735,0.076-0.71,0.38c0.025,0.305,0.05,0.711,0.634,0.634   c0.583-0.075,1.414-0.561,1.404-0.255s-0.035,0.18-0.314,0.483c-0.278,0.305-0.974,1.3-1.146,1.411   c-0.172,0.11-0.78-0.498-0.882,0.034s0.558,1.42,1.318,1.395c0.76-0.025,2.966-1.166,3.879-1.142   c0.913,0.025,1.521,0.33,1.876-0.126c0.355-0.457,0.913-0.38,0.608-1.242s-0.659-1.547-0.38-1.876   c0.279-0.33,1.825-0.457,1.623-0.736c-0.203-0.278-0.836-0.837-1.293-1.318c0,0-0.203-0.025-0.761,0.152s-0.406,0.405-0.812-0.051   c-0.405-0.456-0.496-0.75-0.717-0.654C307.571,62.034,306.912,62.212,306.912,62.212z" fill="#B9C5D1"/>
<path d="M309.844,56.414c0,0-1.056,0.753-1.715,1.184s-0.959,1.833-0.771,1.854c0.188,0.022,1.43-1.474,1.988-1.956   C309.903,57.015,310.267,55.991,309.844,56.414z" fill="#B9C5D1"/>
<path d="M308.463,50.455c0,0,0.184-0.372-0.316-0.354c-0.5,0.019-0.753-0.413-0.323-0.489   c0.431-0.075,1.953-0.152,1.623,0c-0.33,0.152-0.418,0.621-0.59,0.806C308.687,50.601,308.746,50.666,308.463,50.455z" fill="#B9C5D1"/>
<path d="M308.305,50.93c0,0,1.301,0.419,0.829,0.552S308.152,51.132,308.305,50.93z" fill="#B9C5D1"/>
<path d="M309.489,59.334c0,0-1.69,0.85-1.259,0.824s0.507-0.354,1.014-0.126c0.507,0.228,2.039,0.069,1.666,0.288   c-0.373,0.218-1.26,0.776-0.652,0.903c0.608,0.126,2.028-0.102,2.307,0.354s-1.191,1.344-0.837,1.496   c0.355,0.151,2.282,0.431,2.814,0c0,0-0.158-0.073-0.041,0.521c0.117,0.594,1.229,0.094,1.066,0.749   c-0.163,0.656-0.163,1.366-0.67,1.315c-0.507-0.051-1.978-0.152-2.104,0.279c-0.126,0.431-0.938,0.836-0.532,0.861   s0.735-0.634,1.141-0.178c0.406,0.457,0.837,0.532,0.355,0.913c-0.481,0.38-2.738,0.608-2.408,0.862   c0.33,0.254,1.014-0.406,1.318-0.051c0.304,0.354,0.649,0.504,1.085,0.416c0.436-0.087,1.577,0.269,1.272,0.547   c-0.304,0.279-1.8,0.305-2.155,0.635c-0.355,0.329-2.003,1.141-2.003,1.394c0,0.254,0.482,0.634,1.8-0.203   c0,0,1.521,0.685,2.104-0.785c0,0,1.054,0.438,1.744,0.308s2.788,0.215,4.224-0.236c1.436-0.452,2.931-0.554,2.678-1.01   s-1.474,0.2-1.257-0.293s4.147-1.532,0.826-2.698c0,0-1.352,0.266-1.576,0.094c-0.224-0.17,0.69,0.162,0.474-0.473   c-0.216-0.636-2.042-2.512-3.334-2.664c0,0-0.397-1.684-0.731-1.716c-0.333-0.033-2.134-0.261-2.919-0.616   c0,0,1.044,0.022,1.144-0.331c0.099-0.354-0.18-0.683,0.2-0.76c0.38-0.075,1.737-1.824,1.3-2.002   c-0.438-0.178-3.708,0.734-3.759,0.051c-0.051-0.686,0.025-0.938,0.406-0.938s1.623-0.558,1.268-0.634s-2.814,0.456-3.169,0   c-0.355-0.457-1.09,0.229-1.065,0.558s0.507,0.735,0.203,0.735c-0.305,0-0.355-0.253-0.583-0.051   c-0.229,0.203-0.102,0.761-0.305,0.786c-0.203,0.024-1.851-0.278-1.572,0.051s1.503,0.046,1.55,0.429   c0.047,0.382-0.333,0.696-0.562,0.763C309.726,59.768,309.607,59.548,309.489,59.334z" fill="#B9C5D1"/>
<path d="M315.528,56.098c-0.103-0.005-1.166-0.173-0.632-0.591c0.534-0.419,0.939-0.495,1.167-0.495   s0.938-0.304,0.583,0C316.292,55.316,315.905,56.12,315.528,56.098z" fill="#B9C5D1"/>
<path d="M318.447,53.998c0,0,0.253-0.38,0-0.482c-0.253-0.102-0.634-0.38,0.229-0.785   c0.861-0.406,0.811-0.33,0.633-0.152C319.132,52.755,318.701,54.581,318.447,53.998z" fill="#B9C5D1"/>
<path d="M344.56,18.501c0,0-5.292-0.083-4.673,0.653c0.619,0.737,2.009,0.234,1.932,1.046   c-0.077,0.811,1.468,0.733,1.931,1.004c0.464,0.271,3.083-0.082,3.705-0.408c0.621-0.325,3.468-0.287,2.933,0.177   c-0.536,0.463-4.667,0.733-4.281,1.081s4.942-0.193,4.209,0.192c-0.734,0.387-4.595-0.076-4.441,0.503   c0.154,0.578,3.321,1.969,4.093,1.776c0.772-0.193,1.39-0.734,2.201-1.43c0.811-0.694,1.236-1.66,1.429-1.429   c0.193,0.232,1.313,0.811,1.352-0.154s3.9-1.313,2.355-1.583s-2.279,0.772-2.819,0.116c-0.541-0.656,0.309-1.313-0.386-1.043   c-0.695,0.271-1.352,0.85-1.583,0.348s-0.811-0.579-1.776-0.889c-0.966-0.309-1.192,1.01-1.291,1.162   c-0.099,0.151-0.64,0.729-0.872,0.229c-0.231-0.502-1.197-1.235-1.738-1.159c-0.541,0.078-0.579,1.12-1.39,0.85   C344.638,19.273,344.792,18.732,344.56,18.501z" fill="#B9C5D1"/>
<path d="M353.441,18.037c1.494-0.548,7.125-0.038,7.269,0.238c0.704,0.309,2.674-0.432,3.621-0.306   c1.157,0.153,3.625-0.269,4.494,0.647c-0.566-0.597-5.609,1.28-6.695,1.196c-1.497-0.113-4.083-0.776-3.496-1.004   C357.99,19.059,353.1,18.893,353.441,18.037" fill="#B9C5D1"/>
<path d="M357.777,21.91c0,0,6.902,0.027,6.516,0.298s-1.39,0.927-2.819,0.772S356.783,22.578,357.777,21.91z" fill="#B9C5D1"/>
<path d="M337.475,84.103c-0.037,0.054,0.058,0.652-0.333,0.652c-0.392,0-1.146,0.276-1.131,0.639   c0.015,0.363,1.016,1.842,1.248,1.436c0.232-0.405,0.435-0.957,0.362-1.392C337.547,85.002,337.678,83.813,337.475,84.103z" fill="#B9C5D1"/>
<path d="M336.938,87.322c0,0-0.319,0.624-0.783,0.537c-0.464-0.087-0.609-0.56-0.74-0.377   c-0.131,0.183-0.363,0.362-0.029,0.725c0.334,0.362,0.435,0.465,0.363,0.885c-0.073,0.421-0.348,0.406-0.16,0.421   s0.333-0.203,0.261,0.188c-0.073,0.392-0.368,1.014-0.329,1.159c0.039,0.146,0.271,0.872,1.315,0.437c0,0-0.232-0.464,0.014-0.464   c0.247,0,0.827,0.305,0.958,0.116s0.653-1.509,0.392-1.741c-0.262-0.232-0.413-0.224-0.41-0.301   c0.003-0.076,0.496-0.047,0.424-0.352s-0.218-0.449-0.377-0.74c-0.159-0.29,0.045-0.636-0.224-0.644   C337.344,87.163,337.054,87.148,336.938,87.322z" fill="#B9C5D1"/>
<path d="M343.625,92.806c0,0,0.203-0.435,0.565-0.319c0.363,0.116,1.712,0.682,2.466,0.291   c0.754-0.393,1.64-0.001,1.813-0.378c0,0-0.508,0.754-0.696,1.189c-0.189,0.436,0.45,1.131,0.246,1.204   c-0.203,0.072,0.058-0.072-0.29,0.203c-0.348,0.275-0.986,0.275-1.276-0.102s-1.233-0.624-1.45-0.639   c-0.218-0.014-1.625-0.087-1.929-0.58S342.566,92.53,343.625,92.806z" fill="#B9C5D1"/>
<path d="M346.257,96.346c0,0-0.368-0.142-0.296-0.021c0.072,0.122-0.016,0.383,0.057,0.455   c0.073,0.073,0.79,0.197,0.772,0.019C346.79,96.799,346.337,96.345,346.257,96.346z" fill="#B9C5D1"/>
<path d="M419.699,32.486c0,0,3.745,1.296,3.411,2.227c-0.334,0.93,0.376,1.955-1.438,1.088   c-1.814-0.868-3.604-0.924-4.576-0.947s-0.71-0.71-1.42-1.025c-0.71-0.315-4.576,0-3.866-0.867c0.71-0.868,2.13-0.474,2.367-1.421   c0.237-0.946,4.369-1.075,3.959-1.8c-0.409-0.724-1.302-0.592-1.302-0.592s2.387-0.578,3.967-1.42   c1.581-0.843,3.158-0.843,4.657-1.474c1.5-0.631,2.604-1.578,3.393-1.578s8.521,0.395,9.072-0.236   c0.552-0.631,5.91-0.678,5.2-0.145c-0.71,0.532-0.957,0.999-2.25,1.124c-1.293,0.125-3.345-0.033-4.528,0.125   c-1.183,0.158-7.257,0.553-7.889,1.184c-0.631,0.631-1.856,1.33-5.464,2.006c0,0,0.729,0.902,0.059,1.539   C422.381,30.909,419.62,32.25,419.699,32.486z" fill="#B9C5D1"/>
<path d="M455.91,18.451c0,0-2.388-0.117-0.997,0.293c1.39,0.41,4.545,1.515,3.757,0.726   C457.881,18.682,455.91,18.451,455.91,18.451z" fill="#B9C5D1"/>
<path d="M481.895,16.223c0,0-2.662-0.249-1.584,0c1.079,0.25,2.35,1.24,2.464,0.47   C482.888,15.921,481.895,16.223,481.895,16.223z" fill="#B9C5D1"/>
<path d="M461.541,16.574c0,0-1.53,0.608-0.347,0.608s2.407,0.628,1.637-0.08   C462.062,16.394,461.541,16.574,461.541,16.574z" fill="#B9C5D1"/>
<path d="M407.479,36.725c0,0-2.69,2.152-0.954,2.152c1.735,0,4.396-0.834,3.5-1.206   C409.127,37.299,407.479,36.725,407.479,36.725z" fill="#B9C5D1"/>
<path d="M402.58,16.788c0,0-2.236-0.239-1.749,0.314c0.486,0.554,1.828,0.396,2.143,0.316   c0.316-0.078,1.42-0.552,1.42-0.552L402.58,16.788z" fill="#B9C5D1"/>
<path d="M408.163,16.75c0,0-2.428,0.985-3.453,0.906c0,0,0.71,0.158,1.894,0.158c1.183,0,6.447,0.27,5.314-0.536   s-2.001-0.568-2.001-0.568L408.163,16.75z" fill="#B9C5D1"/>
<path d="M409.63,18.334c0,0,1.768-0.549,2.053,0.176S410.29,18.38,409.63,18.334z" fill="#B9C5D1"/>
<path d="M413.325,17.923c0,0,2.697-0.05,2.287,0.117C415.202,18.209,414.524,19.137,413.325,17.923z" fill="#B9C5D1"/>
<path d="M417.806,16.315c0,0,8.44-0.079,7.415,0.315S419.147,18.604,417.806,16.315z" fill="#B9C5D1"/>
<path d="M427.926,17.09c0,0-2.358,0.39-0.913,0.497c1.446,0.108,4.763,0.521,3.826-0.084   C429.901,16.899,427.926,17.09,427.926,17.09z" fill="#B9C5D1"/>
<path d="M431.929,15.25c0,0-1.367,0.917-0.21,0.667c1.156-0.25,2.484,0.105,1.583-0.425   C432.399,14.962,431.929,15.25,431.929,15.25z" fill="#B9C5D1"/>
<path d="M420.418,15.56c0,0-1.382,0.895-0.222,0.664c1.16-0.231,2.483,0.146,1.59-0.398   C420.894,15.28,420.418,15.56,420.418,15.56z" fill="#B9C5D1"/>
<path d="M420.267,17.733c0,0-1.382,0.895-0.221,0.664c1.16-0.231,2.482,0.146,1.59-0.398   C420.742,17.454,420.267,17.733,420.267,17.733z" fill="#B9C5D1"/>
<path d="M433.294,16.788c0,0-2.358,0.39-0.913,0.497s4.763,0.521,3.826-0.084S433.294,16.788,433.294,16.788z" fill="#B9C5D1"/>
<path d="M221.743,69.603c-0.206,0.06-7.688,5.594-6.471,6.178c1.216,0.584,7.203-0.925,7.543-0.194   c0.341,0.729,3.456,3.114,4.088,1.752c0.633-1.363,1.217-2.775-1.266-3.894C223.156,72.324,223.25,69.168,221.743,69.603z" fill="#B9C5D1"/>
<path d="M325.676,89.565c0,0-0.941,0.499-0.596,0.634s2.571,0.212,2.036-0.115   C326.581,89.756,326.271,89.258,325.676,89.565z" fill="#B9C5D1"/>
<path d="M327.539,89.22c0,0-0.134,0.346,0.077,0.326c0.211-0.02,0.922,0.596,0.769,0.192   C328.23,89.335,328.134,88.989,327.539,89.22z" fill="#B9C5D1"/>
<path d="M323.486,90.91c0,0-0.903,0.537-0.422,0.519c0.48-0.02,0.912-0.114,0.754-0.331   S323.486,90.91,323.486,90.91z" fill="#B9C5D1"/>
<path d="M489.604,16.648c-0.203,0-6.757,0.541-6.217,1.825c0.54,1.283,4.865,0.743,6.014,1.148   c1.149,0.405,2.433,0.135,4.257,0.676c1.825,0.54,6.149,1.148,4.933,0.338c-1.216-0.812,1.216-0.946-0.135-1.824   c-1.352-0.879-3.243,0.067-3.919-0.271c-0.676-0.338-1.487-0.608-1.082-0.878c0.405-0.271-0.675-1.353-1.689-1.353   S489.604,16.648,489.604,16.648z" fill="#B9C5D1"/>
<path d="M498.117,21.717c0,0,2.028-1.718,3.075-2.211c1.047-0.492,7.601,1.062,6.655,1.399   C506.901,21.244,499.671,21.784,498.117,21.717z" fill="#B9C5D1"/>
<path d="M509.229,21.734c0,0,3.35,0.794,3.35-0.018S511.487,21.077,509.229,21.734z" fill="#B9C5D1"/>
<path d="M408.68,181.614c-0.117,0.105-2.102,3.679-3.469,4.835c-1.366,1.157-5.781,1.104-5.834,3.102   s0.052,1.734-0.053,1.997s1.261,3.521,0.158,4.73s-1.663,8.288,0.746,8.927s4.615,0.533,4.773-0.097   c0.158-0.631,2.891-12.51,3.732-14.244C409.573,189.131,410.677,179.828,408.68,181.614z" fill="#B9C5D1"/>
<path d="M627.16,221.591c0,0,3.086,2.333,3.131,4.94c0.045,2.608-2.435,3.271-0.417,3.967   c2.018,0.695,1.276,1.84,1.717,2.591c0.44,0.75,1.067,1.027,3.154-1.965c2.087-2.992,2.026-2.179,2.681-2.996   s-1.637-0.205-2.75-0.553c-1.113-0.348-2.048-3.78-2.157-3.549c-0.109,0.23,0.167,1.693-0.626,1.044   C631.1,224.421,627.725,219.564,627.16,221.591z" fill="#B9C5D1"/>
<path d="M624.446,236.413c0,0-3.967,3.062-5.01,3.062c-1.044,0-2.505,0.696-2.854,1.531   c-0.348,0.835,0.835,1.044,1.392,1.601s-0.453,1.275,0.583,1.385c1.036,0.108,0.786-1.044,1.146-1.146   c0.359-0.101,2.934,1.082,3.352,0.108c0.417-0.975,1.252-0.069,1.322-1.322c0.07-1.252-0.264-2.796,1.434-2.929   s3.816-0.272,2.781-0.6s-1.21-0.944-0.381-1.526c0.829-0.581,2.341-2.167,2.072-2.453c-0.269-0.285,0.636-2.165-0.408-1.608   s-1.531,2.088-1.879,1.323c-0.348-0.767-0.093-2.152-0.603-1.459c-0.51,0.692-0.928-0.073-1.136,1.598   C626.047,235.647,624.934,233.212,624.446,236.413z" fill="#B9C5D1"/>
<path d="M542.483,157.373c-2.118,0.075-4.623-0.033-6.634,0.704c-1.806,0.662-5.554,7.969-3.087,8.207   c0.076,0.794-0.468,1.789-0.46,2.639c0.014,1.456,1.336,1.671,1.484,0.134c0.068-0.711-0.332-3.477,0.792-3.608   c2.536-0.298,1.273,2.582,2.108,3.646c0.295,0.376,0.856-0.96,1.108-0.498c0.1,0.182,0.199,2.167,0.65,1.93   c0.811-0.426,1.685-2.938,0.384-3.293c-0.949-0.259-0.797-1.592-1.279-2.371c-0.735-1.187-1.31-1.891,0.325-2.398   c0.149-0.046,2.302-0.527,2.112-0.737c-1.546-1.709-3.855,1.603-4.7,1.285c-1.947-0.731-0.827-3.532,1.083-3.4   c2.066,0.142,4.176,0.136,6.186-0.476C544.584,158.519,544.312,156.458,542.483,157.373" fill="#B9C5D1"/>
<path d="M499.98,164.428c1.479,0.433,4.59,5.186,6.909,6.77c2.318,1.583,1.592-3.113,2.428-4.262   c0.835-1.148-2.25-2.604-3.02-3.492s-1.421-1.599-1.421-1.599s0.29,0.203,0.375-0.137c0.085-0.34,1.275-1.36-0.138-2.585   c-1.413-1.226-5.744-3.314-6.928-4.144s-1.945-0.667-3.476-2.367c-1.53-1.701-1.379-1.539-1.615-1.189   c-0.236,0.349-3.139-1.06-3.139-1.06c-0.759,0.641-0.006,1.823,2.19,3.492c2.197,1.668,0.864,1.816,2.224,2.327   s1.275,1.445,2.691,3.946C497.061,160.129,499.609,164.319,499.98,164.428z" fill="#B9C5D1"/>
<path d="M508.141,172.079c0,0,0.936-2.21,6.036,0.085s2.38,0.595,2.89,0.17c0.51-0.426,5.917-0.18,6.401,0.165   c0.485,0.345-3.251,0.222-2.191,1.006s2.591,1.294,3.611,1.124c1.02-0.17,2.541,0.653,1.185,1.008   c-1.355,0.353-2.244-0.654-3.967-0.533c-1.724,0.12-9.034-2.005-10.479-1.835c-1.445,0.171-3.138,1.043-2.635,0.255   C509.494,172.735,508.821,172.164,508.141,172.079z" fill="#B9C5D1"/>
<path d="M543.759,143.347c-0.376,0.641-1.673,3.166-2.733,2.336c-1.807-1.416-2.704,2.176-3.59,1.948   c1.421,0.368,2.659-1.326,3.362,0.776c0.123,0.366,2.337,2.625,2.563,2.311c0.271-0.468,0.283-0.938,0.036-1.408   c-0.306-1.038,1.007-1.313,1.502-1.96C545.921,146.014,544.979,144.16,543.759,143.347" fill="#B9C5D1"/>
<path d="M442.712,248.165c0,0,3.158-1.325,3.312-0.968c0.153,0.356-0.662,1.681-1.63,1.656   C443.425,248.827,442.33,249.184,442.712,248.165z" fill="#B9C5D1"/>
<path d="M179.63,283.455c-0.841,0.92-4.947,1.626-5.647,0.925c0.225,0.225,2.55,0.652,2.51,0.825   c-0.722,3.13,3.017,0.216,3.864,2.081C180.12,286.764,179.902,282.912,179.63,283.455" fill="#B9C5D1"/>
<path d="M163.896,281.166c0,0-4.677,1.529-4.413,0.835C159.748,281.309,163.024,280.132,163.896,281.166z" fill="#B9C5D1"/>
<path d="M170.883,282.468c0,0-3.175,0.029-2.878,0.261c0.297,0.23,1.685,0.792,2.411,0.23   S171.581,282.604,170.883,282.468z" fill="#B9C5D1"/>
<path d="M183.544,285.767c0,0-1.333,1.623-0.573,1.678C183.731,287.499,184.771,287.158,183.544,285.767z" fill="#B9C5D1"/>
<path d="M44,124.439c0,0-1.168,1.859,0.197,1.813C45.563,126.208,46.853,125.448,44,124.439z" fill="#B9C5D1"/>
<path d="M37.408,120.943c0,0-0.438,0.696,0.074,0.68C37.994,121.605,38.477,121.321,37.408,120.943z" fill="#B9C5D1"/>
<path d="M40.019,121.635c0,0-0.809,0.146-0.451,0.513C39.925,122.513,40.461,122.678,40.019,121.635z" fill="#B9C5D1"/>
<path d="M41.955,122.462c0,0-0.809,0.147-0.452,0.513C41.861,123.341,42.396,123.506,41.955,122.462z" fill="#B9C5D1"/>
<path d="M43.655,123.471c0,0-0.764-0.537-0.808-0.026C42.805,123.953,43.078,124.475,43.655,123.471z" fill="#B9C5D1"/>
<ellipse cx="638.435" cy="68.771" fill="#B9C5D1" rx="1.08" ry="0.743"/>
<ellipse cx="627.481" cy="66.565" fill="#B9C5D1" rx="1.08" ry="0.285"/>
<ellipse cx="615.925" cy="63.265" fill="#B9C5D1" rx="0.794" ry="1.587" transform="matrix(0.6867 -0.727 0.727 0.6867 146.9921 467.5763)"/>
<ellipse cx="638.183" cy="34.335" fill="#B9C5D1" rx="1.107" ry="0.506"/>
<path d="M533.261,140.148c0,0-5.089,6.24-4.85,6.32c0.239,0.079,1.51-1.152,2.544-2.027   c1.033-0.874,0.875-1.471,1.511-2.027S534.056,140.268,533.261,140.148z" fill="#B9C5D1"/>
<path d="M534.691,136.015c-1.008,0.518-0.068,1.657,0.604,2.266C535.499,138.465,537.489,136.868,534.691,136.015" fill="#B9C5D1"/>
<path d="M539.335,139.828c-0.471-0.134-2.081-0.21-2.338-0.435c0.663,0.58-0.132,1.441-0.013,2.074   C537.034,141.734,539.696,140.985,539.335,139.828" fill="#B9C5D1"/>
<path d="M539.979,141.183c-0.463,0.345-2.755,3.437-0.954,3.18C540.542,144.146,540.049,142.456,539.979,141.183" fill="#B9C5D1"/>
<path d="M548.882,157.122c0.435-0.405,0.634-0.902,0.596-1.491c-1.292-1.292-2.562,2.299-2.281,3.063   c1.3,3.531-0.355,1.231,2.102,3.959c-0.595-1.007-1.078-2.065-1.448-3.175c0.513,0.369,1.085,0.58,1.716,0.635   C548.321,159.776,548.844,157.934,548.882,157.122" fill="#B9C5D1"/>
<path d="M547.173,166.265c0,0,5.074-2.764,6.253,1.381c0,0-1.165-0.109-1.483-0.507s-0.875-0.437-0.994-0.437   c-0.099,0-0.736,0.188-1.025,0.011c-0.062-0.038-0.107-0.094-0.127-0.17c-0.12-0.438-0.955-0.159-1.471-0.12   C547.81,166.463,547.253,166.94,547.173,166.265z" fill="#B9C5D1"/>
<path d="M545.67,163.621c0,0-2.992-0.285-3.185-0.285c-0.192,0-1.032,0.318-0.9,0.403   c0.131,0.085,3.048-0.122,3.077,0.263c0.03,0.386,0.467,1.474,0.637,1.281C545.469,165.091,546.367,163.832,545.67,163.621z" fill="#B9C5D1"/>
<path d="M544.419,165.956c0.753-0.488,2.258,0.287,1.613,1.175C546.032,167.131,543.666,166.444,544.419,165.956" fill="#B9C5D1"/>
<path d="M527.981,175.112c0,0-1.419-0.259-1.437,0.849S528.12,175.875,527.981,175.112z" fill="#B9C5D1"/>
<path d="M542.993,175.026c0,0-7.15-0.606-8.345,0.173s-1.939,0.069-1.731,0.225   C533.124,175.58,540.17,177.779,542.993,175.026z" fill="#B9C5D1"/>
<path d="M532.656,175.303c0,0-2.735-1.039-2.666-0.45c0.069,0.589,0.658,0.831,0.381,0.849   c-0.277,0.018-1.177-0.45-1.541-0.138c-0.364,0.312,0.364,1.315,2.631,0.605C531.542,176.144,532.519,175.647,532.656,175.303z" fill="#B9C5D1"/>
<path d="M531.912,177c0,0,2.026,0.19,2.719,0.571c0.692,0.381,0.987,0.225,0.952,0.468   c-0.035,0.242,0.052,0.813-0.416,0.779c-0.468-0.035-0.832,0.173-1.299-0.329S531.392,177.242,531.912,177z" fill="#B9C5D1"/>
<path d="M560.59,170.072c-1.482,0.688-2.289,1.434-1.489,3.311C560.167,173.194,562.286,170.947,560.59,170.072" fill="#B9C5D1"/>
<path d="M542.663,176.775c-0.346,0.032-4.545,1.926-3.492,2.769c0.728,0.584,6.514-4.378,7.408-4.19   C545.249,175.074,543.051,175.196,542.663,176.775" fill="#B9C5D1"/>
<path d="M546.006,174.23c0,0-2.07-0.947-1.896,0.05C544.284,175.278,545.606,174.331,546.006,174.23z" fill="#B9C5D1"/>
<path d="M555.36,173.134c-1.334,0.501-1.923,1.981-1.896,1.971C554.434,174.781,555.066,174.125,555.36,173.134" fill="#B9C5D1"/>
<path d="M587.609,164.333c0,0,1.308,0.854,2.715,2.062c1.408,1.206,2.412,3.434,2.337,2.396   C592.587,167.752,589.52,164.132,587.609,164.333z" fill="#B9C5D1"/>
<path d="M589.899,167.883c0,0,1.029,0.874,0.526,1.126c-0.503,0.251-0.302-0.252-0.905,0.453   c-0.604,0.703-2.212-0.102-2.514,0.302c-0.302,0.401,0.252,1.256-0.804,0.955c-1.056-0.302-2.132-0.422-1.77-0.034   c0.362,0.386,1.82,1.039,2.977,0.737c1.157-0.302,4.503-1.192,3.596-3.56C591.004,167.862,590.127,167.209,589.899,167.883z" fill="#B9C5D1"/>
<path d="M595.524,169.303c1.438,0.612-0.739,3.812,2.411,3.747C598.664,173.035,596.066,169.534,595.524,169.303" fill="#B9C5D1"/>
<path d="M598.729,173.442c0.979,0.238,0.958,3.76,2.738,2.875C601.836,176.135,599.28,173.576,598.729,173.442" fill="#B9C5D1"/>
<path d="M601.452,174.334c-0.66,0.032-1.303-2.185-2.257-1.296C599.71,173.776,600.462,174.208,601.452,174.334" fill="#B9C5D1"/>
<path d="M603.887,176.293c-0.66,0.033-1.304-2.185-2.257-1.295C602.145,175.736,602.897,176.167,603.887,176.293" fill="#B9C5D1"/>
<path d="M607.598,178c-0.053-0.709-2.071-0.864-1.726-2.023C606.088,175.254,607.602,178.063,607.598,178" fill="#B9C5D1"/>
<path d="M591.596,179.956c0,0,1.946-0.037,2.198,0.667c0.251,0.704,0.704,0.955-0.051,0.904   C592.989,181.478,591.963,181.15,591.596,179.956z" fill="#B9C5D1"/>
<path d="M604.955,176.953c0.582,0.571,2.048,0.282,0.949,1.59C606.228,178.157,603.138,177.99,604.955,176.953" fill="#B9C5D1"/>
<path d="M604.653,179.869c0,0,2.313,1.156,2.163,1.257C606.665,181.226,604.804,181.579,604.653,179.869z" fill="#B9C5D1"/>
<path d="M606.739,179.456c0.876,0.363,1.68,0.275,2.435,0.996C608.438,180.526,607.096,180.233,606.739,179.456" fill="#B9C5D1"/>
<path d="M611.341,195.104c0,0,7.85,5.715,7.592,5.682c0,0-0.704-0.252-1.659-0.252s-4.726-2.514-5.078-3.369   c-0.352-0.854-1.504-2.126-1.179-2.194C611.341,194.902,611.341,195.104,611.341,195.104z" fill="#B9C5D1"/>
<path d="M635.539,190.929c-0.598,0.265-1.313,0.52-1.896,1.005c-0.04,0.033,2.678,0.427,3.395,0.048   C636.639,191.513,636.14,191.162,635.539,190.929" fill="#B9C5D1"/>
<path d="M637.612,189.17c-0.319,0.149-0.977,1.395-0.807,1.457c1.216,0.451,3.805-1.523,2.118-1.282" fill="#B9C5D1"/>
<path d="M543.139,138.115c-2.629-0.137,0.107,4.079-0.368,4.511C543.517,141.948,543.864,138.804,543.139,138.115" fill="#B9C5D1"/>
<path d="M539.69,139.177c0.106,0.084,1.45,0.902,1.362,0.474c-0.045-0.22-1.178-1.885-1.296-1.482   C539.677,138.502,539.655,138.839,539.69,139.177" fill="#B9C5D1"/>
<path d="M541.303,140.738c-0.433,0.689-0.736,1.672-0.502,2.485C540.73,142.979,542.9,141.402,541.303,140.738" fill="#B9C5D1"/>
<ellipse cx="604.785" cy="28.993" fill="#B9C5D1" rx="2.378" ry="0.349"/>
<path d="M571.591,86.934c0,0-0.791,0.445-1.632,2.721c-0.841,2.276-0.989,3.117-3.018,4.256   c-2.028,1.138-3.909,2.275-4.651,3.265s-4.206-0.247-7.026,1.583c-2.819,1.831-4.7,2.227-3.859,3.019   c0.841,0.791-0.543,1.88,1.089,2.325s2.721,0,2.77-1.781c0.05-1.781,2.522-3.417,3.018-3.391s1.683-0.814,2.277,0.273   c0.594,1.089,0.594,2.969,1.781,1.633c1.188-1.336,4.305-1.435,5.542-2.771S575.796,89.11,571.591,86.934z" fill="#B9C5D1"/>
<path d="M551.306,110.039c-1.328,1.327-3.251,2.57-4.405,4.001C547.612,113.159,551.71,112.257,551.306,110.039" fill="#B9C5D1"/>
<path d="M556.919,102.304c0,0-0.959-1.794,0.474-2.249s1.334-1.297,1.829-0.752   c0.495,0.544,0.792,1.286,0.248,1.435C558.925,100.886,557.393,102.54,556.919,102.304z" fill="#B9C5D1"/>
<path d="M570.404,85.102c0,0,0.136,0.577,0.488,0.512c0.352-0.066,0.896,0.428,0.352,0.479   c-0.544,0.049-1.434,0.147-1.434,0.147s-0.446-0.643,0.197-1.483c0.644-0.842,0.049-1.484,0.544-1.386s0.94,1.484,1.286,0.445   c0.347-1.039-0.314-3.701,0.239-4.003c0.553-0.302,1.295,0.886,2.334,1.281c1.04,0.396,2.871,0.842,3.563,0.99   c0.692,0.148,0.742,0.939,1.039,1.286c0.296,0.347,1.237,0.396-0.099,0.544s-1.386-0.494-2.127,0.396   c-0.742,0.891-0.643,1.337-1.435,1.287s-1.386,0.049-2.276-0.445c-0.89-0.495-1.435-0.692-1.682-0.495   C571.146,84.854,570.404,85.102,570.404,85.102z" fill="#B9C5D1"/>
<path d="M595.701,72.059c0,0-1.365,2.097-0.888,1.657C595.29,73.277,596.211,72.572,595.701,72.059z" fill="#B9C5D1"/>
<path d="M593.037,74.663c0,0-2.961,2.193-2.605,2.309C590.788,77.087,593.06,75.554,593.037,74.663z" fill="#B9C5D1"/>
<path d="M588.66,77.878c0,0-2.602,1.605-2.018,1.521S588.808,78.818,588.66,77.878z" fill="#B9C5D1"/>
<path d="M584.999,79.857c0,0-4.444,1.257-3.212,1.494C583.02,81.589,584.999,80.698,584.999,79.857z" fill="#B9C5D1"/>
<path d="M617.398,187.968c0.694,0.176,0.118,2.072,1.476,1.683C619.172,189.564,617.706,188.045,617.398,187.968" fill="#B9C5D1"/>
<path d="M619.904,191.878c-0.336-0.097-0.277-1.329-0.916-1.044C619.122,191.296,619.427,191.644,619.904,191.878" fill="#B9C5D1"/>
<path d="M620.794,193.287c-0.336-0.098-0.276-1.328-0.915-1.044C620.011,192.705,620.316,193.054,620.794,193.287" fill="#B9C5D1"/>
<path d="M622.372,194.79c0.091-0.342-0.886-0.808-0.521-1.319C622.084,193.144,622.363,194.822,622.372,194.79" fill="#B9C5D1"/>
<path d="M621.22,193.805c0.01,0.402,1.097,0.428,0.204,0.967C620.272,195.465,621.183,192.322,621.22,193.805" fill="#B9C5D1"/>
<path d="M617.609,197.111c0,0,0.968,0.983,0.874,1.008S617.39,198,617.609,197.111z" fill="#B9C5D1"/>
<path d="M621.982,194.973c0,0,0.833,0.45,0.887,0.712c0.054,0.263,0.121,0.264,0.121,0.264l-0.067-0.001   C622.923,195.947,622.011,195.55,621.982,194.973z" fill="#B9C5D1"/>
<path d="M618.634,186.807c0.26-0.268,0.556-0.49,0.887-0.668c0.188-0.067,1.071,2.393,0.59,2.474   C619.648,188.688,619.103,187.024,618.634,186.807" fill="#B9C5D1"/>
<g>
<g>
<path d="M455.928,29.903c-0.301-0.114-0.611-0.17-0.848-0.136C454.579,29.839,455.185,29.826,455.928,29.903z      M639.881,44.734v-7.261c0,0-7.258-1.119-9.57-1.211c-2.313-0.091-7.697-1.563-6.976-0.601c0.721,0.962,2.71,1.58,0.874,1.812     c-1.836,0.232-5.243-0.567-4.382-0.769c0.862-0.201,1.343-1.765,0.02-1.283c-1.323,0.48-2.165,1.322-4.931,1.082     c-2.767-0.241-17.631-2.895-20.963-2.049c-3.332,0.846-3.606-2.189-5.033-3.077c-1.426-0.888,0.739-2.692,3.505-2.692     s6.561-1.063,4.182-1.313c-2.378-0.251-14.29-0.829-17.17-1.184c-2.881-0.355-7.818-1.953-8.901-0.991     c-1.082,0.962-10.631-0.014-8.743,0.715c1.888,0.728,9.938,3.267,14.091,1.696c4.153-1.569,9.806,0.836,9.084,1.918     c-0.721,1.083-3.127,1.685-5.773,1.685s-7.149-0.662-7.86-0.308c-0.711,0.355-1.991-0.455-3.079,0.888     c-1.088,1.344-11.07-0.821-11.792,0.381c-0.721,1.203-6.667,3.428-5.378,1.474s3.935-1.354,2.492-2.556     c-1.443-1.203-8.419-3.969-10.944-2.766c-2.526,1.202-2.405,2.886-3.849,2.525c-1.443-0.361-4.068-2.169-5.653-1.684     c-1.585,0.484-19.844,0.962-18.281,0.36s9.123-1.209,8.229-3.19s-8.192-2.693-11.398-2.338c-3.206,0.356-1.643-1.688-2.604-1.688     s-7.134,1.897-9.622,2.044c0,0-14.072-0.36-14.672,0.722c-0.602,1.083-5.893,1.443-7.817,1.443c-1.925,0-6.179,0.721-5.773,1.083     c0.405,0.361,3.055,0.874,1.708,1.278c-1.347,0.405-8.563,0.646-8.563,0.646s-0.31,1.906,2.732,2.817s1.72,0.258,1.539,1.065     c-0.182,0.808,2.021,1.548,0.799,1.538c-1.222-0.009-4.709-3.016-6.152-3.016s-0.81-1.168-1.367-1.245s-0.678,0.403-1.64,0.403     s-2.11-0.372-2.919-0.848c-0.328-0.192-0.897-0.287-1.404-0.34c0.766,0.292,1.471,0.983,0.753,1.672     c-1,0.959-1.481-0.845-2.804-1.206c-1.323-0.36,0,1.563-1.203,1.804c-1.203,0.241-1.589,5.854-0.671,5.646     c0.917-0.207,5.033-0.66,4.115-0.267c-0.918,0.394-4.024,1.534-3.493,1.806c0.53,0.271,1.973,0.512,0.65,1.113     c-1.323,0.602-4.856,2.535-6.216,2.29s-1.273-0.71-1.273-0.71s4.406,0.591,4.204-4.824c-0.202-5.415,0.769-6.336-0.563-6.497     c-1.332-0.161-3.367-2.045-5.171-0.843c-1.804,1.203-4.811,2.405-4.931,3.729c-0.12,1.322,0.841,2.164,1.563,2.886     c0.722,0.722,2.559,0.695,1.938,1.79c-0.621,1.095-0.494,2.179-2.298,0.856c-1.805-1.323-9.027-2.539-10.824-2.525     c-1.798,0.012-3.97-3.368-3.97-1.564s2.764,1.725,2.468,2.582c-0.296,0.858,0.28,1.288-1.214,0.977s-7.868-1.393-10.634-0.552     c-2.766,0.842-6.896,0.924-8.98,2.206c-2.085,1.282-3.889,2.365-4.25,1.282s1.924-2.646,0.481-3.007     c-1.443-0.361-3.35-0.953-4.141,0.666c-0.79,1.619,0.653,1.739-0.67,2.341c-1.323,0.602-7.064,2.179-7.381,2.953     c-0.316,0.774,3.652,2.459-5.248-0.066c0,0,2.525,1.563,1.563,2.405c-0.962,0.842-3.582,1.42-4.437-0.433     s-3.042-3.355-3.813-4.589s15.207,2.604,14.194-1.059c0,0-8.74-3.789-16.242-4.447c-7.502-0.658-2.792-1.627-5.508-1.623     c-2.716,0.003-2.716,0.363-4.521,0.363c-1.804,0-0.685-1.234-1.906-0.857c-1.221,0.377-0.981-0.104-3.506,0.737     s-0.36,1.203-4.33,1.323c-3.969,0.12-10.704,1.684-12.027,2.165c-1.323,0.48-2.085,1.138-0.962,0.962     c1.123-0.176,4.674-0.671,4.441-0.035c0,0-0.46,0.603-2.288,1.573s-3.817,1.126-4.279,2.733     c-0.461,1.607-0.119,1.088-2.118,1.977c-1.999,0.888-6.283,2.431-7.14,2.888c-0.857,0.456-2.627,0.742-3.542,2.741     c-0.914,2,0.571,2.284,0.743,3.827c0.171,1.542,4.859,2.949,8.456-0.067c0,0,5.439,4.899,4.661,5.082     c-0.779,0.184-2.835,0.869-2.778,1.154s-1.056,0.66-0.157,0.873c0.899,0.213,1.431,0.891,0.908,0.809s-0.694,0.774,0.848-0.025     c1.542-0.8,0.85-0.646,0.79-1.277c-0.059-0.631,0.752,0.25,0.752,0.25s2.17,0.571,2.228,0.113     c0.057-0.457,1.028-0.742,2.056-0.971c1.028-0.229,1.448-4.159,2.838-4.879c1.39-0.719,3.898-0.952,3.672-1.835     s-2.054-0.997-2.682-1.111s-0.813-0.248-0.778-0.724c0.036-0.476,1.578-4.304,4.148-4.589c2.57-0.286,3.827-1.257,3.656-2.057     c-0.171-0.799,0.179-1.761,1.518-2.108c1.338-0.348,5.623,0.167,5.451,0.853c-0.172,0.685-8.625,4.854-8.168,5.198     c0.457,0.342,1.485,1.484,0.743,2.228c-0.743,0.742-0.971,1.428,1.942,1.599c2.914,0.172,10.682-0.8,11.367-0.399     c0.686,0.399,3.027,0.399,2.513,0.686c-0.514,0.285-2.399-0.286-3.77,0.8c-1.371,1.085-7.083,0.228-8.283,0.742     c-1.2,0.514-2.742,0.343-2.399,0.628c0.342,0.286-1.04,0.281-0.571,0.857c0.469,0.574,2.056-0.972,3.655,0.057     c1.6,1.028-0.057,2.57-0.971,2.399s-3.027-1.143-3.427,0.057c-0.4,1.2-1.038,2.609-2.347,3.361     c-1.309,0.752-2.052,1.037-3.137,0.009c0,0-6.219,2.021-7.286,1.77c-1.067-0.252-0.753-1.431-1.36-1.172     c-0.607,0.26-4.557,1.377-4.655,0.982s-1.189-0.737-1.492-1.237c-0.304-0.499-0.442-0.814-0.245-1.288     c0.198-0.474,1.444,1.517,1.729,0.832c0.286-0.687-0.392-0.684-0.624-0.97c-0.233-0.287-0.918-1.087-0.233-1.145     c0.686-0.058,1.574-0.087,1.102-0.414c-0.473-0.328-0.93-0.557-0.873-1.413c0.057-0.857-2.426-0.76-3.469,0.248     s-0.247,1.514-0.474,2.289s0.23-0.024,0.059,1.118c-0.172,1.143,0.895,1.866,0.533,2.019c0,0-1.447,0.323-3.161,0.666     s-2.913-0.114-3.313,0.686s-1.235,3.317-5.416,4.028c0,0,0.381,0.554-0.586,1.318c-0.967,0.766-4.28,1.622-4.623,1.508     s-0.645-1.115-0.743-0.172c-0.097,0.945,0.514,1.429-0.228,1.429c-0.743,0-0.8-0.343-3.085-0.229c0,0-4.627,0.399-1.485,1.656     s5.346,2.44,5.329,3.905c-0.017,1.464,0.514,4.705-1.636,4.342c-2.151-0.364-4.436,0.207-5.349-0.25     c-0.914-0.457-1.428-0.285-2.685-0.285c-1.256,0-2-0.344-2.627-0.058s-1.831,0.296-1.772,0.69c0.059,0.396,1.438,0.663,0.691,1.5     c-0.747,0.837,0.224,2.494-0.29,3.637c-0.514,1.142-1.078,2.869-0.539,3.091s0.939,0.907,0.653,1.764     c-0.286,0.857,0.571,0.971,2.114,0.914s1.885,0.686,2.17,0.972c0.286,0.285,1.483,0.88,2.227,0.04s2.686-0.384,3.828-0.384     s1.823-1.163,2.882-1.353c1.06-0.189,2.68-1.733,2.526-2.446c-0.153-0.713,0.46-3.826,2.246-3.97     c1.442-0.115,2.766-1.526,3.41-3.622c0.551-1.792,4.244,0.195,5.215,0.024c0.971-0.172,2.627-2.971,5.083-2.514     c2.457,0.457,2.693,2.152,2.775,2.762c0.082,0.608,3.566,2.95,4.879,2.95c1.314,0,2.681,1.328,3.054,1.863     c0.373,0.536,1.327,0.237,1.421,0.986c0.095,0.749,1.006,0.671,0.572,1.382c-0.434,0.709-0.935,1.652-0.535,1.709     c0.4,0.058,0.969-0.368,1.403-1.019c0.434-0.651,0.881-0.353,0.824-0.694c-0.057-0.344-0.914-0.686-0.856-1.314     c0.057-0.628,0.938-1.286,1.354-1.129c0.416,0.158,2.165,1.085,2.033,0.336c-0.132-0.749-1.854-1.4-2.764-1.874     c-0.91-0.475-1.708-0.26-1.48-0.967s-0.41-0.337-1.776-0.494c-1.366-0.156-2.28-1.07-2.28-1.755c0-0.686-1.657-1.372-2.627-2.685     c-0.971-1.314,0.487-0.788,0.171-0.946c-0.315-0.157,0.8-1.625,1.6-1.396c0.8,0.229,0.298,2.079,1.006,1.812     c0.708-0.269,1.065-1.599,1.046-0.908s-0.322,1.067,0.355,0.711c0,0,0.392-0.643,0.335-0.071     c-0.058,0.57,1.142,2.709,2.685,3.011c1.542,0.302,5.084,0.93,5.426,2.415c0,0,0.54,2.443,0.171,2.628     c-0.368,0.185,0.914,0.228,0.628,0.8c-0.286,0.571,1.491,1.871,1.491,1.871s-1.182,1.322,0.178,1.953     c0,0-0.069-1.083,0.502-0.912c0.571,0.172,2.399-0.113,2.628-0.056c0.229,0.056,0.856,0.285,0.856,0.285     s-3.586,0.513-3.335,0.742c0.25,0.229,0.993,0.571,0.993,1.143s-0.561,0.118,0.605,0.573s1.451,1.141,1.623,0.854     c0.171-0.285,0.492-1.445,0.332-1.979s0.183-1.219,0.925-1.048c0.743,0.172,1.287,0.844,1.443,0.279     c0.157-0.564-3.919-1.702-3.138-2.19c0.781-0.487,1.184,0.198,1.125-0.059c-0.058-0.258-2.057-2.6-1.257-2.485     c0.799,0.114,0.856,0.971,1.428,1.085s-0.342-0.285,0.628-1.085c0.971-0.8,3.028-0.686,4.056-0.343     c1.028,0.343,4.456-0.629,5.141-0.172c0.686,0.458,0.514,0.687,0.057,0.687s-4.744,0.104-5.256,0.537     c-0.513,0.434-0.227,2.204,0.058,1.861c0.286-0.343,1.085-1.428,1.371-0.914c0.286,0.515-0.311,0.486-0.127,1.243     s-0.178,0.828-0.178,0.828s-1.776,0.237-1.302,0.415c0.474,0.177,1.835,0.084,1.835,0.427s-0.77,0.579-0.77,0.579     s1.284,1.077,2.484,1.135c0,0-0.949,0.534-0.589,0.581c0.36,0.047,2.047-0.193,2.546,0.355s2.614,1.059,2.842-0.71     c0,0,2.284,0.573,2.798,1.087c0.514,0.515,2.056,0.515,2.856-0.228c0.8-0.743,1.883-0.253,2.398-0.327     c0.515-0.073,1.365-0.892,1.6-0.416s-0.193,0.253-0.571,1.371c-0.378,1.117,0.799,2.113,0.342,2.685s-2.056,5.712-3.484,5.77     c-1.428,0.057-3.458-0.588-3.985-0.294s-2.881-0.593-4.018,0.079c-1.136,0.671-6.505-1.385-7.648-0.528     c0,0-1.511-1.042-3.897-0.892c0,0-5.871-2.192-5.699-0.079c0.171,2.113,0.8,1.714,0,2.57s-2.285,0.971-3.941-0.114     c-1.657-1.085-2.342-0.571-3.199-1.314c-0.856-0.742-2.342-2.398-6.226-2.228c0,0-4.85-1.918-4.024-2.387     c0.825-0.469,3.167-4.011,1.682-4.811c-1.485-0.799-2.685-0.514-4.513-0.399c-1.828,0.114-14.912,2.482-17.194,2.97     c-2.252,0.48-5.712,1.2-6.626,0.344c-0.914-0.857-2.113-1.714-2.513-0.458c-0.4,1.257-0.803,2.481-3.628,4.012     c-2.826,1.529-2.712,2.786-2.655,3.814s0.971,1.828,0.514,2.285s-2.523,2.581-3.433,2.719c-0.897,0.135-2.752-1.873-3.181,2.829     c-0.005,0.062-0.011,0.125-0.016,0.188c0,0-3.652,1.461-3.823,3.117c-0.172,1.656-0.515,1.371-1.2,3.256     c-0.686,1.885-0.4,3.085-0.171,5.369c0.229,2.285,0.754,7.611-0.489,8.499c-1.243,0.889-0.425,6.581,3.231,9.209     c0,0,0.628-0.286,0.971,1.199s4.341,4.398,5.369,5.198c1.028,0.8,4.913,3.941,7.711,2.971c0,0,5.998,0.057,8.797,0.285     s6.854-4.341,11.367-2.513c0,0,0.914-0.344,1.599,1.77c0.686,2.114,3.951,1.705,5.003,1.768c0,0,5.279,1.945,1.28,8.63     c0,0,3.199,6.739,7.712,11.252c0,0,1.771,4.913,1.371,7.255s-1.771,2.398-2.742,3.998c-0.971,1.6-2.285,6.854-1.828,7.94     c0.457,1.085,5.483,6.797,5.369,7.882c-0.114,1.086-0.285,7.998,2.742,9.939c0,0,2.799,2.8,3.142,5.599     c0,0,0.914,0.057,0.628,1.771c-0.285,1.714-0.799,4.513,1.6,4.97c2.399,0.457,3.085-0.686,4.741-0.857     c1.657-0.171,4.742-0.171,5.427-1.085c0,0,0.628-0.457,1.828,0.114s6.169-3.998,7.483-5.255c1.313-1.257,0.914-3.143,1.771-3.37     c0.856-0.229,2.105-3.052,3.17-5.518c0.257-0.595,2.313-1.565,3.513-2.365c1.199-0.8,2.935-3.571,0.04-7.755     c0,0,3.73-4.298,6.358-5.841c2.627-1.542,2.97,0.173,3.198-2.112s1.542-5.827,0.971-6.798c-0.571-0.972-0.057-1.371-0.457-2.342     c-0.4-0.972-1.085-0.229-1.428-1.371c-0.342-1.143,0.139-3.511-0.473-4.44c-0.612-0.929-2.326-0.814-1.698-1.9     c0.629-1.085,2.457-1.542,3.085-5.313c0,0,2.399-4.227,3.542-5.197c1.143-0.972,9.368-7.141,10.567-9.254     c1.2-2.113,7.24-12.603,5.463-12.426c-1.777,0.178-8.547,4.029-12.203,2.201c-3.656-1.828-1.771-2.171-2.229-3.256     c-0.457-1.085-4.33-5.362-5.106-5.337c-0.776,0.024-1.576,0.596-1.919-2.032s-3.22-3.979-3.409-4.36     c-0.189-0.381,0.839-2.322-0.589-4.322c-1.428-1.999-2.17-0.285-2.57-3.027c-0.4-2.741-2.057-4.684-3.028-6.055     c-0.971-1.371-3.147-5.569-2.516-6.126c0.631-0.558,2.573,3.384,3.316,3.556c0,0,0.4-2.628,1.028-2.685s-0.229,1.37-0.057,2.171     c0.171,0.8,1.199,0.342,1.713,1.599s2.742,3.771,3.999,5.427s1.771,5.198,2.57,6.397c0.8,1.199,2.114,1.543,3.313,4.284     c0,0,2.571,1.542,2.514,3.313c-0.057,1.771,0.286,6.512,2.228,6.797c1.942,0.286,2.113-1.656,4.513-1.485     c2.399,0.172,4.456-1.313,7.826-2.741s3.142-3.599,4.513-3.599s2.914,1.027,3.084-0.229c0.171-1.257,1.713-0.743,2.228-1.885     c0.514-1.144,1.828-0.571,2.171-1.144c0.342-0.57,0.25-2.949,1.039-2.988c0.789-0.038,4.845-3.401-0.296-5.918     c0,0-1.828,0.682-2.342-0.689c-0.514-1.37-0.057-3.256-0.914-3.313c-0.857-0.057-2.627,3.085-4.627,3.199     s-2.228,1.656-3.313,0.457c-1.085-1.2-0.172-1.844-0.291-2.613c-0.119-0.77-1.766-0.585-2.108-1.499s-1.485-1.6-2.285-2.399     c-0.8-0.8-2.517-3.246-1.173-3.736s3.424-0.067,3.612,1.006c0.188,1.074,2.016,2.273,3.043,2.788     c1.028,0.514,4.728,3.788,6.962,1.237c0,0,1.663,0.075,2.006,1.332s5.945,1.588,6.343,1.509c0,0,1.769,1.291,2.054,0.434     c0.285-0.856,6.257-0.876,7.241-0.552c0.984,0.323,1.295,0.469,1.54,1.539c0.244,1.069-0.156,1.526,1.501,1.755     c1.656,0.229,2.799,1.656,3.77,1.656c0,0-1.371,0.171-1.428,0.571c-0.057,0.4,4.284,4.227,4.97,4.227s1.134-0.634,1.134-0.634     l-0.355,1.894c0,0,1.247,3.411,1.776,5.445c0.529,2.035,1.453,2.224,1.615,3.006c0.162,0.782,2.374,5.011,2.57,5.826     s2.285,6.397,3.713,5.027c1.428-1.371,1.498-1.505,1.634-1.667c0.137-0.161,1.895,0.474,2.013,0.829     c0.119,0.355-0.277,0.323-0.563,1.123c0,0,0.229,4.398,1.942,3.941c1.714-0.457,2.742-5.426-1.313-6.454     c0,0-1.614,0.559-1.664-0.149c-0.049-0.708,1.244,0.06,1.421-0.71c0.178-0.77-0.328-3.368,0.129-3.597     c0.457-0.229,0.172-4.284,0.628-5.598c0.457-1.314,3.839-0.442,3.861-1.992c0.023-1.55,0.308-2.007,1.964-2.692     c1.657-0.685,3.085-3.256,3.713-3.198c0.628,0.058,1.942-3.37,3.142-2.913c1.2,0.457,6.341-0.399,7.769,0.229     c1.428,0.628,1.885,2.57,3.027,2.855c1.143,0.286-0.399,1.771,0.286,2s1.999-2.399,1.656,0.343     c-0.343,2.741-1.771,3.771-0.114,3.884c1.656,0.114,4.512-0.628,5.026,0.4c0.514,1.027,1.372,4.684,1.828,6.968     c0.457,2.285,0.058,2.628-0.114,4.113c-0.171,1.485-0.515,2.685,0.057,3.37c0.571,0.686,3.599,2.171,3.542,3.142     c-0.057,0.971,0.457,3.027,0.914,4.056c0.457,1.028,5.338,5.039,5.712,4.056s-2.399-7.883-4.912-9.939     c-2.513-2.057-2.627-3.084-2.627-4.684s-0.457-6.283,1.028-6.512c1.485-0.229,7.483,3.198,7.483,5.598s0.4,2.171,0,2.971     c0,0,1.085,1.085,1.828-0.457c0.743-1.542,8.335-3.636,7.167-6.959s-7.167-8.692-7.109-10.806     c0.058-2.114,3.713-5.084,5.141-5.027c1.428,0.058,2.239-0.642,2.205,0.622s1.184,2.189,1.184,2.189s-3.96,0.788-3.217,1.759     s3.028,3.484,4.285-1.143c0,0-1.143-1.542-0.743-2.399c0.4-0.856,7.597-2.284,10.053-3.484     c2.456-1.199,11.238-10.753,10.76-12.488c0,0-3.92,1.038-2.605-0.591c1.315-1.631,0.473-4.878-1.09-7.523     c-1.563-2.646,6.013-3.849,4.57-4.812c-1.443-0.962-12.026-0.962-8.659-2.887c3.367-1.924,8.659-5.171,7.938-2.886     s-4.45,3.007-1.083,2.767c3.368-0.241,6.984-2.013,6.258-0.285s-2.141,1.921-0.652,2.486c1.49,0.564,3.198-1.185,3.02,1.184     c-0.178,2.367-1.219,2.753-1.29,3.951c-0.072,1.197,0.993,1.316,3.244,0.665c2.25-0.651,4.092-2.71,0.965-7.4     c0,0-1.804-0.601,1.083-2.767c2.887-2.164,3.009-5.763,5.354-4.926c2.344,0.838,14.974-5.238,15.394-12.784     c0,0-0.061-3.097,1.623-2.495c1.684,0.602,1.082,3.969,0.962,6.014c-0.121,2.045-0.601,4.45,0.481,3.367     c1.083-1.082,3.729,2.045,2.526-0.36s-2.646-5.292-0.962-5.292c1.684,0,3.022,2.268,2.593,1.134     c-0.429-1.134-1.284-8.559-2.901-9.056s-2.699-0.857-5.706-0.256c-3.007,0.601-9.224-0.036-7.438-1.4     c1.786-1.366,8.105-8.405,20.22-7.893s15.558,1.513,15.039,0.592c-0.52-0.92,0.432-4.229,2.783-4.439     c2.351-0.21,4.795-0.946,5.21,0.475c0.415,1.42,4.115-0.323,6.28-1.767s1.555,0.64-0.004,1.944     c-1.559,1.303-8.553,4.734-11.25,6.747s-1.657,6.865-1.362,8.878c0.295,2.012-2.149,2.701-2.043,3.57     c0.106,0.87,7.804-3.94,11.171-8.511c3.367-4.571,2.045-3.849,1.563-5.533c-0.481-1.684,1.443-3.487,2.887-3.487     c1.443,0,11.305,0,15.635-2.165c4.33-2.165,11.964-0.598,11.995-2.163s-3.216-2.527-2.976-3.61L639.881,44.734z M379.794,85.262     c-2.278,0-4.422,1.206-4.422,1.206c-11.257-1.206-1.675-8.979,2.479-9.448s1.407,2.345,2.278,3.887s3.819-1.81,3.819-1.81     c0.201-1.005-1.273-0.134-1.541-1.34s2.479-1.475,4.154-1.341s0.268,1.407-0.469,2.145s-1.139,0.268,0.536,1.541     s6.902,3.283,6.902,5.763S382.072,85.262,379.794,85.262z M414.103,87.004c-1.675,0-0.603,0.603,0.603,1.943     s1.407,1.943,1.273,4.623s-2.211,2.011-5.696,1.273s-3.686-3.283-3.083-5.695s1.005-0.737,2.01-1.407s-3.752-2.479-4.355-5.026     s-0.134-0.804-1.139-1.943s1.273,0,4.221-3.015s4.825-1.475,4.825-1.475c3.686,2.747-1.742,3.082-1.876,3.753     s-1.005-0.47-2.077,1.005s2.68,1.005,2.948,2.01s1.675,0.536,1.407,1.273s0.536,1.876,1.273,0.871s1.407,0.402,2.949,1.341     S415.778,87.004,414.103,87.004z M458.606,83.766c-0.503,1.006-1.676,0.753-3.017,0.67     C455.589,84.436,459.109,82.76,458.606,83.766z M465.563,78.066c0,0-1.005,0.335-1.173-0.503     C464.389,77.563,465.814,76.223,465.563,78.066z M514.005,63.483c-1.09,0.587-0.838,0.922-1.425,1.341s-0.419,0.167-1.844,0.922     s-1.928,2.012-3.604,2.012s-2.85,0.42-2.934,0.084c0,0,6.956-2.18,7.543-3.521s3.436-5.027,3.52-3.938     S515.095,62.896,514.005,63.483z" fill="#B9C5D1"/>
</g>
</g>
<path d="M365.873,94.03c-0.359,0.168-1.146-0.172-0.847-0.595C365.282,93.074,366.198,93.659,365.873,94.03" fill="#B9C5D1"/>
<path d="M612.933,181.818c0.582,0.571,2.048,0.282,0.949,1.59C614.206,183.022,611.115,182.855,612.933,181.818" fill="#B9C5D1"/>
<path d="M490.528,155.252c-0.021-0.042,0.021-1.404-1.125-2.07C489.427,154.171,490.079,154.367,490.528,155.252" fill="#B9C5D1"/>
</g>
</g>
<!-- Kabul, Afghanistan -->
<circle id="1760-1-0" cx="443.0" cy="98.7" r="2" fill="red"/>
<!-- New Delhi, India -->
<circle id="1624-45-0" cx="458.5" cy="116.2" r="2" fill="red"/>
<!-- Mumbai, India -->
<circle id="1624-45-1" cx="450.0" cy="127.8" r="2" fill="red"/>
<!-- Chennai, India -->
<circle id="1624-45-2" cx="462.2" cy="139.2" r="2" fill="red"/>
<!-- Kolkata, India -->
<circle id="1624-45-3" cx="470.5" cy="121.5" r="2" fill="red"/>
<!-- London, UK -->
<circle id="2592-33-0" cx="364.5" cy="52.9" r="2" fill="red"/>
<!-- Paris, France -->
<circle id="2696-34-0" cx="324.1" cy="73.2" r="2" fill="red"/>
<!-- Helsinki, Finland -->
<circle id="2632-104-0" cx="319.9" cy="68.3" r="2" fill="red"/>
<!-- Berlin, Germany -->
<circle id="2528-36-0" cx="343.9" cy="66.7" r="2" fill="red"/>
</svg>
