<?xml version="1.0" encoding="UTF-8"?>
<!DOCTYPE svg PUBLIC "-//W3C//DTD SVG 1.1 Tiny//EN" "http://www.w3.org/Graphics/SVG/1.1/DTD/svg11-tiny.dtd">
<svg xmlns="http://www.w3.org/2000/svg" xmlns:xlink="http://www.w3.org/1999/xlink" baseProfile="tiny" height="26px" version="1.1" viewBox="0 0 24 26" width="24px" x="0px" y="0px">
<path d="M16.877,3.904c-6.466-0.738-10.905,6.168-8.039,11.672l-7.117,7.115l0.319,0.644c0.778,1.565,1.923,2.136,2.345,2.345  L5.029,26l7.076-7.076c0.902,0.494,1.901,0.814,2.955,0.935C19.787,20.397,24,16.703,24,11.864C24,7.343,20.447,4.31,16.877,3.904z"/>
<path d="M9.088,16.741c0.434,0.213,0.821,0.491,1.111,0.782c0.145,0.145,0.286,0.313,0.419,0.5l-6.436,6.369  c-0.172-0.124-0.327-0.256-0.461-0.391c-0.289-0.29-0.568-0.679-0.783-1.111L9.088,16.741z" fill="#EB8C32"/>
<path d="M22.403,9.043c-1.208-2.742-4.095-4.503-7.229-4.146c-5.106,0.58-7.72,6.121-5.358,10.389L22.403,9.043z" fill="#E1E1E1"/>
<path d="M22.251,8.742l-1.795,0.896c0.256,0.514,0.434,1.073,0.502,1.675c0.314,2.757-1.664,5.246-4.421,5.56  c-2.153,0.245-4.14-0.914-5.056-2.748l-1.795,0.897c1.285,2.566,4.062,4.188,7.078,3.843c3.858-0.438,6.629-3.922,6.189-7.78  C22.858,10.243,22.61,9.458,22.251,8.742" fill="#B4B4B4"/>
<path d="M15.286,5.899c-4.132,0.471-6.717,5.06-4.588,8.905l10.776-5.368C20.494,7.219,18.094,5.579,15.286,5.899z" fill="#968C82"/>
<path d="M12.221,16.597c1.259,1.001,2.832,1.452,4.429,1.27c1.598-0.182,3.029-0.975,4.031-2.232  c1.002-1.259,1.453-2.834,1.271-4.434c-0.081-0.711-0.289-1.385-0.6-2.007l-1.795,0.897c0.207,0.415,0.354,0.861,0.407,1.336  c0.018,0.154,0.026,0.31,0.026,0.463c0,0.906-0.304,1.779-0.876,2.499c-0.669,0.84-1.624,1.369-2.691,1.491  c-1.067,0.121-2.118-0.18-2.958-0.849c-0.467-0.37-0.825-0.835-1.084-1.353l-1.795,0.898C10.974,15.352,11.522,16.042,12.221,16.597  z" fill="#5F5A50"/>
<path d="M10.979,18.627L4.825,24.78C4.514,24.625,4.243,24.435,4,24.235l6.433-6.434  C10.633,18.045,10.824,18.316,10.979,18.627z" fill="#B44B00"/>
<path d="M20.619,9.983c-0.827-2.032-2.932-3.352-5.22-3.091c-2.755,0.314-4.735,2.803-4.422,5.558  c0.079,0.689,0.293,1.33,0.614,1.898L20.619,9.983z" fill="#FFFFFF"/>
<path d="M20.456,9.639l-8.975,4.486c0.916,1.834,2.902,2.993,5.056,2.748c2.757-0.313,4.735-2.803,4.421-5.56  C20.89,10.712,20.712,10.152,20.456,9.639" fill="#EBEBEB"/>
<rect fill="none" height="26" width="24"/>
</svg>
