<?xml version="1.0" encoding="utf-8"?>
<!-- Generator: Adobe Illustrator 14.0.0, SVG Export Plug-In  -->
<!DOCTYPE svg PUBLIC "-//W3C//DTD SVG 1.1//EN" "http://www.w3.org/Graphics/SVG/1.1/DTD/svg11.dtd" [
	<!ENTITY ns_flows "http://ns.adobe.com/Flows/1.0/">
]>
<svg version="1.1"
	 xmlns="http://www.w3.org/2000/svg" xmlns:xlink="http://www.w3.org/1999/xlink" xmlns:a="http://ns.adobe.com/AdobeSVGViewerExtensions/3.0/"
	 x="0px" y="0px" width="32px" height="32px" viewBox="0 0 32 32" enable-background="new 0 0 32 32" xml:space="preserve">
<defs>
</defs>
<path opacity="0.6" d="M23,5c0-1.104-0.896-2-2-2s-2,0.896-2,2h-6c0-1.104-0.897-2-2-2S9,3.896,9,5H4v24h24V5H23z"/>
<linearGradient id="SVGID_1_" gradientUnits="userSpaceOnUse" x1="15.9995" y1="11.3691" x2="15.9995" y2="28.0025">
	<stop  offset="0" style="stop-color:#F9F9F9"/>
	<stop  offset="1" style="stop-color:#B5B5B5"/>
</linearGradient>
<rect x="5" y="6" fill="url(#SVGID_1_)" width="22" height="22"/>
<linearGradient id="SVGID_2_" gradientUnits="userSpaceOnUse" x1="12.2095" y1="24.834" x2="12.2095" y2="14.7479">
	<stop  offset="0" style="stop-color:#303030"/>
	<stop  offset="1" style="stop-color:#000000"/>
</linearGradient>
<path fill="url(#SVGID_2_)" d="M15.228,23.906V25H9.191v-1.094h2.146v-7.629L9.191,16.77v-1.094l3.015-0.95h0.991v9.181H15.228z"/>
<linearGradient id="SVGID_3_" gradientUnits="userSpaceOnUse" x1="19.7939" y1="24.834" x2="19.7939" y2="14.7479">
	<stop  offset="0" style="stop-color:#303030"/>
	<stop  offset="1" style="stop-color:#000000"/>
</linearGradient>
<path fill="url(#SVGID_3_)" d="M22.843,23.811V25h-6.098v-0.745c0-0.711,0.123-1.343,0.369-1.894s0.55-1.021,0.909-1.412
	c0.359-0.389,0.816-0.816,1.367-1.281c0.66-0.557,1.078-0.986,1.251-1.292s0.26-0.608,0.26-0.909c0-0.529-0.14-0.926-0.421-1.193
	c-0.279-0.266-0.7-0.399-1.261-0.399c-0.593,0-1.31,0.153-2.153,0.458h-0.014v-1.217c0.885-0.277,1.746-0.417,2.584-0.417
	c1.035,0,1.82,0.227,2.358,0.681c0.538,0.453,0.807,1.121,0.807,2.006c0,0.496-0.12,0.985-0.362,1.467
	c-0.242,0.48-0.811,1.097-1.709,1.849c-0.502,0.424-0.893,0.776-1.176,1.06s-0.521,0.594-0.715,0.934
	c-0.193,0.339-0.299,0.711-0.317,1.117H22.843z"/>
<polygon fill="#FFFFFF" points="22,23 22,28 27,23 "/>
<linearGradient id="SVGID_4_" gradientUnits="userSpaceOnUse" x1="15.9995" y1="6" x2="15.9995" y2="12">
	<stop  offset="0" style="stop-color:#FF7042"/>
	<stop  offset="1" style="stop-color:#991B23"/>
</linearGradient>
<rect x="5" y="6" fill="url(#SVGID_4_)" width="22" height="6"/>
<linearGradient id="SVGID_5_" gradientUnits="userSpaceOnUse" x1="11" y1="7" x2="11" y2="11">
	<stop  offset="0" style="stop-color:#4A050A"/>
	<stop  offset="1" style="stop-color:#B00F25"/>
</linearGradient>
<circle fill="url(#SVGID_5_)" cx="11" cy="9" r="2"/>
<linearGradient id="SVGID_6_" gradientUnits="userSpaceOnUse" x1="21" y1="7" x2="21" y2="11">
	<stop  offset="0" style="stop-color:#4A050A"/>
	<stop  offset="1" style="stop-color:#B00F25"/>
</linearGradient>
<circle fill="url(#SVGID_6_)" cx="21" cy="9" r="2"/>
<rect x="5" y="6" opacity="0.4" fill="#FFFFFF" width="22" height="1"/>
<linearGradient id="SVGID_7_" gradientUnits="userSpaceOnUse" x1="11" y1="4" x2="11" y2="10">
	<stop  offset="0" style="stop-color:#FFFCFE"/>
	<stop  offset="1" style="stop-color:#8C8C8C"/>
</linearGradient>
<path fill="url(#SVGID_7_)" d="M12,9c0,0.55-0.45,1-1,1l0,0c-0.55,0-1-0.45-1-1V5c0-0.55,0.45-1,1-1l0,0c0.55,0,1,0.45,1,1V9z"/>
<linearGradient id="SVGID_8_" gradientUnits="userSpaceOnUse" x1="21" y1="4" x2="21" y2="10">
	<stop  offset="0" style="stop-color:#FFFCFE"/>
	<stop  offset="1" style="stop-color:#8C8C8C"/>
</linearGradient>
<path fill="url(#SVGID_8_)" d="M22,9c0,0.55-0.45,1-1,1l0,0c-0.55,0-1-0.45-1-1V5c0-0.55,0.45-1,1-1l0,0c0.55,0,1,0.45,1,1V9z"/>
<rect x="5" y="12" opacity="0.2" width="22" height="1"/>
<rect fill="none" width="32" height="32"/>
</svg>
