<?xml version="1.0" encoding="UTF-8"?>
<!DOCTYPE svg PUBLIC "-//W3C//DTD SVG 1.1 Tiny//EN" "http://www.w3.org/Graphics/SVG/1.1/DTD/svg11-tiny.dtd">
<svg baseProfile="tiny" version="1.1" xmlns="http://www.w3.org/2000/svg" xmlns:xlink="http://www.w3.org/1999/xlink" width="100%" height="100%" viewBox="0 0 88 88">
<g>
<rect fill="none" width="88" height="88"/>
<g>
<linearGradient id="XMLID_8_" gradientUnits="userSpaceOnUse" x1="20.7798" y1="83.8779" x2="82.7471" y2="31.8811">
<stop offset="0" style="stop-color:#1A1A1A"/>
<stop offset="0.3258" style="stop-color:#E5E6E7"/>
<stop offset="0.4551" style="stop-color:#FFFFFF"/>
<stop offset="0.5562" style="stop-color:#FFFFFF"/>
<stop offset="0.6629" style="stop-color:#E8E9EA"/>
<stop offset="1" style="stop-color:#1A1A1A"/>
</linearGradient>
<path fill="url(#XMLID_8_)" d="M43.356,77.98c0,0,16.861,0.074,18.216-0.063c1.359-0.14,6.719,0,8.867-6.67l-0.313,0.908    c0,0,12.164-35.311,12.58-36.809c0.709-1.955-0.092-3.162-0.092-3.162l-4.02-5.251h-0.107    c0.471,0.479-73.083,38.623-73.083,38.621c0.556,0.499,3.428,3.183,3.748,3.421c0.35,0.258,1.191,0.629,2.525,0.527    c0.529-0.1,9.156-0.69,9.156-0.69v0.001L43.356,77.98"/>
<path fill="#FFFFFF" d="M74.703,26.095c3.533-0.777,5.615,1.789,4.686,4.646c-1.412,3.8-12.502,35.459-13.168,37.29    c-1.318,3.997-5.867,6.015-9.098,6.015c-2.607,0.193-14.13,0.198-14.13,0.198l-23.076-9.576L7.38,66.151    c-2.255,0.155-3.104-1.656-2.171-3.497c0.36-0.656-0.704,0.029,16.411-35.028c0,0,1.354-3.063,4.438-4.167    c1.512-0.555,12.984-3.542,12.984-3.542l21.5,8.5L74.703,26.095z"/>
<linearGradient id="XMLID_9_" gradientUnits="userSpaceOnUse" x1="38.7715" y1="57.9189" x2="80.9466" y2="42.5685">
<stop offset="0" style="stop-color:#00D9FF"/>
<stop offset="0.3" style="stop-color:#00A6FF"/>
<stop offset="1" style="stop-color:#002D5F"/>
</linearGradient>
<path fill="url(#XMLID_9_)" d="M43.61,71.214l13.577-0.234c0,0,5.016-0.125,6.906-4.969c1.479-3.792,12.08-34.523,12.08-34.523    s1.281-3.698-3.266-3.41l-13.564,2.246L43.61,71.214z"/>
<linearGradient id="XMLID_10_" gradientUnits="userSpaceOnUse" x1="18.8643" y1="50.3418" x2="61.5466" y2="42.8157">
<stop offset="0" style="stop-color:#00D9FF"/>
<stop offset="0.3" style="stop-color:#00A6FF"/>
<stop offset="1" style="stop-color:#002D5F"/>
</linearGradient>
<polyline fill="url(#XMLID_10_)" points="52.359,48.474 59.344,30.323 38.187,21.698 20.877,61.76 43.61,71.214 52.359,48.474       "/>
<linearGradient id="XMLID_11_" gradientUnits="userSpaceOnUse" x1="7.0879" y1="41.7363" x2="38.187" y2="41.7363">
<stop offset="0" style="stop-color:#00D9FF"/>
<stop offset="0.3" style="stop-color:#00A6FF"/>
<stop offset="1" style="stop-color:#002D5F"/>
</linearGradient>
<path fill="url(#XMLID_11_)" d="M20.87,61.774l17.317-40.076l-11.636,3.175c0,0-2.5,0.625-3.75,3.125L7.088,61.204L20.87,61.774z"/>
</g>
<g>
<linearGradient id="XMLID_12_" gradientUnits="userSpaceOnUse" x1="13.1787" y1="39.2139" x2="28.8011" y2="52.3226">
<stop offset="0" style="stop-color:#F7F619"/>
<stop offset="0.2022" style="stop-color:#F7F318"/>
<stop offset="1" style="stop-color:#E78D13"/>
</linearGradient>
<path fill="url(#XMLID_12_)" d="M35.143,28.742L20.87,61.774L8.391,63.37c-2.531,0-1.303-2.166-1.303-2.166l15.713-33.206    c0.651-1.303,1.642-2.097,2.441-2.558c0,0,2.512-0.957,4.426,1.645C31.583,29.688,34.391,28.755,35.143,28.742z"/>
<linearGradient id="XMLID_13_" gradientUnits="userSpaceOnUse" x1="44.981" y1="57.0293" x2="54.9373" y2="65.3837">
<stop offset="0" style="stop-color:#F7F619"/>
<stop offset="0.2022" style="stop-color:#F7F318"/>
<stop offset="1" style="stop-color:#E78D13"/>
</linearGradient>
<polygon fill="url(#XMLID_13_)" points="52.531,48.03 51.625,58.667 54.438,60.979 54.438,65.979 43.61,71.214   "/>
<linearGradient id="XMLID_14_" gradientUnits="userSpaceOnUse" x1="25.8135" y1="39.8608" x2="51.6959" y2="61.5788">
<stop offset="0" style="stop-color:#F7F619"/>
<stop offset="0.2022" style="stop-color:#F7F318"/>
<stop offset="1" style="stop-color:#E78D13"/>
</linearGradient>
<path fill="url(#XMLID_14_)" d="M52.527,48.036L43.61,71.214L20.877,61.76l14.266-33.018c0,0,0.942-0.125,2.714,0.995    c1.772,1.119,3.268,1.994,4.33,2.117l5.938,0.688L52.527,48.036z"/>
<polygon fill="#FFFFFF" points="29.668,27.085 12.951,62.787 14.693,62.564 30.594,28.034   "/>
<polygon fill="#FFFFFF" points="35.482,67.834 37.857,29.737 36.208,28.927 33.112,66.848   "/>
<polygon fill="#FFFFFF" points="41.455,31.676 43.195,31.972 43.437,33.063 48.85,57.595 51.818,67.246 50.41,67.927     47.842,60.217   "/>
<polygon fill="#FFFFFF" points="33.911,31.593 17.631,38.923 16.987,40.286 33.27,33.077 42.875,34.104 42.875,32.792   "/>
<polygon fill="#FFFFFF" points="12.897,48.928 30.392,39.737 44.312,40.479 44.312,38.854 31.011,38.306 13.686,47.262   "/>
<polygon fill="#FFFFFF" points="9.62,55.853 24.552,53.252 46.967,62.491 49.313,62.491 49.313,61.292 47.428,61.292     25.126,51.926 10.302,54.412   "/>
<path fill="#FFFFFF" d="M43.553,58.401c0.163,2.788-2.27,5.057-6.168,5.057c-5.045,0-10.54-3.638-10.743-8.1    c-0.201-4.43,4.993-6.099,10.081-4.295C40.664,52.461,43.391,55.626,43.553,58.401z"/>
<path fill="#6DB23D" d="M41.043,57.783c0.12,2.102-1.788,3.708-4.669,3.558c-3.463-0.179-6.945-2.74-7.086-5.674    c-0.14-2.92,3.128-4.242,6.614-3.18C38.805,53.375,40.923,55.686,41.043,57.783z"/>
</g>
<g>
<path fill="#D6F5FF" d="M65.064,37.073c-3.336,0.318-6.732,2.387-7.561,4.673c-0.857,2.364,1.334,4.029,4.875,3.658    c3.512-0.368,6.893-2.594,7.543-4.897C70.553,38.274,68.373,36.759,65.064,37.073z M62.883,43.85    c-2.252,0.23-3.656-0.823-3.133-2.325c0.51-1.472,2.693-2.82,4.857-3.029c2.154-0.207,3.555,0.783,3.125,2.229    C67.291,42.205,65.115,43.618,62.883,43.85z"/>
<polygon fill="#D6F5FF" points="55.672,39.731 53.125,39.042 55.24,40.848 57.67,41.768 59.5,39.398   "/>
<polygon fill="#D6F5FF" points="72.654,41.58 69.65,40.492 67.984,42.88 72.369,42.479   "/>
<polygon fill="#D6F5FF" points="52.934,55.883 62.479,45.274 59.215,44.927   "/>
<polygon fill="#D6F5FF" points="72.754,28.864 64.975,37.192 68.076,37.521   "/>
</g>
</g>
</svg>
