<?xml version="1.0" encoding="utf-8"?>
<!-- Generator: Adobe Illustrator 13.0.2, SVG Export Plug-In . SVG Version: 6.00 Build 14948)  -->
<!DOCTYPE svg PUBLIC "-//W3C//DTD SVG 1.1//EN" "http://www.w3.org/Graphics/SVG/1.1/DTD/svg11.dtd">
<svg version="1.1" id="Layer_1" xmlns="http://www.w3.org/2000/svg" xmlns:xlink="http://www.w3.org/1999/xlink" x="0px" y="0px"
	 width="177.5px" height="177.5px" viewBox="0 0 177.5 177.5" enable-background="new 0 0 177.5 177.5" xml:space="preserve">
<g>
	<g>
		<linearGradient id="SVGID_1_" gradientUnits="userSpaceOnUse" x1="37.645" y1="13.752" x2="137.7448" y2="160.6519">
			<stop  offset="0" style="stop-color:#B2B2B2"/>
			<stop  offset="1" style="stop-color:#4D4D4D"/>
		</linearGradient>
		<path fill="url(#SVGID_1_)" d="M88.752,1C137.218,1,176.5,40.287,176.5,88.75c0,48.467-39.281,87.75-87.748,87.75
			C40.285,176.5,1,137.217,1,88.75C1,40.287,40.285,1,88.752,1z"/>
		<linearGradient id="SVGID_2_" gradientUnits="userSpaceOnUse" x1="41.5273" y1="24.771" x2="122.1276" y2="133.9712">
			<stop  offset="0" style="stop-color:#FFFFFF"/>
			<stop  offset="1" style="stop-color:#E6E6E6"/>
		</linearGradient>
		<path fill="url(#SVGID_2_)" d="M88.752,4.352c46.615,0,84.396,37.789,84.396,84.398c0,46.613-37.781,84.398-84.396,84.398
			c-46.614,0-84.4-37.785-84.4-84.398C4.352,42.141,42.138,4.352,88.752,4.352z"/>
		<ellipse fill="#333333" cx="88.75" cy="167.445" rx="3.037" ry="3.105"/>
		<ellipse fill="#333333" cx="88.75" cy="10.164" rx="3.036" ry="3.102"/>
		<ellipse fill="#333333" cx="10.253" cy="88.869" rx="3.036" ry="3.104"/>
		<path fill="#333333" d="M169.939,88.867c0,1.717-1.363,3.105-3.036,3.105c-1.676,0-3.037-1.389-3.037-3.105
			c0-1.715,1.361-3.105,3.037-3.105C168.576,85.762,169.939,87.152,169.939,88.867z"/>
	</g>
	<rect fill="none" width="177.5" height="177.5"/>
</g>
</svg>
