<?xml version="1.0" encoding="utf-8"?>
<!-- Generator: Adobe Illustrator 13.0.2, SVG Export Plug-In . SVG Version: 6.00 Build 14948)  -->
<!DOCTYPE svg PUBLIC "-//W3C//DTD SVG 1.1//EN" "http://www.w3.org/Graphics/SVG/1.1/DTD/svg11.dtd">
<svg version="1.1" id="Layer_1" xmlns="http://www.w3.org/2000/svg" xmlns:xlink="http://www.w3.org/1999/xlink" x="0px" y="0px"
	 width="177.5px" height="177.5px" viewBox="0 0 177.5 177.5" enable-background="new 0 0 177.5 177.5" xml:space="preserve">
<g>
	<g>
		<g>
			<path fill="#E6E6E6" d="M12.75,169.25c-2.486,0-4.5-2.014-4.5-4.5l0,0v-152c0-2.486,2.014-4.5,4.5-4.5l0,0h152
				c2.486,0,4.5,2.014,4.5,4.5l0,0v152c0,2.486-2.014,4.5-4.5,4.5l0,0H12.75L12.75,169.25z"/>
		</g>
		<g>
			<linearGradient id="SVGID_1_" gradientUnits="userSpaceOnUse" x1="88.0044" y1="9.2529" x2="89.5043" y2="169.2529">
				<stop  offset="0" style="stop-color:#B2B2B2"/>
				<stop  offset="0.0263" style="stop-color:#909090"/>
				<stop  offset="0.0559" style="stop-color:#707070"/>
				<stop  offset="0.0895" style="stop-color:#555555"/>
				<stop  offset="0.1274" style="stop-color:#3F3F3F"/>
				<stop  offset="0.1717" style="stop-color:#2E2E2E"/>
				<stop  offset="0.2264" style="stop-color:#222222"/>
				<stop  offset="0.3032" style="stop-color:#1B1B1B"/>
				<stop  offset="0.5165" style="stop-color:#1A1A1A"/>
				<stop  offset="1" style="stop-color:#000000"/>
			</linearGradient>
			<path fill="url(#SVGID_1_)" d="M168.75,164.75c0,2.209-1.791,4-4,4h-152c-2.209,0-4-1.791-4-4v-152c0-2.209,1.791-4,4-4h152
				c2.209,0,4,1.791,4,4V164.75z"/>
			<g>
				<g>
					<path fill="#F2F2F2" d="M122.677,30.61v-0.984l0.535-0.087c0.449-0.086,0.57-0.587,0.57-1.381v-6.062h-1.623v-1.158h0.379
						c0.881,0,1.485-0.294,1.9-1.208h1.278v8.428c0,0.794,0.138,1.295,0.587,1.381l0.553,0.087v0.984H122.677z"/>
				</g>
				<g>
					<path fill="#F2F2F2" d="M147.585,56.113v-0.761c0-2.228,1.02-3.212,2.037-4.041c1.469-1.157,2.16-2.038,2.16-3.333
						c0-0.864-0.415-1.744-1.383-1.744c-1.242,0-1.657,0.897-1.657,1.313c0,0.276,0.155,0.466,0.466,0.519
						c0.432,0.051,0.76,0.345,0.76,0.932c0,0.57-0.483,1.123-1.157,1.123c-0.915,0-1.278-0.915-1.278-2.124
						c0-1.813,1.572-2.884,3.266-2.884c1.519,0,3.212,0.984,3.212,2.953c0,2.417-1.435,3.367-2.47,3.833
						c-0.846,0.415-2.056,1.02-2.59,2.159l0.033,0.052c0.501-0.415,0.984-0.587,1.556-0.587c0.38,0,0.638,0.069,0.914,0.189
						c0.362,0.138,0.673,0.277,1.071,0.277c0.535,0,0.586-0.691,0.586-1.556h1.02v1.002c0,1.866-0.708,2.78-2.105,2.78
						c-0.571,0-1.02-0.207-1.33-0.38c-0.484-0.275-0.951-0.466-1.4-0.466c-0.344,0-0.621,0.242-0.674,0.743H147.585z"/>
				</g>
				<g>
					<linearGradient id="SVGID_2_" gradientUnits="userSpaceOnUse" x1="89.3994" y1="156.1025" x2="88.8994" y2="167.2686">
						<stop  offset="0" style="stop-color:#FFFFFF"/>
						<stop  offset="0.3726" style="stop-color:#FDFDFD"/>
						<stop  offset="0.5069" style="stop-color:#F6F6F6"/>
						<stop  offset="0.6026" style="stop-color:#EBEBEB"/>
						<stop  offset="0.68" style="stop-color:#DADADA"/>
						<stop  offset="0.7463" style="stop-color:#C4C4C4"/>
						<stop  offset="0.805" style="stop-color:#A8A8A8"/>
						<stop  offset="0.8581" style="stop-color:#888888"/>
						<stop  offset="0.9069" style="stop-color:#626262"/>
						<stop  offset="0.9523" style="stop-color:#373737"/>
						<stop  offset="0.9926" style="stop-color:#090909"/>
						<stop  offset="1" style="stop-color:#000000"/>
					</linearGradient>
					<path fill="url(#SVGID_2_)" d="M85.633,162.354c0-3.593,1.433-5.992,4.042-5.992c1.364,0,2.626,0.552,2.626,2.21
						c0,1.036-0.518,1.813-1.297,1.83c-0.689,0.018-1.173-0.432-1.173-1.001c0-0.57,0.413-0.847,0.776-0.898
						c0.259-0.034,0.467-0.207,0.467-0.414c0-0.225-0.396-0.622-1.192-0.622c-1.485,0-2.176,2.262-2.02,4.248
						c0.363-0.553,0.966-0.932,1.848-0.932c1.364,0,2.833,0.967,2.833,3.143c0,2.729-1.623,3.54-3.438,3.54
						C86.738,167.466,85.633,165.325,85.633,162.354z M88,164.099c0,1.348,0.466,1.969,1.243,1.969s1.243-0.621,1.243-1.969
						c0-1.347-0.467-1.969-1.243-1.969S88,162.752,88,164.099z"/>
				</g>
				<g>
					<path fill="#F2F2F2" d="M160.201,88.054c0.622-0.087,1.348-0.656,1.348-1.969c0-1.209-0.432-2.038-1.605-2.038
						c-1.191,0-1.57,0.897-1.57,1.209c0,0.311,0.205,0.466,0.446,0.5c0.329,0.035,0.743,0.363,0.743,0.95s-0.482,1.123-1.173,1.123
						c-0.882,0-1.227-0.794-1.227-2.003c0-1.813,1.743-2.884,3.229-2.884c1.658,0,3.42,0.862,3.42,2.9
						c0,1.382-0.777,2.142-1.33,2.436v0.052c0.76,0.259,1.468,1.329,1.468,2.573c0,2.038-1.468,3.143-3.161,3.143
						c-1.761,0-3.625-0.604-3.625-2.78c0-1.07,0.362-1.796,1.26-1.796c0.759,0,1.105,0.467,1.105,0.95
						c0,0.448-0.276,0.897-0.517,1.036c-0.192,0.121-0.313,0.294-0.313,0.449c0,0.311,0.518,0.846,1.382,0.846
						c0.674,0,1.554-0.38,1.554-1.744c0-1.71-0.725-1.9-1.434-1.9V88.054z"/>
				</g>
				<g>
					<path fill="#F2F2F2" d="M147.158,125.186l4.025-6.459h1.777v6.459h1.484v1.295h-1.484v0.674c0,0.795,0.138,1.295,0.588,1.382
						l0.534,0.086v0.984h-4.109v-0.984l0.483-0.086c0.431-0.087,0.57-0.587,0.57-1.382v-0.674h-3.869V125.186z M151.027,125.186
						v-3.834l-2.384,3.834H151.027z"/>
				</g>
				<g>
					<linearGradient id="SVGID_3_" gradientUnits="userSpaceOnUse" x1="124.5562" y1="144.8125" x2="124.5562" y2="158.8125">
						<stop  offset="0" style="stop-color:#FFFFFF"/>
						<stop  offset="1" style="stop-color:#CCCCCC"/>
					</linearGradient>
					<path fill="url(#SVGID_3_)" d="M121.576,151.933l0.346-5.389h5.544l-0.104,1.709h-4.334l-0.138,2.142
						c0.673-0.413,1.347-0.57,2.054-0.57c1.676,0,3.006,1.089,3.006,3.697c0,2.745-1.605,4.006-3.281,4.006
						c-1.641,0-3.505-0.604-3.505-2.798c0-1.14,0.345-1.779,1.26-1.779c0.759,0,1.089,0.468,1.089,1.002
						c0,0.397-0.191,0.777-0.467,0.984c-0.155,0.122-0.26,0.312-0.26,0.501c0,0.19,0.484,0.795,1.209,0.795
						c1.416,0,1.623-1.364,1.623-2.659c0-0.847-0.225-2.384-1.484-2.384c-0.588,0-1.02,0.138-1.469,0.743H121.576z"/>
				</g>
				<g>
					<path fill="#F2F2F2" d="M82.384,21.03v-0.984l0.536-0.087c0.449-0.086,0.569-0.587,0.569-1.382v-6.062h-1.624v-1.157h0.381
						c0.88,0,1.485-0.294,1.9-1.209h1.277v8.428c0,0.795,0.14,1.296,0.588,1.382l0.552,0.087v0.984H82.384z"/>
					<path fill="#F2F2F2" d="M89.001,21.03V20.27c0-2.228,1.02-3.212,2.037-4.041c1.469-1.157,2.16-2.038,2.16-3.333
						c0-0.864-0.414-1.744-1.382-1.744c-1.243,0-1.658,0.897-1.658,1.313c0,0.276,0.155,0.466,0.467,0.519
						c0.431,0.051,0.759,0.345,0.759,0.932c0,0.57-0.483,1.123-1.156,1.123c-0.916,0-1.279-0.915-1.279-2.124
						c0-1.813,1.572-2.884,3.265-2.884c1.52,0,3.213,0.984,3.213,2.953c0,2.417-1.436,3.367-2.471,3.833
						c-0.846,0.415-2.056,1.02-2.59,2.159l0.033,0.052c0.501-0.415,0.984-0.587,1.556-0.587c0.38,0,0.639,0.069,0.914,0.189
						c0.363,0.138,0.674,0.277,1.071,0.277c0.535,0,0.587-0.691,0.587-1.556h1.02v1.002c0,1.866-0.709,2.78-2.106,2.78
						c-0.571,0-1.02-0.207-1.33-0.38c-0.484-0.275-0.951-0.466-1.4-0.466c-0.344,0-0.621,0.242-0.672,0.743H89.001z"/>
				</g>
				<g>
					<path fill="#F2F2F2" d="M46.167,30.611v-0.984l0.537-0.087c0.447-0.086,0.568-0.587,0.568-1.381v-6.062h-1.623v-1.158h0.38
						c0.881,0,1.485-0.294,1.901-1.208h1.277v8.428c0,0.794,0.138,1.295,0.587,1.381l0.552,0.087v0.984H46.167z"/>
					<path fill="#F2F2F2" d="M52.993,30.611v-0.984l0.536-0.087c0.449-0.086,0.569-0.587,0.569-1.381v-6.062h-1.623v-1.158h0.38
						c0.88,0,1.485-0.294,1.899-1.208h1.279v8.428c0,0.794,0.138,1.295,0.586,1.381l0.553,0.087v0.984H52.993z"/>
				</g>
				<g>
					<path fill="#F2F2F2" d="M19.489,56.114V55.13l0.536-0.087c0.449-0.086,0.569-0.587,0.569-1.382V47.6H18.97v-1.157h0.381
						c0.88,0,1.485-0.294,1.899-1.209h1.277v8.428c0,0.795,0.14,1.296,0.588,1.382l0.553,0.087v0.984H19.489z"/>
					<path fill="#F2F2F2" d="M25.848,50.622c0-3.368,1.52-5.509,3.679-5.509s3.679,2.106,3.679,5.509
						c0,3.384-1.157,5.595-3.679,5.595C26.988,56.217,25.848,54.006,25.848,50.622z M29.526,55.112c1.037,0,1.243-1.399,1.243-4.49
						c0-3.438-0.207-4.404-1.243-4.404s-1.245,0.967-1.245,4.404C28.282,53.713,28.49,55.112,29.526,55.112z"/>
				</g>
				<g>
					<path fill="#F2F2F2" d="M12.803,91.595c0-0.813,0.312-1.589,1.021-1.589c0.724,0,1.087,0.466,1.087,0.845
						c0,0.381-0.139,0.691-0.363,0.882c-0.189,0.155-0.241,0.345-0.241,0.553c0,0.224,0.483,0.674,1.365,0.674
						c1.485,0,1.761-2.28,1.606-4.197c-0.433,0.57-1.088,0.863-1.848,0.863c-1.279,0-2.832-0.984-2.832-3.143
						c0-2.729,1.57-3.54,3.229-3.54c2.4,0,3.903,2.141,3.903,5.611c0,3.714-1.642,5.492-3.991,5.492
						C14.29,94.046,12.803,93.114,12.803,91.595z M14.652,86.24c0,1.347,0.465,2.003,1.243,2.003c0.761,0,1.226-0.656,1.226-2.003
						s-0.465-2.193-1.226-2.193C15.084,84.047,14.652,84.894,14.652,86.24z"/>
				</g>
				<g>
					<path fill="#F2F2F2" d="M29.443,121.285c0,1.209-0.605,1.951-1.329,2.504c1.189,0.536,1.76,1.711,1.76,2.781
						c0,2.4-1.918,3.143-3.868,3.143c-1.487,0-3.644-0.432-3.644-2.884c0-1.156,0.726-2.228,1.589-2.746
						c-0.778-0.708-1.261-1.381-1.261-2.625c0-1.813,1.691-2.849,3.505-2.849C27.542,118.609,29.443,119.334,29.443,121.285z
						 M27.75,126.881c0-0.69-0.863-1.277-2.522-1.899c-0.847,0.207-1.277,0.933-1.277,1.571c0,1.227,0.966,1.762,2.106,1.762
						C26.972,128.314,27.75,127.797,27.75,126.881z M24.744,120.923c0,0.64,0.657,1.295,1.399,1.657
						c0.744-0.362,1.468-1.018,1.468-1.623c0-0.742-0.743-1.243-1.468-1.243C25.557,119.714,24.744,120.077,24.744,120.923z"/>
				</g>
				<g>
					<linearGradient id="SVGID_4_" gradientUnits="userSpaceOnUse" x1="51.4224" y1="144.8125" x2="51.4224" y2="158.8125">
						<stop  offset="0" style="stop-color:#FFFFFF"/>
						<stop  offset="1" style="stop-color:#CCCCCC"/>
					</linearGradient>
					<path fill="url(#SVGID_4_)" d="M52.209,157.459h-2.367v-0.449c0-3.229,1.812-6.528,2.884-8.204l-0.087-0.052
						c-0.309,0.035-0.812-0.155-1.172-0.293c-0.363-0.121-0.709-0.173-1.038-0.173c-0.708,0-1.33,0.847-1.33,2.66H47.58v-4.404
						h1.037c0.035,0.346,0.173,0.535,0.293,0.535c0.172,0,0.57-0.173,0.829-0.294c0.432-0.206,1.002-0.328,1.675-0.328
						c0.554,0,0.968,0.19,1.28,0.346c0.309,0.173,0.568,0.346,0.827,0.346c0.208,0,0.346-0.053,0.466-0.155
						c0.104-0.087,0.173-0.225,0.173-0.414h1.105v0.311c0,1.503-0.778,2.711-1.537,4.145c-0.742,1.451-1.519,3.143-1.519,5.647
						V157.459z"/>
				</g>
			</g>
		</g>
	</g>
	<rect fill="none" width="177.5" height="177.5"/>
</g>
</svg>
