<?xml version="1.0" encoding="utf-8"?>
<!-- Generator: Adobe Illustrator 13.0.2, SVG Export Plug-In . SVG Version: 6.00 Build 14948)  -->
<!DOCTYPE svg PUBLIC "-//W3C//DTD SVG 1.1//EN" "http://www.w3.org/Graphics/SVG/1.1/DTD/svg11.dtd">
<svg version="1.1" id="Layer_1" xmlns="http://www.w3.org/2000/svg" xmlns:xlink="http://www.w3.org/1999/xlink" x="0px" y="0px"
	 width="177.5px" height="177.5px" viewBox="0 0 177.5 177.5" enable-background="new 0 0 177.5 177.5" xml:space="preserve">
<g>
	<g>
		<g>
			<path fill="#333333" d="M102.613,79.734l-13.813,9l13.886,9.125l34.863-9.125L102.613,79.734z M103.32,91.297
				c-2.762,0-5-1.119-5-2.5s2.238-2.5,5-2.5s5,1.119,5,2.5S106.082,91.297,103.32,91.297z M115.737,90.797c-1.933,0-3.5-0.895-3.5-2
				c0-1.104,1.567-2,3.5-2s3.5,0.896,3.5,2C119.237,89.902,117.67,90.797,115.737,90.797z M124.778,90.297c-1.104,0-2-0.671-2-1.5
				s0.896-1.5,2-1.5s2,0.671,2,1.5S125.883,90.297,124.778,90.297z"/>
		</g>
	</g>
	<rect fill="none" width="177.5" height="177.5"/>
</g>
</svg>
