<?xml version="1.0" encoding="utf-8"?>
<!-- Generator: Adobe Illustrator 13.0.2, SVG Export Plug-In . SVG Version: 6.00 Build 14948)  -->
<!DOCTYPE svg PUBLIC "-//W3C//DTD SVG 1.1//EN" "http://www.w3.org/Graphics/SVG/1.1/DTD/svg11.dtd">
<svg version="1.1" id="Layer_1" xmlns="http://www.w3.org/2000/svg" xmlns:xlink="http://www.w3.org/1999/xlink" x="0px" y="0px"
	 width="177.5px" height="177.5px" viewBox="0 0 177.5 177.5" enable-background="new 0 0 177.5 177.5" xml:space="preserve">
<g>
	<g>
		<g>
			<path fill="#333333" d="M88.766,23.693L81.641,68.57l7.125,20.123l7-20.018L88.766,23.693z M88.703,41.006c0.553,0,1,0.447,1,1
				c0,0.552-0.447,1-1,1s-1-0.448-1-1C87.703,41.453,88.15,41.006,88.703,41.006z M88.703,45.881c0.828,0,1.5,0.895,1.5,2
				c0,1.104-0.672,2-1.5,2s-1.5-0.896-1.5-2C87.203,46.775,87.875,45.881,88.703,45.881z M88.703,53.006c1.104,0,2,1.565,2,3.5
				c0,1.934-0.896,3.5-2,3.5s-2-1.566-2-3.5C86.703,54.571,87.6,53.006,88.703,53.006z M88.703,72.756c-1.381,0-2.5-2.239-2.5-5
				c0-2.762,1.119-5,2.5-5s2.5,2.238,2.5,5C91.203,70.517,90.084,72.756,88.703,72.756z"/>
		</g>
	</g>
	<rect fill="none" width="177.5" height="177.5"/>
</g>
</svg>
