<?xml version="1.0" encoding="utf-8"?>
<!-- Generator: Adobe Illustrator 13.0.2, SVG Export Plug-In . SVG Version: 6.00 Build 14948)  -->
<!DOCTYPE svg PUBLIC "-//W3C//DTD SVG 1.1//EN" "http://www.w3.org/Graphics/SVG/1.1/DTD/svg11.dtd">
<svg version="1.1" id="Layer_1" xmlns="http://www.w3.org/2000/svg" xmlns:xlink="http://www.w3.org/1999/xlink" x="0px" y="0px"
	 width="177.5px" height="177.5px" viewBox="0 0 177.5 177.5" enable-background="new 0 0 177.5 177.5" xml:space="preserve">
<g>
	<g>
		<g>
			<path fill="#1A1A1A" d="M12.75,169.25c-2.486,0-4.5-2.014-4.5-4.5l0,0v-152c0-2.486,2.014-4.5,4.5-4.5l0,0h152
				c2.486,0,4.5,2.014,4.5,4.5l0,0v152c0,2.486-2.014,4.5-4.5,4.5l0,0H12.75L12.75,169.25z"/>
		</g>
		<g>
			<linearGradient id="SVGID_1_" gradientUnits="userSpaceOnUse" x1="88.0054" y1="9.2539" x2="89.5053" y2="169.2539">
				<stop  offset="0" style="stop-color:#F2F2F2"/>
				<stop  offset="0.0047" style="stop-color:#EFEFEF"/>
				<stop  offset="0.0451" style="stop-color:#D4D4D4"/>
				<stop  offset="0.0908" style="stop-color:#BEBEBE"/>
				<stop  offset="0.1449" style="stop-color:#ADADAD"/>
				<stop  offset="0.2117" style="stop-color:#A2A2A2"/>
				<stop  offset="0.3055" style="stop-color:#9B9B9B"/>
				<stop  offset="0.5659" style="stop-color:#999999"/>
				<stop  offset="1" style="stop-color:#333333"/>
			</linearGradient>
			<path fill="url(#SVGID_1_)" d="M168.75,164.75c0,2.209-1.791,4-4,4h-152c-2.209,0-4-1.791-4-4v-152c0-2.209,1.791-4,4-4h152
				c2.209,0,4,1.791,4,4V164.75z"/>
			<g>
				<g>
					<path d="M122.677,30.609v-0.984l0.536-0.086c0.448-0.086,0.569-0.587,0.569-1.381v-6.063h-1.623v-1.157h0.38
						c0.88,0,1.484-0.294,1.899-1.208h1.278v8.428c0,0.794,0.139,1.295,0.587,1.381l0.553,0.086v0.984H122.677z"/>
				</g>
				<g>
					<path d="M147.585,56.113v-0.761c0-2.228,1.02-3.212,2.038-4.041c1.468-1.157,2.159-2.038,2.159-3.333
						c0-0.864-0.415-1.744-1.382-1.744c-1.243,0-1.658,0.897-1.658,1.313c0,0.275,0.155,0.466,0.467,0.518
						c0.431,0.052,0.76,0.346,0.76,0.933c0,0.57-0.484,1.122-1.158,1.122c-0.914,0-1.277-0.914-1.277-2.123
						c0-1.814,1.572-2.885,3.265-2.885c1.519,0,3.212,0.984,3.212,2.953c0,2.418-1.434,3.368-2.469,3.834
						c-0.847,0.414-2.057,1.02-2.59,2.158l0.033,0.053c0.5-0.415,0.984-0.587,1.555-0.587c0.381,0,0.639,0.069,0.914,0.189
						c0.363,0.138,0.674,0.276,1.072,0.276c0.534,0,0.586-0.691,0.586-1.555h1.02v1.002c0,1.865-0.709,2.78-2.106,2.78
						c-0.571,0-1.02-0.207-1.33-0.38c-0.483-0.275-0.951-0.466-1.399-0.466c-0.344,0-0.621,0.241-0.674,0.743H147.585z"/>
				</g>
				<g>
					<path d="M85.633,162.354c0-3.592,1.433-5.992,4.042-5.992c1.365,0,2.626,0.553,2.626,2.211c0,1.035-0.518,1.813-1.297,1.83
						c-0.689,0.018-1.173-0.432-1.173-1.002c0-0.569,0.414-0.846,0.777-0.897c0.258-0.034,0.467-0.207,0.467-0.415
						c0-0.224-0.396-0.621-1.193-0.621c-1.485,0-2.176,2.262-2.02,4.248c0.363-0.553,0.966-0.932,1.848-0.932
						c1.365,0,2.833,0.967,2.833,3.143c0,2.729-1.623,3.54-3.437,3.54C86.738,167.466,85.633,165.324,85.633,162.354z M88,164.099
						c0,1.348,0.466,1.969,1.243,1.969s1.244-0.621,1.244-1.969c0-1.347-0.467-1.969-1.244-1.969S88,162.752,88,164.099z"/>
				</g>
				<g>
					<path d="M160.201,88.054c0.621-0.087,1.348-0.656,1.348-1.969c0-1.209-0.432-2.038-1.605-2.038
						c-1.191,0-1.571,0.897-1.571,1.209c0,0.311,0.205,0.466,0.446,0.5c0.33,0.035,0.743,0.363,0.743,0.95s-0.482,1.123-1.173,1.123
						c-0.881,0-1.227-0.794-1.227-2.003c0-1.814,1.744-2.885,3.229-2.885c1.658,0,3.42,0.863,3.42,2.901
						c0,1.382-0.777,2.142-1.33,2.436v0.052c0.76,0.259,1.469,1.329,1.469,2.572c0,2.039-1.469,3.144-3.162,3.144
						c-1.76,0-3.625-0.604-3.625-2.78c0-1.07,0.363-1.797,1.26-1.797c0.76,0,1.105,0.467,1.105,0.951
						c0,0.448-0.275,0.897-0.517,1.035c-0.192,0.121-0.313,0.295-0.313,0.449c0,0.312,0.519,0.847,1.382,0.847
						c0.674,0,1.555-0.38,1.555-1.744c0-1.71-0.726-1.9-1.434-1.9V88.054z"/>
				</g>
				<g>
					<path d="M147.158,125.186l4.024-6.459h1.778v6.459h1.484v1.295h-1.484v0.674c0,0.795,0.137,1.295,0.587,1.381l0.534,0.087
						v0.984h-4.109v-0.984l0.484-0.087c0.43-0.086,0.57-0.586,0.57-1.381v-0.674h-3.869V125.186z M151.027,125.186v-3.834
						l-2.385,3.834H151.027z"/>
				</g>
				<g>
					<path d="M121.576,151.932l0.346-5.388h5.543l-0.104,1.709h-4.334l-0.139,2.142c0.673-0.414,1.348-0.57,2.055-0.57
						c1.676,0,3.006,1.089,3.006,3.697c0,2.745-1.606,4.006-3.282,4.006c-1.64,0-3.505-0.604-3.505-2.798
						c0-1.14,0.345-1.779,1.26-1.779c0.76,0,1.089,0.468,1.089,1.002c0,0.397-0.191,0.777-0.467,0.984
						c-0.155,0.122-0.259,0.312-0.259,0.501c0,0.19,0.484,0.795,1.209,0.795c1.415,0,1.623-1.364,1.623-2.66
						c0-0.846-0.225-2.383-1.484-2.383c-0.588,0-1.02,0.138-1.469,0.742H121.576z"/>
				</g>
				<g>
					<linearGradient id="SVGID_2_" gradientUnits="userSpaceOnUse" x1="84.3135" y1="9.2881" x2="84.147" y2="20.7875">
						<stop  offset="0" style="stop-color:#FFFFFF"/>
						<stop  offset="0.0074" style="stop-color:#F6F6F6"/>
						<stop  offset="0.0477" style="stop-color:#C8C8C8"/>
						<stop  offset="0.0931" style="stop-color:#9D9D9D"/>
						<stop  offset="0.1419" style="stop-color:#777777"/>
						<stop  offset="0.195" style="stop-color:#575757"/>
						<stop  offset="0.2537" style="stop-color:#3B3B3B"/>
						<stop  offset="0.32" style="stop-color:#252525"/>
						<stop  offset="0.3974" style="stop-color:#141414"/>
						<stop  offset="0.4931" style="stop-color:#090909"/>
						<stop  offset="0.6274" style="stop-color:#020202"/>
						<stop  offset="1" style="stop-color:#000000"/>
					</linearGradient>
					<path fill="url(#SVGID_2_)" d="M82.384,21.029v-0.984l0.536-0.086c0.449-0.086,0.569-0.588,0.569-1.382v-6.062h-1.624v-1.157
						h0.381c0.88,0,1.485-0.294,1.9-1.209h1.277v8.428c0,0.794,0.14,1.296,0.588,1.382l0.552,0.086v0.984H82.384z"/>
					<linearGradient id="SVGID_3_" gradientUnits="userSpaceOnUse" x1="92.3379" y1="9.4043" x2="92.1714" y2="20.9038">
						<stop  offset="0" style="stop-color:#FFFFFF"/>
						<stop  offset="0.0074" style="stop-color:#F6F6F6"/>
						<stop  offset="0.0477" style="stop-color:#C8C8C8"/>
						<stop  offset="0.0931" style="stop-color:#9D9D9D"/>
						<stop  offset="0.1419" style="stop-color:#777777"/>
						<stop  offset="0.195" style="stop-color:#575757"/>
						<stop  offset="0.2537" style="stop-color:#3B3B3B"/>
						<stop  offset="0.32" style="stop-color:#252525"/>
						<stop  offset="0.3974" style="stop-color:#141414"/>
						<stop  offset="0.4931" style="stop-color:#090909"/>
						<stop  offset="0.6274" style="stop-color:#020202"/>
						<stop  offset="1" style="stop-color:#000000"/>
					</linearGradient>
					<path fill="url(#SVGID_3_)" d="M89.001,21.029v-0.76c0-2.228,1.02-3.212,2.038-4.041c1.468-1.157,2.16-2.039,2.16-3.334
						c0-0.863-0.415-1.744-1.383-1.744c-1.243,0-1.658,0.898-1.658,1.313c0,0.277,0.155,0.467,0.467,0.52
						c0.431,0.051,0.76,0.345,0.76,0.932c0,0.57-0.484,1.123-1.157,1.123c-0.916,0-1.278-0.916-1.278-2.125
						c0-1.813,1.572-2.883,3.266-2.883c1.519,0,3.212,0.984,3.212,2.953c0,2.417-1.435,3.367-2.47,3.833
						c-0.847,0.415-2.057,1.019-2.59,2.159l0.033,0.052c0.5-0.415,0.984-0.587,1.555-0.587c0.381,0,0.639,0.068,0.914,0.189
						c0.363,0.138,0.674,0.277,1.072,0.277c0.534,0,0.586-0.691,0.586-1.556h1.02v1.002c0,1.866-0.709,2.78-2.105,2.78
						c-0.572,0-1.02-0.207-1.331-0.38c-0.483-0.276-0.95-0.466-1.399-0.466c-0.344,0-0.621,0.242-0.673,0.742H89.001z"/>
				</g>
				<g>
					<path d="M46.167,30.611v-0.984l0.537-0.087c0.447-0.087,0.568-0.587,0.568-1.382v-6.061h-1.623v-1.158h0.38
						c0.881,0,1.485-0.294,1.901-1.209h1.277v8.428c0,0.795,0.138,1.295,0.587,1.382l0.552,0.087v0.984H46.167z"/>
					<path d="M52.993,30.611v-0.984l0.536-0.087c0.449-0.087,0.569-0.587,0.569-1.382v-6.061h-1.623v-1.158h0.38
						c0.88,0,1.485-0.294,1.899-1.209h1.279v8.428c0,0.795,0.138,1.295,0.586,1.382l0.553,0.087v0.984H52.993z"/>
				</g>
				<g>
					<path d="M19.489,56.113v-0.984l0.536-0.086c0.449-0.086,0.569-0.588,0.569-1.382V47.6H18.97v-1.157h0.381
						c0.88,0,1.485-0.294,1.899-1.209h1.277v8.428c0,0.794,0.14,1.296,0.588,1.382l0.553,0.086v0.984H19.489z"/>
					<path d="M25.848,50.621c0-3.367,1.52-5.508,3.679-5.508s3.679,2.105,3.679,5.508c0,3.385-1.157,5.596-3.679,5.596
						C26.988,56.217,25.848,54.006,25.848,50.621z M29.526,55.111c1.037,0,1.243-1.398,1.243-4.49c0-3.437-0.207-4.403-1.243-4.403
						s-1.245,0.967-1.245,4.403C28.282,53.713,28.49,55.111,29.526,55.111z"/>
				</g>
				<g>
					<path d="M12.803,91.594c0-0.812,0.312-1.588,1.021-1.588c0.724,0,1.087,0.465,1.087,0.845c0,0.381-0.139,0.691-0.363,0.882
						c-0.189,0.154-0.241,0.345-0.241,0.553c0,0.224,0.483,0.674,1.365,0.674c1.485,0,1.761-2.28,1.606-4.197
						c-0.433,0.57-1.088,0.863-1.848,0.863c-1.279,0-2.832-0.984-2.832-3.143c0-2.729,1.57-3.541,3.229-3.541
						c2.4,0,3.903,2.142,3.903,5.612c0,3.714-1.642,5.492-3.991,5.492C14.29,94.046,12.803,93.113,12.803,91.594z M14.652,86.24
						c0,1.347,0.465,2.003,1.243,2.003c0.761,0,1.226-0.656,1.226-2.003c0-1.348-0.465-2.193-1.226-2.193
						C15.084,84.047,14.652,84.893,14.652,86.24z"/>
				</g>
				<g>
					<path d="M29.443,121.285c0,1.209-0.605,1.951-1.329,2.504c1.189,0.536,1.76,1.711,1.76,2.781c0,2.4-1.918,3.143-3.868,3.143
						c-1.487,0-3.644-0.432-3.644-2.884c0-1.157,0.726-2.228,1.589-2.746c-0.778-0.708-1.261-1.382-1.261-2.626
						c0-1.813,1.691-2.848,3.505-2.848C27.542,118.609,29.443,119.334,29.443,121.285z M27.75,126.881c0-0.69-0.863-1.277-2.522-1.9
						c-0.847,0.208-1.277,0.934-1.277,1.572c0,1.227,0.966,1.762,2.106,1.762C26.972,128.314,27.75,127.797,27.75,126.881z
						 M24.744,120.923c0,0.64,0.657,1.295,1.399,1.657c0.744-0.362,1.468-1.018,1.468-1.623c0-0.742-0.743-1.243-1.468-1.243
						C25.557,119.714,24.744,120.076,24.744,120.923z"/>
				</g>
				<g>
					<path d="M52.209,157.459h-2.367v-0.449c0-3.23,1.812-6.528,2.884-8.204l-0.087-0.052c-0.309,0.035-0.812-0.156-1.172-0.293
						c-0.363-0.121-0.709-0.174-1.038-0.174c-0.708,0-1.33,0.848-1.33,2.66H47.58v-4.404h1.037c0.035,0.346,0.173,0.536,0.293,0.536
						c0.172,0,0.57-0.173,0.829-0.294c0.432-0.207,1.002-0.328,1.675-0.328c0.554,0,0.968,0.189,1.28,0.346
						c0.309,0.173,0.568,0.346,0.827,0.346c0.208,0,0.346-0.053,0.466-0.156c0.104-0.086,0.173-0.224,0.173-0.414h1.105v0.311
						c0,1.504-0.778,2.711-1.537,4.146c-0.742,1.45-1.519,3.143-1.519,5.647V157.459z"/>
				</g>
			</g>
		</g>
	</g>
	<rect fill="none" width="177.5" height="177.5"/>
</g>
</svg>
