<?xml version="1.0" encoding="utf-8"?>
<!-- Generator: Adobe Illustrator 13.0.2, SVG Export Plug-In . SVG Version: 6.00 Build 14948)  -->
<!DOCTYPE svg PUBLIC "-//W3C//DTD SVG 1.1//EN" "http://www.w3.org/Graphics/SVG/1.1/DTD/svg11.dtd">
<svg version="1.1" id="Layer_1" xmlns="http://www.w3.org/2000/svg" xmlns:xlink="http://www.w3.org/1999/xlink" x="0px" y="0px"
	 width="305px" height="305px" viewBox="0 0 305 305" enable-background="new 0 0 305 305" xml:space="preserve">
<g>
	<g>
		<g>
			<g>
				<g>
					<path d="M219.092,34.891h0.492c1.578,0,2.789,0.465,3.633,1.395s1.266,2.262,1.266,3.996c0,1.977-0.465,3.459-1.395,4.447
						s-2.32,1.482-4.172,1.482c-1.359,0-2.566-0.168-3.621-0.504v-1.723c1.164,0.352,2.238,0.527,3.223,0.527
						c0.906,0,1.588-0.305,2.045-0.914s0.686-1.648,0.686-3.117c0-1.227-0.268-2.146-0.803-2.76s-1.338-0.92-2.408-0.92
						c-0.711,0-1.418,0.043-2.121,0.129v-8.262h8.191v1.582h-5.016V34.891z"/>
				</g>
			</g>
			<g>
				<g>
					<path d="M143.613,16.939c0.609-0.563,1.41-0.844,2.402-0.844c1.359,0,2.367,0.4,3.023,1.201s0.984,2.115,0.984,3.943
						c0,2.195-0.389,3.803-1.166,4.822s-1.963,1.529-3.557,1.529c-1.578,0-2.781-0.531-3.609-1.594s-1.242-3.211-1.242-6.445
						c0-3.359,0.533-5.811,1.6-7.354s2.67-2.314,4.811-2.314c0.711,0,1.422,0.055,2.133,0.164v1.734
						c-0.75-0.133-1.406-0.199-1.969-0.199c-1.023,0-1.84,0.457-2.449,1.371S143.645,15.197,143.613,16.939z M145.277,25.893
						c0.555,0,0.957-0.289,1.207-0.867s0.375-1.801,0.375-3.668c0-1.188-0.1-2.098-0.299-2.73s-0.619-0.949-1.26-0.949
						c-0.594,0-1.023,0.25-1.289,0.75s-0.398,1.387-0.398,2.66c0,2.172,0.133,3.516,0.398,4.031S144.699,25.893,145.277,25.893z"/>
					<path d="M156.727,9.885c1.383,0,2.412,0.387,3.088,1.16s1.105,1.752,1.289,2.936s0.275,2.697,0.275,4.541
						c0,2.547-0.172,4.412-0.516,5.596s-0.869,2.051-1.576,2.602s-1.611,0.826-2.713,0.826c-1.422,0-2.473-0.424-3.152-1.271
						s-1.1-1.877-1.26-3.088s-0.24-2.766-0.24-4.664c0-3.242,0.402-5.492,1.207-6.75S155.133,9.885,156.727,9.885z M156.645,25.963
						c0.695,0,1.131-0.496,1.307-1.488s0.264-2.977,0.264-5.953c0-2.031-0.037-3.525-0.111-4.482s-0.219-1.625-0.434-2.004
						s-0.557-0.568-1.025-0.568c-0.648,0-1.07,0.457-1.266,1.371s-0.293,2.809-0.293,5.684c0,3.117,0.09,5.137,0.27,6.059
						S155.965,25.963,156.645,25.963z"/>
				</g>
			</g>
			<g>
				<g>
					<path d="M80.031,34.891h0.492c1.578,0,2.789,0.465,3.633,1.395s1.266,2.262,1.266,3.996c0,1.977-0.465,3.459-1.395,4.447
						s-2.32,1.482-4.172,1.482c-1.359,0-2.566-0.168-3.621-0.504v-1.723c1.164,0.352,2.238,0.527,3.223,0.527
						c0.906,0,1.588-0.305,2.045-0.914s0.686-1.648,0.686-3.117c0-1.227-0.268-2.146-0.803-2.76s-1.338-0.92-2.408-0.92
						c-0.711,0-1.418,0.043-2.121,0.129v-8.262h8.191v1.582h-5.016V34.891z"/>
					<path d="M91.504,34.891h0.492c1.578,0,2.789,0.465,3.633,1.395s1.266,2.262,1.266,3.996c0,1.977-0.465,3.459-1.395,4.447
						s-2.32,1.482-4.172,1.482c-1.359,0-2.566-0.168-3.621-0.504v-1.723c1.164,0.352,2.238,0.527,3.223,0.527
						c0.906,0,1.588-0.305,2.045-0.914s0.686-1.648,0.686-3.117c0-1.227-0.268-2.146-0.803-2.76s-1.338-0.92-2.408-0.92
						c-0.711,0-1.418,0.043-2.121,0.129v-8.262h8.191v1.582h-5.016V34.891z"/>
				</g>
			</g>
			<g>
				<g>
					<path d="M25.533,88.391h0.492c1.578,0,2.789,0.465,3.633,1.395s1.266,2.262,1.266,3.996c0,1.977-0.465,3.459-1.395,4.447
						s-2.32,1.482-4.172,1.482c-1.359,0-2.566-0.168-3.621-0.504v-1.723c1.164,0.352,2.238,0.527,3.223,0.527
						c0.906,0,1.588-0.305,2.045-0.914s0.686-1.648,0.686-3.117c0-1.227-0.268-2.146-0.803-2.76s-1.338-0.92-2.408-0.92
						c-0.711,0-1.418,0.043-2.121,0.129v-8.262h8.191v1.582h-5.016V88.391z"/>
					<path d="M37.967,82.051c1.383,0,2.412,0.387,3.088,1.16s1.105,1.752,1.289,2.936s0.275,2.697,0.275,4.541
						c0,2.547-0.172,4.412-0.516,5.596s-0.869,2.051-1.576,2.602s-1.611,0.826-2.713,0.826c-1.422,0-2.473-0.424-3.152-1.271
						s-1.1-1.877-1.26-3.088s-0.24-2.766-0.24-4.664c0-3.242,0.402-5.492,1.207-6.75S36.373,82.051,37.967,82.051z M37.885,98.129
						c0.695,0,1.131-0.496,1.307-1.488s0.264-2.977,0.264-5.953c0-2.031-0.037-3.525-0.111-4.482s-0.219-1.625-0.434-2.004
						s-0.557-0.568-1.025-0.568c-0.648,0-1.07,0.457-1.266,1.371s-0.293,2.809-0.293,5.684c0,3.117,0.09,5.137,0.27,6.059
						S37.205,98.129,37.885,98.129z"/>
				</g>
			</g>
			<g>
				<g>
					<path d="M15.936,157.857h-1.371v3.621H11.4v-3.621H5.283v-1.582l7.031-12.246h2.25v12.246h1.371V157.857z M11.4,148.846
						l-4.055,7.43H11.4V148.846z"/>
					<path d="M21.338,150.252h0.492c1.578,0,2.789,0.465,3.633,1.395s1.266,2.262,1.266,3.996c0,1.977-0.465,3.459-1.395,4.447
						s-2.32,1.482-4.172,1.482c-1.359,0-2.566-0.168-3.621-0.504v-1.723c1.164,0.352,2.238,0.527,3.223,0.527
						c0.906,0,1.588-0.305,2.045-0.914s0.686-1.648,0.686-3.117c0-1.227-0.268-2.146-0.803-2.76s-1.338-0.92-2.408-0.92
						c-0.711,0-1.418,0.043-2.121,0.129v-8.262h8.191v1.582h-5.016V150.252z"/>
				</g>
			</g>
			<g>
				<g>
					<path d="M82.354,270.883c0.93,0.297,1.627,0.791,2.092,1.482s0.697,1.58,0.697,2.666c0,1.773-0.447,3.08-1.342,3.92
						s-2.287,1.26-4.178,1.26c-1.203,0-2.395-0.176-3.574-0.527v-1.746c1.273,0.383,2.336,0.574,3.188,0.574
						c0.969,0,1.654-0.273,2.057-0.82s0.604-1.434,0.604-2.66c0-1.133-0.25-1.984-0.75-2.555s-1.25-0.855-2.25-0.855h-1.535v-1.582
						h1.535c0.922,0,1.613-0.25,2.074-0.75s0.691-1.25,0.691-2.25c0-0.93-0.199-1.627-0.598-2.092s-0.992-0.697-1.781-0.697
						c-0.523,0-1.465,0.176-2.824,0.527v-1.746c1.352-0.32,2.535-0.48,3.551-0.48c1.625,0,2.846,0.361,3.662,1.084
						s1.225,1.803,1.225,3.24c0,0.969-0.213,1.787-0.639,2.455S83.197,270.516,82.354,270.883z"/>
					<path d="M91.506,268.891h0.492c1.578,0,2.789,0.465,3.633,1.395s1.266,2.262,1.266,3.996c0,1.977-0.465,3.459-1.395,4.447
						s-2.32,1.482-4.172,1.482c-1.359,0-2.566-0.168-3.621-0.504v-1.723c1.164,0.352,2.238,0.527,3.223,0.527
						c0.906,0,1.588-0.305,2.045-0.914s0.686-1.648,0.686-3.117c0-1.227-0.268-2.146-0.803-2.76s-1.338-0.92-2.408-0.92
						c-0.711,0-1.418,0.043-2.121,0.129v-8.262h8.191v1.582h-5.016V268.891z"/>
				</g>
			</g>
			<g>
				<g>
					<path d="M146.613,289.217c0.93,0.297,1.627,0.791,2.092,1.482s0.697,1.58,0.697,2.666c0,1.773-0.447,3.08-1.342,3.92
						s-2.287,1.26-4.178,1.26c-1.203,0-2.395-0.176-3.574-0.527v-1.746c1.273,0.383,2.336,0.574,3.188,0.574
						c0.969,0,1.654-0.273,2.057-0.82s0.604-1.434,0.604-2.66c0-1.133-0.25-1.984-0.75-2.555s-1.25-0.855-2.25-0.855h-1.535v-1.582
						h1.535c0.922,0,1.613-0.25,2.074-0.75s0.691-1.25,0.691-2.25c0-0.93-0.199-1.627-0.598-2.092s-0.992-0.697-1.781-0.697
						c-0.523,0-1.465,0.176-2.824,0.527v-1.746c1.352-0.32,2.535-0.48,3.551-0.48c1.625,0,2.846,0.361,3.662,1.084
						s1.225,1.803,1.225,3.24c0,0.969-0.213,1.787-0.639,2.455S147.457,288.85,146.613,289.217z"/>
					<path d="M156.727,280.885c1.383,0,2.412,0.387,3.088,1.16s1.105,1.752,1.289,2.936s0.275,2.697,0.275,4.541
						c0,2.547-0.172,4.412-0.516,5.596s-0.869,2.051-1.576,2.602s-1.611,0.826-2.713,0.826c-1.422,0-2.473-0.424-3.152-1.271
						s-1.1-1.877-1.26-3.088s-0.24-2.766-0.24-4.664c0-3.242,0.402-5.492,1.207-6.75S155.133,280.885,156.727,280.885z
						 M156.645,296.963c0.695,0,1.131-0.496,1.307-1.488s0.264-2.977,0.264-5.953c0-2.031-0.037-3.525-0.111-4.482
						s-0.219-1.625-0.434-2.004s-0.557-0.568-1.025-0.568c-0.648,0-1.07,0.457-1.266,1.371s-0.293,2.809-0.293,5.684
						c0,3.117,0.09,5.137,0.27,6.059S155.965,296.963,156.645,296.963z"/>
				</g>
			</g>
			<g>
				<g>
					<path d="M216.205,280.117h-9.645v-1.371c0-1.336,0.258-2.561,0.773-3.674s1.594-2.393,3.234-3.838
						c0.969-0.867,1.621-1.604,1.957-2.209s0.504-1.197,0.504-1.775c0-0.898-0.25-1.623-0.75-2.174s-1.176-0.826-2.027-0.826
						c-0.68,0-1.832,0.191-3.457,0.574v-1.723c1.531-0.367,2.875-0.551,4.031-0.551c1.648,0,2.957,0.414,3.926,1.242
						s1.453,1.988,1.453,3.48c0,0.867-0.199,1.734-0.598,2.602s-1.332,1.945-2.801,3.234c-0.758,0.656-1.352,1.215-1.781,1.676
						s-0.791,1.002-1.084,1.623s-0.439,1.33-0.439,2.127h6.703V280.117z"/>
					<path d="M222.111,268.891h0.492c1.578,0,2.789,0.465,3.633,1.395s1.266,2.262,1.266,3.996c0,1.977-0.465,3.459-1.395,4.447
						s-2.32,1.482-4.172,1.482c-1.359,0-2.566-0.168-3.621-0.504v-1.723c1.164,0.352,2.238,0.527,3.223,0.527
						c0.906,0,1.588-0.305,2.045-0.914s0.686-1.648,0.686-3.117c0-1.227-0.268-2.146-0.803-2.76s-1.338-0.92-2.408-0.92
						c-0.711,0-1.418,0.043-2.121,0.129v-8.262h8.191v1.582h-5.016V268.891z"/>
				</g>
			</g>
			<g>
				<g>
					<path d="M282.977,161.479h-9.492v-1.582h3.164v-13.184l-3.164,0.703v-1.582l4.746-1.805h1.582v15.867h3.164V161.479z"/>
					<path d="M288.672,150.252h0.492c1.578,0,2.789,0.465,3.633,1.395s1.266,2.262,1.266,3.996c0,1.977-0.465,3.459-1.395,4.447
						s-2.32,1.482-4.172,1.482c-1.359,0-2.566-0.168-3.621-0.504v-1.723c1.164,0.352,2.238,0.527,3.223,0.527
						c0.906,0,1.588-0.305,2.045-0.914s0.686-1.648,0.686-3.117c0-1.227-0.268-2.146-0.803-2.76s-1.338-0.92-2.408-0.92
						c-0.711,0-1.418,0.043-2.121,0.129v-8.262h8.191v1.582h-5.016V150.252z"/>
				</g>
			</g>
			<g>
				<g>
					<path d="M268.477,99.617h-9.492v-1.582h3.164V84.852l-3.164,0.703v-1.582l4.746-1.805h1.582v15.867h3.164V99.617z"/>
					<path d="M275.133,82.051c1.383,0,2.412,0.387,3.088,1.16s1.105,1.752,1.289,2.936s0.275,2.697,0.275,4.541
						c0,2.547-0.172,4.412-0.516,5.596s-0.869,2.051-1.576,2.602s-1.611,0.826-2.713,0.826c-1.422,0-2.473-0.424-3.152-1.271
						s-1.1-1.877-1.26-3.088s-0.24-2.766-0.24-4.664c0-3.242,0.402-5.492,1.207-6.75S273.539,82.051,275.133,82.051z
						 M275.051,98.129c0.695,0,1.131-0.496,1.307-1.488s0.264-2.977,0.264-5.953c0-2.031-0.037-3.525-0.111-4.482
						s-0.219-1.625-0.434-2.004s-0.557-0.568-1.025-0.568c-0.648,0-1.07,0.457-1.266,1.371s-0.293,2.809-0.293,5.684
						c0,3.117,0.09,5.137,0.27,6.059S274.371,98.129,275.051,98.129z"/>
				</g>
			</g>
			<g>
				<g>
					<path d="M268.266,223.449h-9.645v-1.371c0-1.336,0.258-2.561,0.773-3.674s1.594-2.393,3.234-3.838
						c0.969-0.867,1.621-1.604,1.957-2.209s0.504-1.197,0.504-1.775c0-0.898-0.25-1.623-0.75-2.174s-1.176-0.826-2.027-0.826
						c-0.68,0-1.832,0.191-3.457,0.574v-1.723c1.531-0.367,2.875-0.551,4.031-0.551c1.648,0,2.957,0.414,3.926,1.242
						s1.453,1.988,1.453,3.48c0,0.867-0.199,1.734-0.598,2.602s-1.332,1.945-2.801,3.234c-0.758,0.656-1.352,1.215-1.781,1.676
						s-0.791,1.002-1.084,1.623s-0.439,1.33-0.439,2.127h6.703V223.449z"/>
					<path d="M275.133,205.883c1.383,0,2.412,0.387,3.088,1.16s1.105,1.752,1.289,2.936s0.275,2.697,0.275,4.541
						c0,2.547-0.172,4.412-0.516,5.596s-0.869,2.051-1.576,2.602s-1.611,0.826-2.713,0.826c-1.422,0-2.473-0.424-3.152-1.271
						s-1.1-1.877-1.26-3.088s-0.24-2.766-0.24-4.664c0-3.242,0.402-5.492,1.207-6.75S273.539,205.883,275.133,205.883z
						 M275.051,221.961c0.695,0,1.131-0.496,1.307-1.488s0.264-2.977,0.264-5.953c0-2.031-0.037-3.525-0.111-4.482
						s-0.219-1.625-0.434-2.004s-0.557-0.568-1.025-0.568c-0.648,0-1.07,0.457-1.266,1.371s-0.293,2.809-0.293,5.684
						c0,3.117,0.09,5.137,0.27,6.059S274.371,221.961,275.051,221.961z"/>
				</g>
			</g>
			<g>
				<g>
					<path d="M31.602,219.83H30.23v3.621h-3.164v-3.621h-6.117v-1.582l7.031-12.246h2.25v12.246h1.371V219.83z M27.066,210.818
						l-4.055,7.43h4.055V210.818z"/>
					<path d="M37.965,205.885c1.383,0,2.412,0.387,3.088,1.16s1.105,1.752,1.289,2.936s0.275,2.697,0.275,4.541
						c0,2.547-0.172,4.412-0.516,5.596s-0.869,2.051-1.576,2.602s-1.611,0.826-2.713,0.826c-1.422,0-2.473-0.424-3.152-1.271
						s-1.1-1.877-1.26-3.088s-0.24-2.766-0.24-4.664c0-3.242,0.402-5.492,1.207-6.75S36.371,205.885,37.965,205.885z
						 M37.883,221.963c0.695,0,1.131-0.496,1.307-1.488s0.264-2.977,0.264-5.953c0-2.031-0.037-3.525-0.111-4.482
						s-0.219-1.625-0.434-2.004s-0.557-0.568-1.025-0.568c-0.648,0-1.07,0.457-1.266,1.371s-0.293,2.809-0.293,5.684
						c0,3.117,0.09,5.137,0.27,6.059S37.203,221.963,37.883,221.963z"/>
				</g>
			</g>
		</g>
		<g>
			<path d="M140.828,38.072l-0.994,0.104l2.504,23.826c0.331-0.037,0.662-0.074,0.994-0.107L140.828,38.072z"/>
			<path d="M128.916,39.816l-0.979,0.209l4.998,23.508c0.326-0.07,0.65-0.146,0.978-0.213L128.916,39.816z"/>
			<path d="M117.279,42.912l-0.951,0.309l7.416,22.822c0.316-0.105,0.633-0.207,0.951-0.309L117.279,42.912z"/>
			<path d="M106.031,47.242l-0.916,0.408l9.738,21.859c0.304-0.137,0.611-0.268,0.917-0.402L106.031,47.242z"/>
			<path d="M85.146,59.168l-0.809,0.59l14.094,19.385c0.268-0.197,0.537-0.395,0.809-0.59L85.146,59.168z"/>
			<path d="M75.789,66.654l-0.742,0.668L91.096,85.15c0.246-0.223,0.498-0.441,0.746-0.664L75.789,66.654z"/>
			<path d="M67.219,75.15l-0.668,0.742l17.833,16.053c0.222-0.248,0.44-0.5,0.665-0.746L67.219,75.15z"/>
			<path d="M59.598,84.439l-0.59,0.809l19.427,14.115c0.194-0.271,0.392-0.541,0.589-0.809L59.598,84.439z"/>
			<path d="M47.49,105.275l-0.406,0.912l21.898,9.736c0.133-0.305,0.263-0.611,0.399-0.914L47.49,105.275z"/>
			<path d="M43.119,116.486l-0.311,0.953l22.809,7.4c0.102-0.32,0.205-0.637,0.31-0.953L43.119,116.486z"/>
			<path d="M39.979,128.043l-0.207,0.975l23.447,4.986c0.068-0.326,0.143-0.648,0.213-0.975L39.979,128.043z"/>
			<path d="M38.016,139.939l-0.104,0.992l23.879,2.508c0.033-0.332,0.07-0.662,0.105-0.992L38.016,139.939z"/>
			<path d="M37.914,163.971l0.104,0.994l23.879-2.51c-0.035-0.33-0.072-0.662-0.105-0.994L37.914,163.971z"/>
			<path d="M39.769,175.885l0.212,0.979l23.451-4.988c-0.07-0.326-0.145-0.65-0.213-0.979L39.769,175.885z"/>
			<path d="M42.807,187.463l0.31,0.953l22.811-7.4c-0.104-0.316-0.208-0.635-0.31-0.953L42.807,187.463z"/>
			<path d="M47.084,198.711l0.408,0.914l21.889-9.734c-0.137-0.305-0.267-0.611-0.4-0.916L47.084,198.711z"/>
			<path d="M59.01,219.654l0.588,0.811l19.428-14.117c-0.198-0.268-0.396-0.537-0.591-0.809L59.01,219.654z"/>
			<path d="M66.549,229.01l0.67,0.74l17.828-16.049c-0.224-0.246-0.442-0.496-0.664-0.744L66.549,229.01z"/>
			<path d="M75.046,237.582l0.745,0.67l16.053-17.836c-0.249-0.221-0.5-0.441-0.748-0.666L75.046,237.582z"/>
			<path d="M84.336,245.143l0.81,0.59l14.093-19.385c-0.271-0.195-0.54-0.391-0.809-0.59L84.336,245.143z"/>
			<path d="M105.115,257.252l0.914,0.406l9.739-21.865c-0.305-0.133-0.612-0.264-0.915-0.402L105.115,257.252z"/>
			<path d="M116.33,261.682l0.949,0.311l7.416-22.824c-0.317-0.102-0.634-0.203-0.949-0.309L116.33,261.682z"/>
			<path d="M127.938,264.875l0.977,0.211l4.998-23.504c-0.328-0.068-0.652-0.143-0.978-0.213L127.938,264.875z"/>
			<path d="M139.834,266.725l0.994,0.104l2.504-23.822c-0.332-0.031-0.663-0.068-0.994-0.105L139.834,266.725z"/>
			<path d="M163.865,266.828l0.994-0.104l-2.504-23.824c-0.33,0.037-0.66,0.074-0.994,0.105L163.865,266.828z"/>
			<path d="M175.779,265.086l0.979-0.211l-4.996-23.508c-0.326,0.072-0.652,0.146-0.979,0.215L175.779,265.086z"/>
			<path d="M187.418,261.992l0.949-0.311l-7.416-22.822c-0.316,0.104-0.633,0.207-0.951,0.307L187.418,261.992z"/>
			<path d="M198.664,257.658l0.916-0.406l-9.738-21.861c-0.305,0.139-0.611,0.27-0.916,0.402L198.664,257.658z"/>
			<path d="M219.551,245.732l0.809-0.59l-14.094-19.385c-0.268,0.197-0.537,0.395-0.809,0.59L219.551,245.732z"/>
			<path d="M228.904,238.252l0.744-0.67l-16.051-17.832c-0.246,0.225-0.498,0.445-0.748,0.666L228.904,238.252z"/>
			<path d="M237.477,229.75l0.67-0.74l-17.836-16.055c-0.221,0.25-0.439,0.5-0.664,0.746L237.477,229.75z"/>
			<path d="M245.098,220.465l0.588-0.811l-19.426-14.115c-0.195,0.27-0.393,0.539-0.59,0.809L245.098,220.465z"/>
			<path d="M257.207,199.625l0.404-0.914l-21.896-9.738c-0.135,0.307-0.264,0.613-0.402,0.916L257.207,199.625z"/>
			<path d="M261.576,188.416l0.311-0.953l-22.811-7.4c-0.102,0.318-0.203,0.637-0.309,0.953L261.576,188.416z"/>
			<path d="M264.717,176.863l0.207-0.979l-23.449-4.988c-0.066,0.328-0.141,0.652-0.213,0.979L264.717,176.863z"/>
			<path d="M266.68,164.965l0.104-0.994l-23.881-2.51c-0.031,0.332-0.068,0.664-0.105,0.994L266.68,164.965z"/>
			<path d="M266.783,140.932l-0.107-0.992l-23.879,2.508c0.037,0.33,0.074,0.66,0.105,0.992L266.783,140.932z"/>
			<path d="M264.924,129.018l-0.207-0.975l-23.453,4.986c0.07,0.326,0.145,0.648,0.211,0.975L264.924,129.018z"/>
			<path d="M261.887,117.439l-0.309-0.953l-22.811,7.4c0.105,0.316,0.207,0.635,0.309,0.953L261.887,117.439z"/>
			<path d="M257.613,106.188l-0.408-0.912l-21.893,9.734c0.137,0.305,0.266,0.611,0.4,0.916L257.613,106.188z"/>
			<path d="M245.686,85.248l-0.588-0.809L225.67,98.555c0.197,0.27,0.395,0.537,0.59,0.809L245.686,85.248z"/>
			<path d="M238.146,75.893l-0.672-0.742l-17.828,16.049c0.225,0.246,0.443,0.498,0.666,0.746L238.146,75.893z"/>
			<path d="M229.648,67.322l-0.742-0.668l-16.053,17.832c0.248,0.223,0.498,0.441,0.746,0.666L229.648,67.322z"/>
			<path d="M220.361,59.758l-0.813-0.59l-14.094,19.385c0.271,0.195,0.541,0.393,0.811,0.592L220.361,59.758z"/>
			<path d="M199.578,47.65l-0.912-0.408l-9.74,21.865c0.305,0.135,0.611,0.266,0.914,0.402L199.578,47.65z"/>
			<path d="M188.369,43.221l-0.953-0.309L180,65.734c0.318,0.102,0.635,0.205,0.951,0.309L188.369,43.221z"/>
			<path d="M176.76,40.025l-0.979-0.209l-4.998,23.504c0.328,0.068,0.652,0.143,0.979,0.213L176.76,40.025z"/>
			<path d="M164.861,38.176l-0.994-0.104l-2.504,23.822c0.332,0.033,0.662,0.07,0.994,0.107L164.861,38.176z"/>
			<path d="M153.35,61.463V32.451h-2.002v29.012c0.334-0.004,0.666-0.012,1-0.012S153.016,61.459,153.35,61.463z"/>
			<path d="M93.215,48.006l-1.732,0.998l14.506,25.131c0.573-0.34,1.15-0.674,1.73-1L93.215,48.006z"/>
			<path d="M48.9,91.586l-0.998,1.729l25.129,14.506c0.328-0.58,0.66-1.156,1.001-1.729L48.9,91.586z"/>
			<path d="M61.359,151.453H32.347v1.996h29.013c-0.004-0.334-0.012-0.664-0.012-0.998S61.355,151.785,61.359,151.453z"/>
			<path d="M47.9,211.584l1.002,1.734l25.131-14.508c-0.34-0.572-0.676-1.15-1.003-1.732L47.9,211.584z"/>
			<path d="M91.48,255.898l1.734,0.998l14.504-25.129c-0.581-0.328-1.158-0.662-1.73-1.002L91.48,255.898z"/>
			<path d="M151.348,243.438v29.014h2.002v-29.014c-0.334,0.004-0.668,0.014-1.002,0.014S151.682,243.441,151.348,243.438z"/>
			<path d="M211.48,256.896l1.734-0.998l-14.508-25.133c-0.574,0.34-1.15,0.674-1.732,1.002L211.48,256.896z"/>
			<path d="M255.793,213.318l1-1.734l-25.129-14.506c-0.328,0.582-0.662,1.158-1.002,1.732L255.793,213.318z"/>
			<path d="M243.334,153.449h29.014v-1.996h-29.014c0.004,0.332,0.014,0.664,0.014,0.998S243.338,153.115,243.334,153.449z"/>
			<path d="M256.791,93.314l-0.998-1.729l-25.131,14.506c0.338,0.572,0.672,1.148,1,1.729L256.791,93.314z"/>
			<path d="M213.211,49.004l-1.729-0.998l-14.506,25.129c0.58,0.328,1.156,0.662,1.729,1.002L213.211,49.004z"/>
		</g>
	</g>
	<rect fill="none" width="305" height="305"/>
</g>
</svg>
