<?xml version="1.0" encoding="utf-8"?>
<!-- Generator: Adobe Illustrator 13.0.2, SVG Export Plug-In . SVG Version: 6.00 Build 14948)  -->
<!DOCTYPE svg PUBLIC "-//W3C//DTD SVG 1.1//EN" "http://www.w3.org/Graphics/SVG/1.1/DTD/svg11.dtd">
<svg version="1.1" id="Layer_1" xmlns="http://www.w3.org/2000/svg" xmlns:xlink="http://www.w3.org/1999/xlink" x="0px" y="0px"
	 width="305px" height="305px" viewBox="0 0 305 305" enable-background="new 0 0 305 305" xml:space="preserve">
<g>
	<rect fill="none" width="305" height="305"/>
	<g>
		<g>
			
				<radialGradient id="SVGID_1_" cx="919.3667" cy="344.2178" r="28.1406" gradientTransform="matrix(0.9002 0 0 1.1493 -675.2947 -286.7092)" gradientUnits="userSpaceOnUse">
				<stop  offset="0" style="stop-color:#00B9FF"/>
				<stop  offset="0.2458" style="stop-color:#00A0EE"/>
				<stop  offset="0.563" style="stop-color:#0087DC"/>
				<stop  offset="0.7527" style="stop-color:#007DD5"/>
			</radialGradient>
			<path fill="url(#SVGID_1_)" d="M131.613,127.092c-5.421-4.252-9.273-10.607-9.293-18.191l0,0
				c0.02-7.58,3.872-13.938,9.293-18.186l0,0c5.464-4.295,12.725-6.807,20.707-6.814l0,0c7.984,0.008,15.246,2.52,20.708,6.814l0,0
				c5.422,4.248,9.273,10.605,9.291,18.186l0,0c-0.018,7.584-3.869,13.939-9.291,18.191l0,0c-5.463,4.293-12.725,6.805-20.708,6.809
				l0,0C144.338,133.896,137.077,131.385,131.613,127.092L131.613,127.092z"/>
			<g>
				<radialGradient id="SVGID_2_" cx="152.3921" cy="108.3408" r="19.5642" gradientUnits="userSpaceOnUse">
					<stop  offset="0" style="stop-color:#26A9E0"/>
					<stop  offset="0.1881" style="stop-color:#2398D4"/>
					<stop  offset="0.5414" style="stop-color:#1D7FC2"/>
					<stop  offset="0.7527" style="stop-color:#1B75BB"/>
				</radialGradient>
				<polygon fill="url(#SVGID_2_)" points="141.404,120.869 141.404,94.438 142.739,94.438 142.739,120.869 141.404,120.869 				"/>
				<radialGradient id="SVGID_3_" cx="152.3921" cy="108.3408" r="19.5643" gradientUnits="userSpaceOnUse">
					<stop  offset="0" style="stop-color:#26A9E0"/>
					<stop  offset="0.1881" style="stop-color:#2398D4"/>
					<stop  offset="0.5414" style="stop-color:#1D7FC2"/>
					<stop  offset="0.7527" style="stop-color:#1B75BB"/>
				</radialGradient>
				<polygon fill="url(#SVGID_3_)" points="146.528,120.869 146.528,94.438 147.862,94.438 147.862,120.869 146.528,120.869 				"/>
				<radialGradient id="SVGID_4_" cx="152.3931" cy="108.3408" r="19.5634" gradientUnits="userSpaceOnUse">
					<stop  offset="0" style="stop-color:#26A9E0"/>
					<stop  offset="0.1881" style="stop-color:#2398D4"/>
					<stop  offset="0.5414" style="stop-color:#1D7FC2"/>
					<stop  offset="0.7527" style="stop-color:#1B75BB"/>
				</radialGradient>
				<polygon fill="url(#SVGID_4_)" points="156.78,120.869 156.78,94.438 158.111,94.438 158.111,120.869 156.78,120.869 				"/>
				<radialGradient id="SVGID_5_" cx="152.3916" cy="108.3408" r="19.5642" gradientUnits="userSpaceOnUse">
					<stop  offset="0" style="stop-color:#26A9E0"/>
					<stop  offset="0.1881" style="stop-color:#2398D4"/>
					<stop  offset="0.5414" style="stop-color:#1D7FC2"/>
					<stop  offset="0.7527" style="stop-color:#1B75BB"/>
				</radialGradient>
				<polygon fill="url(#SVGID_5_)" points="161.902,120.869 161.902,94.438 163.238,94.438 163.238,120.869 161.902,120.869 				"/>
				<radialGradient id="SVGID_6_" cx="152.3921" cy="108.3408" r="19.5643" gradientUnits="userSpaceOnUse">
					<stop  offset="0" style="stop-color:#26A9E0"/>
					<stop  offset="0.1881" style="stop-color:#2398D4"/>
					<stop  offset="0.5414" style="stop-color:#1D7FC2"/>
					<stop  offset="0.7527" style="stop-color:#1B75BB"/>
				</radialGradient>
				<polygon fill="url(#SVGID_6_)" points="151.652,120.869 151.652,94.438 152.986,94.438 152.986,120.869 151.652,120.869 				"/>
			</g>
		</g>
	</g>
</g>
</svg>
