<?xml version="1.0" encoding="utf-8"?>
<!-- Generator: Adobe Illustrator 13.0.2, SVG Export Plug-In . SVG Version: 6.00 Build 14948)  -->
<!DOCTYPE svg PUBLIC "-//W3C//DTD SVG 1.1//EN" "http://www.w3.org/Graphics/SVG/1.1/DTD/svg11.dtd">
<svg version="1.1" id="Layer_1" xmlns="http://www.w3.org/2000/svg" xmlns:xlink="http://www.w3.org/1999/xlink" x="0px" y="0px"
	 width="305px" height="305px" viewBox="0 0 305 305" enable-background="new 0 0 305 305" xml:space="preserve">
<g>
	<g>
		<g>
			<path d="M151.501,243.486v29.012h1.999v-29.012c-0.332,0.004-0.666,0.014-1,0.014C152.166,243.5,151.834,243.49,151.501,243.486z
				"/>
			<path d="M211.632,256.945l1.734-1l-14.508-25.133c-0.572,0.34-1.15,0.676-1.73,1.002L211.632,256.945z"/>
			<path d="M255.945,213.365l1-1.73l-25.129-14.506c-0.328,0.58-0.662,1.156-1.002,1.729L255.945,213.365z"/>
			<path d="M243.488,153.5h29.014v-2h-29.014c0.004,0.332,0.012,0.664,0.012,1C243.5,152.834,243.492,153.166,243.488,153.5z"/>
			<path d="M256.947,93.365l-1-1.732l-25.133,14.508c0.34,0.572,0.674,1.148,1.002,1.73L256.947,93.365z"/>
			<path d="M213.365,49.053l-1.73-1l-14.506,25.131c0.58,0.328,1.158,0.662,1.73,1.002L213.365,49.053z"/>
			<path d="M153.5,61.512V32.5h-1.999v29.012c0.333-0.004,0.665-0.012,0.999-0.012C152.833,61.5,153.167,61.508,153.5,61.512z"/>
			<path d="M93.366,48.053l-1.731,1l14.507,25.133c0.572-0.34,1.149-0.674,1.73-1.002L93.366,48.053z"/>
			<path d="M49.056,91.633l-1,1.732l25.129,14.504c0.328-0.58,0.662-1.156,1.002-1.73L49.056,91.633z"/>
			<path d="M61.513,151.5H32.499v2h29.014c-0.005-0.334-0.013-0.666-0.013-1C61.5,152.164,61.508,151.832,61.513,151.5z"/>
			<path d="M48.056,211.635l0.999,1.73l25.132-14.508c-0.34-0.572-0.674-1.148-1.001-1.729L48.056,211.635z"/>
			<path d="M91.634,255.945l1.731,1l14.506-25.131c-0.581-0.328-1.157-0.662-1.73-1.002L91.634,255.945z"/>
			<path d="M123.222,41.303l-0.967,0.256l6.205,23.156c0.323-0.088,0.643-0.176,0.965-0.26L123.222,41.303z"/>
			<path d="M88.513,87.803L71.545,70.836l-0.707,0.709l16.967,16.967C88.039,88.273,88.275,88.037,88.513,87.803z"/>
			<path d="M41.561,122.256l-0.26,0.967l23.154,6.203c0.084-0.322,0.173-0.645,0.261-0.965L41.561,122.256z"/>
			<path d="M41.301,181.779l0.26,0.965l23.155-6.205c-0.087-0.32-0.176-0.643-0.261-0.965L41.301,181.779z"/>
			<path d="M87.805,216.486l-16.967,16.967l0.707,0.709l16.968-16.967C88.275,216.961,88.039,216.725,87.805,216.486z"/>
			<path d="M122.257,263.441l0.966,0.26l6.204-23.156c-0.322-0.084-0.644-0.174-0.965-0.262L122.257,263.441z"/>
			<path d="M181.777,263.701l0.967-0.26l-6.205-23.158c-0.322,0.088-0.643,0.178-0.967,0.262L181.777,263.701z"/>
			<path d="M216.488,217.195l16.967,16.967l0.707-0.709l-16.967-16.965C216.958,216.725,216.724,216.961,216.488,217.195z"/>
			<path d="M263.439,182.744l0.26-0.965l-23.154-6.205c-0.084,0.322-0.174,0.645-0.262,0.965L263.439,182.744z"/>
			<path d="M263.699,123.223l-0.26-0.967l-23.154,6.205c0.088,0.32,0.176,0.643,0.262,0.965L263.699,123.223z"/>
			<path d="M217.197,88.512l16.967-16.967l-0.709-0.709l-16.967,16.967C216.726,88.037,216.96,88.273,217.197,88.512z"/>
			<path d="M182.744,41.559l-0.967-0.256l-6.203,23.152c0.324,0.084,0.645,0.172,0.967,0.26L182.744,41.559z"/>
		</g>
		<g>
			<g>
				<g>
					<path d="M286.064,149.824c0.609-0.563,1.41-0.844,2.402-0.844c1.359,0,2.367,0.4,3.023,1.201s0.984,2.115,0.984,3.943
						c0,2.195-0.389,3.803-1.166,4.822s-1.963,1.529-3.557,1.529c-1.578,0-2.781-0.531-3.609-1.594s-1.242-3.211-1.242-6.445
						c0-3.359,0.533-5.811,1.6-7.354s2.67-2.314,4.811-2.314c0.711,0,1.422,0.055,2.133,0.164v1.734
						c-0.75-0.133-1.406-0.199-1.969-0.199c-1.023,0-1.84,0.457-2.449,1.371S286.095,148.082,286.064,149.824z M287.728,158.777
						c0.555,0,0.957-0.289,1.207-0.867s0.375-1.801,0.375-3.668c0-1.188-0.1-2.098-0.299-2.73s-0.619-0.949-1.26-0.949
						c-0.594,0-1.023,0.25-1.289,0.75s-0.398,1.387-0.398,2.66c0,2.172,0.133,3.516,0.398,4.031S287.15,158.777,287.728,158.777z"/>
				</g>
			</g>
			<g>
				<g>
					<path d="M274.648,93.879h-1.371V97.5h-3.164v-3.621h-6.117v-1.582l7.031-12.246h2.25v12.246h1.371V93.879z M270.113,84.867
						l-4.055,7.43h4.055V84.867z"/>
				</g>
			</g>
			<g>
				<g>
					<path d="M272.292,221.717c0.75,0.367,1.314,0.891,1.693,1.57s0.568,1.602,0.568,2.766c0,1.625-0.428,2.844-1.283,3.656
						s-2.135,1.219-3.838,1.219c-1.695,0-2.967-0.406-3.814-1.219s-1.271-2.031-1.271-3.656c0-1.164,0.18-2.088,0.539-2.771
						s0.926-1.213,1.699-1.588c-1.336-0.789-2.004-2.117-2.004-3.984c0-1.477,0.404-2.586,1.213-3.328s2.021-1.113,3.639-1.113
						s2.836,0.371,3.656,1.113s1.23,1.852,1.23,3.328C274.32,219.639,273.644,220.975,272.292,221.717z M269.433,229.346
						c0.68,0,1.174-0.227,1.482-0.68s0.463-1.41,0.463-2.871c0-1.125-0.146-1.947-0.439-2.467s-0.795-0.779-1.506-0.779
						c-0.734,0-1.236,0.256-1.506,0.768s-0.404,1.338-0.404,2.479c0,1.281,0.148,2.193,0.445,2.736S268.753,229.346,269.433,229.346
						z M269.433,220.967c0.617,0,1.059-0.232,1.324-0.697s0.398-1.232,0.398-2.303c0-1.266-0.135-2.102-0.404-2.508
						s-0.725-0.609-1.365-0.609c-0.547,0-0.957,0.262-1.23,0.785s-0.41,1.309-0.41,2.355c0,1.133,0.137,1.912,0.41,2.338
						S268.855,220.967,269.433,220.967z"/>
				</g>
			</g>
			<g>
				<g>
					<path d="M221.488,277.334h-9.492v-1.582h3.164v-13.184l-3.164,0.703v-1.582l4.746-1.805h1.582v15.867h3.164V277.334z"/>
					<path d="M228.144,259.768c1.383,0,2.412,0.387,3.088,1.16s1.105,1.752,1.289,2.936s0.275,2.697,0.275,4.541
						c0,2.547-0.172,4.412-0.516,5.596s-0.869,2.051-1.576,2.602s-1.611,0.826-2.713,0.826c-1.422,0-2.473-0.424-3.152-1.271
						s-1.1-1.877-1.26-3.088s-0.24-2.766-0.24-4.664c0-3.242,0.402-5.492,1.207-6.75S226.55,259.768,228.144,259.768z
						 M228.062,275.846c0.695,0,1.131-0.496,1.307-1.488s0.264-2.977,0.264-5.953c0-2.031-0.037-3.525-0.111-4.482
						s-0.219-1.625-0.434-2.004s-0.557-0.568-1.025-0.568c-0.648,0-1.07,0.457-1.266,1.371s-0.293,2.809-0.293,5.684
						c0,3.117,0.09,5.137,0.27,6.059S227.382,275.846,228.062,275.846z"/>
				</g>
			</g>
			<g>
				<g>
					<path d="M34.605,230.834h-9.492v-1.582h3.164v-13.184l-3.164,0.703v-1.582l4.746-1.805h1.582v15.867h3.164V230.834z"/>
					<path d="M39.621,220.322c0.609-0.563,1.41-0.844,2.402-0.844c1.359,0,2.367,0.4,3.023,1.201s0.984,2.115,0.984,3.943
						c0,2.195-0.389,3.803-1.166,4.822s-1.963,1.529-3.557,1.529c-1.578,0-2.781-0.531-3.609-1.594s-1.242-3.211-1.242-6.445
						c0-3.359,0.533-5.811,1.6-7.354s2.67-2.314,4.811-2.314c0.711,0,1.422,0.055,2.133,0.164v1.734
						c-0.75-0.133-1.406-0.199-1.969-0.199c-1.023,0-1.84,0.457-2.449,1.371S39.652,218.58,39.621,220.322z M41.285,229.275
						c0.555,0,0.957-0.289,1.207-0.867s0.375-1.801,0.375-3.668c0-1.188-0.1-2.098-0.299-2.73s-0.619-0.949-1.26-0.949
						c-0.594,0-1.023,0.25-1.289,0.75s-0.398,1.387-0.398,2.66c0,2.172,0.133,3.516,0.398,4.031S40.707,229.275,41.285,229.275z"/>
				</g>
			</g>
			<g>
				<g>
					<path d="M15.021,160.336H5.529v-1.582h3.164V145.57l-3.164,0.703v-1.582l4.746-1.805h1.582v15.867h3.164V160.336z"/>
					<path d="M24.432,151.219c0.75,0.367,1.314,0.891,1.693,1.57s0.568,1.602,0.568,2.766c0,1.625-0.428,2.844-1.283,3.656
						s-2.135,1.219-3.838,1.219c-1.695,0-2.967-0.406-3.814-1.219s-1.271-2.031-1.271-3.656c0-1.164,0.18-2.088,0.539-2.771
						s0.926-1.213,1.699-1.588c-1.336-0.789-2.004-2.117-2.004-3.984c0-1.477,0.404-2.586,1.213-3.328s2.021-1.113,3.639-1.113
						s2.836,0.371,3.656,1.113s1.23,1.852,1.23,3.328C26.459,149.141,25.783,150.477,24.432,151.219z M21.572,158.848
						c0.679,0,1.174-0.227,1.482-0.68s0.463-1.41,0.463-2.871c0-1.125-0.146-1.947-0.439-2.467s-0.795-0.779-1.506-0.779
						c-0.734,0-1.236,0.256-1.506,0.768s-0.404,1.338-0.404,2.479c0,1.281,0.148,2.193,0.445,2.736S20.893,158.848,21.572,158.848z
						 M21.572,150.469c0.617,0,1.059-0.232,1.324-0.697s0.398-1.232,0.398-2.303c0-1.266-0.135-2.102-0.404-2.508
						s-0.725-0.609-1.365-0.609c-0.547,0-0.957,0.262-1.23,0.785s-0.41,1.309-0.41,2.355c0,1.133,0.137,1.912,0.41,2.338
						S20.994,150.469,21.572,150.469z"/>
				</g>
			</g>
			<g>
				<g>
					<path d="M34.395,97.5H24.75v-1.371c0-1.336,0.258-2.561,0.773-3.674s1.594-2.393,3.234-3.838
						c0.969-0.867,1.621-1.604,1.957-2.209s0.504-1.197,0.504-1.775c0-0.898-0.25-1.623-0.75-2.174s-1.176-0.826-2.027-0.826
						c-0.68,0-1.832,0.191-3.457,0.574v-1.723c1.531-0.367,2.875-0.551,4.031-0.551c1.648,0,2.957,0.414,3.926,1.242
						s1.453,1.988,1.453,3.48c0,0.867-0.199,1.734-0.598,2.602s-1.332,1.945-2.801,3.234c-0.758,0.656-1.352,1.215-1.781,1.676
						s-0.791,1.002-1.084,1.623s-0.439,1.33-0.439,2.127h6.703V97.5z"/>
					<path d="M41.262,79.934c1.383,0,2.412,0.387,3.088,1.16s1.105,1.752,1.289,2.936s0.275,2.697,0.275,4.541
						c0,2.547-0.172,4.412-0.516,5.596s-0.869,2.051-1.576,2.602s-1.611,0.826-2.713,0.826c-1.422,0-2.473-0.424-3.152-1.271
						s-1.1-1.877-1.26-3.088s-0.24-2.766-0.24-4.664c0-3.242,0.402-5.492,1.207-6.75S39.668,79.934,41.262,79.934z M41.18,96.012
						c0.695,0,1.131-0.496,1.307-1.488s0.264-2.977,0.264-5.953c0-2.031-0.037-3.525-0.111-4.482s-0.219-1.625-0.434-2.004
						s-0.557-0.568-1.025-0.568c-0.648,0-1.07,0.457-1.266,1.371s-0.293,2.809-0.293,5.684c0,3.117,0.09,5.137,0.27,6.059
						S40.5,96.012,41.18,96.012z"/>
				</g>
			</g>
			<g>
				<g>
					<path d="M85.561,45.166h-9.645v-1.371c0-1.336,0.258-2.561,0.773-3.674s1.594-2.393,3.234-3.838
						c0.969-0.867,1.621-1.604,1.957-2.209s0.504-1.197,0.504-1.775c0-0.898-0.25-1.623-0.75-2.174s-1.176-0.826-2.027-0.826
						c-0.68,0-1.832,0.191-3.457,0.574V28.15c1.531-0.367,2.875-0.551,4.031-0.551c1.648,0,2.957,0.414,3.926,1.242
						s1.453,1.988,1.453,3.48c0,0.867-0.199,1.734-0.598,2.602s-1.332,1.945-2.801,3.234c-0.758,0.656-1.352,1.215-1.781,1.676
						s-0.791,1.002-1.084,1.623s-0.439,1.33-0.439,2.127h6.703V45.166z"/>
					<path d="M97.033,45.166h-9.645v-1.371c0-1.336,0.258-2.561,0.773-3.674s1.594-2.393,3.234-3.838
						c0.969-0.867,1.621-1.604,1.957-2.209s0.504-1.197,0.504-1.775c0-0.898-0.25-1.623-0.75-2.174s-1.176-0.826-2.027-0.826
						c-0.68,0-1.832,0.191-3.457,0.574V28.15c1.531-0.367,2.875-0.551,4.031-0.551c1.648,0,2.957,0.414,3.926,1.242
						s1.453,1.988,1.453,3.48c0,0.867-0.199,1.734-0.598,2.602s-1.332,1.945-2.801,3.234c-0.758,0.656-1.352,1.215-1.781,1.676
						s-0.791,1.002-1.084,1.623s-0.439,1.33-0.439,2.127h6.703V45.166z"/>
				</g>
			</g>
			<g>
				<g>
					<path d="M151.445,25.834h-9.645v-1.371c0-1.336,0.258-2.561,0.773-3.674s1.594-2.393,3.234-3.838
						c0.969-0.867,1.621-1.604,1.957-2.209s0.504-1.197,0.504-1.775c0-0.898-0.25-1.623-0.75-2.174s-1.176-0.826-2.027-0.826
						c-0.68,0-1.832,0.191-3.457,0.574V8.818c1.531-0.367,2.875-0.551,4.031-0.551c1.648,0,2.957,0.414,3.926,1.242
						s1.453,1.988,1.453,3.48c0,0.867-0.199,1.734-0.598,2.602s-1.332,1.945-2.801,3.234c-0.758,0.656-1.352,1.215-1.781,1.676
						s-0.791,1.002-1.084,1.623s-0.439,1.33-0.439,2.127h6.703V25.834z"/>
					<path d="M163.421,22.213h-1.371v3.621h-3.164v-3.621h-6.117v-1.582L159.8,8.385h2.25v12.246h1.371V22.213z M158.886,13.201
						l-4.055,7.43h4.055V13.201z"/>
				</g>
			</g>
			<g>
				<g>
					<path d="M85.772,277.334H76.28v-1.582h3.164v-13.184l-3.164,0.703v-1.582l4.746-1.805h1.582v15.867h3.164V277.334z"/>
					<path d="M97.538,273.713h-1.371v3.621h-3.164v-3.621h-6.117v-1.582l7.031-12.246h2.25v12.246h1.371V273.713z M93.003,264.701
						l-4.055,7.43h4.055V264.701z"/>
				</g>
			</g>
			<g>
				<g>
					<path d="M151.656,294.832h-9.492v-1.582h3.164v-13.184l-3.164,0.703v-1.582l4.746-1.805h1.582v15.867h3.164V294.832z"/>
					<path d="M162.917,294.832h-9.645v-1.371c0-1.336,0.258-2.561,0.773-3.674s1.594-2.393,3.234-3.838
						c0.969-0.867,1.621-1.604,1.957-2.209s0.504-1.197,0.504-1.775c0-0.898-0.25-1.623-0.75-2.174s-1.176-0.826-2.027-0.826
						c-0.68,0-1.832,0.191-3.457,0.574v-1.723c1.531-0.367,2.875-0.551,4.031-0.551c1.648,0,2.957,0.414,3.926,1.242
						s1.453,1.988,1.453,3.48c0,0.867-0.199,1.734-0.598,2.602s-1.332,1.945-2.801,3.234c-0.758,0.656-1.352,1.215-1.781,1.676
						s-0.791,1.002-1.084,1.623s-0.439,1.33-0.439,2.127h6.703V294.832z"/>
				</g>
			</g>
			<g>
				<g>
					<path d="M227.013,45.166h-9.645v-1.371c0-1.336,0.258-2.561,0.773-3.674s1.594-2.393,3.234-3.838
						c0.969-0.867,1.621-1.604,1.957-2.209s0.504-1.197,0.504-1.775c0-0.898-0.25-1.623-0.75-2.174s-1.176-0.826-2.027-0.826
						c-0.68,0-1.832,0.191-3.457,0.574V28.15c1.531-0.367,2.875-0.551,4.031-0.551c1.648,0,2.957,0.414,3.926,1.242
						s1.453,1.988,1.453,3.48c0,0.867-0.199,1.734-0.598,2.602s-1.332,1.945-2.801,3.234c-0.758,0.656-1.352,1.215-1.781,1.676
						s-0.791,1.002-1.084,1.623s-0.439,1.33-0.439,2.127h6.703V45.166z"/>
				</g>
			</g>
		</g>
	</g>
	<rect fill="none" width="305" height="305"/>
</g>
</svg>
