<?xml version="1.0" encoding="utf-8"?>
<!-- Generator: Adobe Illustrator 13.0.2, SVG Export Plug-In . SVG Version: 6.00 Build 14948)  -->
<!DOCTYPE svg PUBLIC "-//W3C//DTD SVG 1.1//EN" "http://www.w3.org/Graphics/SVG/1.1/DTD/svg11.dtd">
<svg version="1.1" id="Layer_1" xmlns="http://www.w3.org/2000/svg" xmlns:xlink="http://www.w3.org/1999/xlink" x="0px" y="0px"
	 width="292px" height="292px" viewBox="0 0 292 292" enable-background="new 0 0 292 292" xml:space="preserve">
<g>
	<g>
		<linearGradient id="SVGID_1_" gradientUnits="userSpaceOnUse" x1="144.9668" y1="2.0586" x2="147.0384" y2="290.504">
			<stop  offset="0" style="stop-color:#00B9FF"/>
			<stop  offset="0.2458" style="stop-color:#00A0EE"/>
			<stop  offset="0.563" style="stop-color:#0087DC"/>
			<stop  offset="0.7527" style="stop-color:#007DD5"/>
		</linearGradient>
		<path fill="url(#SVGID_1_)" d="M291,146.002C291,226.086,226.082,291,146,291S1,226.086,1,146.002C1,65.916,65.918,1,146,1
			S291,65.916,291,146.002z"/>
		<g>
			<polygon points="145.717,259.359 145.717,29.361 147.715,29.361 147.715,259.359 145.717,259.359 			"/>
			<polygon points="157.246,249.334 135.191,39.492 136.186,39.387 158.242,249.23 157.246,249.334 			"/>
			<polygon points="135.191,249.23 157.246,39.387 158.242,39.492 136.186,249.334 135.191,249.23 			"/>
			<polygon points="124.293,247.451 168.162,41.063 169.141,41.271 125.271,247.658 124.293,247.451 			"/>
			<polygon points="113.639,244.543 178.842,43.871 179.793,44.18 114.592,244.852 113.639,244.543 			"/>
			<polygon points="103.348,240.537 189.17,47.779 190.084,48.186 104.264,240.943 103.348,240.537 			"/>
			<polygon points="84.301,229.418 208.322,58.717 209.133,59.305 85.109,230.006 84.301,229.418 			"/>
			<polygon points="75.752,222.428 216.938,65.625 217.682,66.295 76.496,223.098 75.752,222.428 			"/>
			<polygon points="67.98,214.584 224.783,73.396 225.453,74.141 68.65,215.326 67.98,214.584 			"/>
			<polygon points="61.07,205.969 231.773,81.945 232.361,82.756 61.66,206.777 61.07,205.969 			"/>
			<polygon points="50.135,186.814 242.893,100.994 243.299,101.908 50.541,187.729 50.135,186.814 			"/>
			<polygon points="46.227,176.486 246.898,111.285 247.207,112.236 46.535,177.439 46.227,176.486 			"/>
			<polygon points="43.418,165.807 249.807,121.938 250.016,122.916 43.627,166.785 43.418,165.807 			"/>
			<polygon points="41.742,154.893 251.586,132.836 251.691,133.832 41.848,155.887 41.742,154.893 			"/>
			<polygon points="41.848,132.836 251.691,154.893 251.586,155.887 41.742,133.832 41.848,132.836 			"/>
			<polygon points="43.627,121.938 250.016,165.807 249.807,166.785 43.418,122.916 43.627,121.938 			"/>
			<polygon points="46.533,111.285 247.207,176.488 246.898,177.439 46.227,112.236 46.533,111.285 			"/>
			<polygon points="50.541,100.994 243.299,186.816 242.893,187.73 50.135,101.908 50.541,100.994 			"/>
			<polygon points="61.66,81.945 232.361,205.969 231.773,206.777 61.072,82.756 61.66,81.945 			"/>
			<polygon points="68.65,73.396 225.453,214.584 224.783,215.326 67.979,74.141 68.65,73.396 			"/>
			<polygon points="76.494,65.625 217.682,222.43 216.938,223.098 75.752,66.295 76.494,65.625 			"/>
			<polygon points="85.109,58.715 209.133,229.42 208.322,230.008 84.301,59.305 85.109,58.715 			"/>
			<polygon points="168.162,247.658 124.293,41.271 125.271,41.063 169.141,247.451 168.162,247.658 			"/>
			<polygon points="178.842,244.852 113.639,44.18 114.59,43.871 179.793,244.543 178.842,244.852 			"/>
			<polygon points="189.17,240.943 103.348,48.186 104.262,47.779 190.084,240.537 189.17,240.943 			"/>
			<polygon points="88.35,243.453 203.35,44.27 205.084,45.268 90.082,244.453 88.35,243.453 			"/>
			<polygon points="88.35,45.268 90.082,44.27 205.084,243.453 203.35,244.453 88.35,45.268 			"/>
			<polygon points="31.717,145.361 31.717,143.361 261.719,143.361 261.719,145.361 31.717,145.361 			"/>
			<polygon points="46.623,87.729 47.625,85.996 246.811,200.996 245.811,202.725 46.623,87.729 			"/>
			<polygon points="46.623,200.996 245.811,85.996 246.811,87.729 47.625,202.725 46.623,200.996 			"/>
			<g>
				<g>
					<path fill="#F2F2F2" d="M135.988,281.377c0.602,0.383,1.992,0.984,3.457,0.984c2.713,0,3.553-1.729,3.527-3.025
						c-0.023-2.184-1.992-3.119-4.031-3.119h-1.176v-1.586h1.176c1.535,0,3.48-0.791,3.48-2.639c0-1.248-0.793-2.354-2.736-2.354
						c-1.248,0-2.449,0.553-3.121,1.033l-0.551-1.537c0.814-0.6,2.4-1.199,4.08-1.199c3.072,0,4.465,1.824,4.465,3.721
						c0,1.607-0.961,2.975-2.881,3.672v0.047c1.92,0.385,3.48,1.824,3.48,4.01c0,2.496-1.945,4.68-5.689,4.68
						c-1.752,0-3.287-0.553-4.057-1.057L135.988,281.377z"/>
					<path fill="#F2F2F2" d="M158.166,275.832c0,5.305-1.969,8.232-5.426,8.232c-3.047,0-5.111-2.855-5.16-8.016
						c0-5.234,2.256-8.113,5.424-8.113C156.293,267.936,158.166,270.863,158.166,275.832z M149.693,276.072
						c0,4.057,1.248,6.359,3.168,6.359c2.16,0,3.191-2.52,3.191-6.504c0-3.84-0.984-6.361-3.168-6.361
						C151.037,269.566,149.693,271.824,149.693,276.072z"/>
				</g>
				<g>
					<path fill="#F2F2F2" d="M268.225,137.771h-0.047l-2.713,1.465l-0.408-1.609l3.408-1.824h1.801v15.602h-2.041V137.771z"/>
					<path fill="#F2F2F2" d="M285.266,137.58h-5.953l-0.6,4.008c0.359-0.047,0.695-0.096,1.271-0.096c1.201,0,2.4,0.264,3.361,0.84
						c1.225,0.695,2.232,2.041,2.232,4.008c0,3.049-2.426,5.33-5.809,5.33c-1.705,0-3.145-0.48-3.889-0.961l0.527-1.607
						c0.648,0.383,1.92,0.863,3.336,0.863c1.992,0,3.697-1.297,3.697-3.385c-0.023-2.016-1.369-3.455-4.488-3.455
						c-0.889,0-1.584,0.096-2.16,0.168l1.008-7.49h7.465V137.58z"/>
				</g>
				<g>
					<path fill="#F2F2F2" d="M13.67,151.404v-4.248H6.422v-1.393l6.959-9.961h2.281v9.697h2.184v1.656h-2.184v4.248H13.67z
						 M13.67,145.5v-5.207c0-0.816,0.023-1.633,0.072-2.449H13.67c-0.48,0.912-0.865,1.584-1.297,2.305l-3.816,5.305v0.047H13.67z"
						/>
					<path fill="#F2F2F2" d="M28.766,137.58h-5.953l-0.6,4.008c0.359-0.047,0.695-0.096,1.271-0.096c1.201,0,2.4,0.264,3.361,0.84
						c1.225,0.695,2.232,2.041,2.232,4.008c0,3.049-2.426,5.33-5.809,5.33c-1.705,0-3.145-0.48-3.889-0.961l0.527-1.607
						c0.648,0.383,1.92,0.863,3.336,0.863c1.992,0,3.697-1.297,3.697-3.385c-0.023-2.016-1.369-3.455-4.488-3.455
						c-0.889,0-1.584,0.096-2.16,0.168l1.008-7.49h7.465V137.58z"/>
				</g>
				<g>
					<path fill="#F2F2F2" d="M152.01,15.832c0,5.305-1.969,8.232-5.424,8.232c-3.049,0-5.113-2.855-5.16-8.016
						c0-5.234,2.256-8.113,5.424-8.113C150.139,7.936,152.01,10.863,152.01,15.832z M143.537,16.072
						c0,4.057,1.248,6.359,3.168,6.359c2.16,0,3.193-2.52,3.193-6.504c0-3.84-0.984-6.361-3.168-6.361
						C144.881,9.566,143.537,11.824,143.537,16.072z"/>
				</g>
				<g>
					<path fill="#F2F2F2" d="M201.344,266.35v-1.297l1.656-1.607c3.984-3.793,5.783-5.809,5.809-8.16
						c0-1.584-0.77-3.049-3.098-3.049c-1.416,0-2.592,0.721-3.313,1.32l-0.672-1.488c1.08-0.912,2.617-1.584,4.418-1.584
						c3.359,0,4.775,2.305,4.775,4.535c0,2.881-2.088,5.209-5.377,8.377l-1.248,1.152v0.049h7.01v1.752H201.344z"/>
					<path fill="#F2F2F2" d="M222.967,252.523h-5.951l-0.6,4.01c0.359-0.049,0.695-0.098,1.271-0.098c1.199,0,2.4,0.266,3.359,0.842
						c1.225,0.695,2.232,2.039,2.232,4.008c0,3.049-2.424,5.328-5.809,5.328c-1.703,0-3.145-0.48-3.889-0.961l0.529-1.607
						c0.648,0.385,1.92,0.865,3.336,0.865c1.992,0,3.695-1.297,3.695-3.385c-0.023-2.018-1.367-3.457-4.488-3.457
						c-0.887,0-1.584,0.096-2.16,0.168l1.01-7.488h7.463V252.523z"/>
				</g>
				<g>
					<path fill="#F2F2F2" d="M252.215,78.574h-0.047l-2.713,1.463l-0.408-1.607l3.408-1.824h1.801v15.602h-2.041V78.574z"/>
					<path fill="#F2F2F2" d="M270.313,84.238c0,5.305-1.969,8.232-5.426,8.232c-3.047,0-5.111-2.855-5.16-8.016
						c0-5.234,2.256-8.113,5.424-8.113C268.439,76.342,270.313,79.27,270.313,84.238z M261.84,84.479
						c0,4.057,1.248,6.359,3.168,6.359c2.16,0,3.191-2.52,3.191-6.504c0-3.84-0.984-6.361-3.168-6.361
						C263.184,77.973,261.84,80.23,261.84,84.479z"/>
				</g>
				<g>
					<path fill="#F2F2F2" d="M28.525,216.248V212h-7.248v-1.393l6.959-9.961h2.281v9.697h2.184V212h-2.184v4.248H28.525z
						 M28.525,210.344v-5.209c0-0.816,0.023-1.633,0.072-2.447h-0.072c-0.48,0.912-0.865,1.584-1.297,2.303l-3.816,5.305v0.049
						H28.525z"/>
					<path fill="#F2F2F2" d="M44.678,208.279c0,5.305-1.969,8.232-5.426,8.232c-3.047,0-5.111-2.855-5.16-8.016
						c0-5.234,2.256-8.113,5.424-8.113C42.805,200.383,44.678,203.311,44.678,208.279z M36.205,208.52
						c0,4.057,1.248,6.359,3.168,6.359c2.16,0,3.191-2.52,3.191-6.504c0-3.84-0.984-6.361-3.168-6.361
						C37.549,202.014,36.205,204.271,36.205,208.52z"/>
				</g>
				<g>
					<path fill="#F2F2F2" d="M73.986,31.451h-5.951l-0.602,4.008c0.361-0.047,0.697-0.096,1.273-0.096c1.199,0,2.4,0.264,3.359,0.84
						c1.225,0.695,2.232,2.041,2.232,4.008c0,3.049-2.424,5.33-5.809,5.33c-1.703,0-3.145-0.48-3.889-0.961l0.529-1.607
						c0.648,0.383,1.92,0.863,3.336,0.863c1.992,0,3.695-1.297,3.695-3.385c-0.023-2.016-1.367-3.455-4.488-3.455
						c-0.887,0-1.584,0.096-2.16,0.168l1.01-7.49h7.463V31.451z"/>
					<path fill="#F2F2F2" d="M86.299,31.451h-5.953l-0.6,4.008c0.359-0.047,0.695-0.096,1.271-0.096c1.201,0,2.4,0.264,3.361,0.84
						c1.225,0.695,2.232,2.041,2.232,4.008c0,3.049-2.426,5.33-5.809,5.33c-1.705,0-3.145-0.48-3.889-0.961l0.527-1.607
						c0.648,0.383,1.92,0.863,3.336,0.863c1.992,0,3.697-1.297,3.697-3.385c-0.023-2.016-1.369-3.455-4.488-3.455
						c-0.889,0-1.584,0.096-2.16,0.168l1.008-7.49h7.465V31.451z"/>
				</g>
				<g>
					<path fill="#F2F2F2" d="M248.828,216.248v-1.297l1.656-1.607c3.984-3.793,5.783-5.809,5.809-8.162
						c0-1.584-0.77-3.047-3.098-3.047c-1.416,0-2.592,0.719-3.313,1.32l-0.672-1.488c1.08-0.912,2.617-1.584,4.418-1.584
						c3.359,0,4.775,2.303,4.775,4.535c0,2.881-2.088,5.209-5.377,8.377l-1.248,1.152v0.049h7.01v1.752H248.828z"/>
					<path fill="#F2F2F2" d="M271.508,208.279c0,5.305-1.969,8.232-5.424,8.232c-3.049,0-5.113-2.857-5.16-8.018
						c0-5.232,2.256-8.111,5.424-8.111C269.637,200.383,271.508,203.311,271.508,208.279z M263.035,208.52
						c0,4.055,1.248,6.359,3.168,6.359c2.16,0,3.193-2.52,3.193-6.504c0-3.84-0.984-6.361-3.168-6.361
						C264.379,202.014,263.035,204.27,263.035,208.52z"/>
				</g>
				<g>
					<path fill="#F2F2F2" d="M214.293,25.451h-5.953l-0.6,4.008c0.359-0.049,0.695-0.096,1.271-0.096c1.201,0,2.4,0.264,3.361,0.84
						c1.225,0.695,2.232,2.039,2.232,4.008c0,3.049-2.426,5.328-5.809,5.328c-1.705,0-3.145-0.479-3.889-0.959l0.527-1.609
						c0.648,0.385,1.92,0.865,3.336,0.865c1.992,0,3.697-1.297,3.697-3.385c-0.023-2.016-1.369-3.457-4.488-3.457
						c-0.889,0-1.584,0.098-2.16,0.168l1.008-7.488h7.465V25.451z"/>
				</g>
				<g>
					<path fill="#F2F2F2" d="M71.234,263.926c0.6,0.385,1.992,0.984,3.455,0.984c2.713,0,3.553-1.729,3.529-3.023
						c-0.023-2.184-1.992-3.121-4.033-3.121H73.01v-1.584h1.176c1.537,0,3.48-0.791,3.48-2.641c0-1.248-0.791-2.352-2.736-2.352
						c-1.248,0-2.447,0.553-3.119,1.033l-0.553-1.537c0.816-0.6,2.4-1.199,4.08-1.199c3.072,0,4.465,1.824,4.465,3.719
						c0,1.609-0.961,2.977-2.881,3.674v0.047c1.92,0.385,3.48,1.824,3.48,4.008c0,2.498-1.943,4.682-5.688,4.682
						c-1.752,0-3.289-0.553-4.057-1.057L71.234,263.926z"/>
					<path fill="#F2F2F2" d="M92.354,252.525h-5.951l-0.6,4.008c0.359-0.047,0.695-0.096,1.271-0.096c1.199,0,2.4,0.264,3.359,0.84
						c1.225,0.697,2.232,2.041,2.232,4.01c0,3.047-2.424,5.328-5.809,5.328c-1.703,0-3.145-0.48-3.889-0.961l0.529-1.607
						c0.648,0.385,1.92,0.863,3.336,0.863c1.992,0,3.695-1.295,3.695-3.383c-0.023-2.018-1.367-3.457-4.488-3.457
						c-0.887,0-1.584,0.096-2.16,0.168l1.01-7.488h7.463V252.525z"/>
				</g>
				<g>
					<path fill="#F2F2F2" d="M30.283,78.383h-5.951l-0.602,4.008c0.361-0.049,0.697-0.096,1.273-0.096c1.199,0,2.4,0.264,3.359,0.84
						c1.225,0.695,2.232,2.039,2.232,4.008c0,3.049-2.424,5.328-5.809,5.328c-1.703,0-3.145-0.479-3.889-0.959l0.529-1.609
						c0.648,0.385,1.92,0.865,3.336,0.865c1.992,0,3.695-1.297,3.695-3.385c-0.023-2.016-1.367-3.457-4.488-3.457
						c-0.887,0-1.584,0.098-2.16,0.168l1.01-7.488h7.463V78.383z"/>
					<path fill="#F2F2F2" d="M43.652,84.238c0,5.305-1.969,8.232-5.426,8.232c-3.047,0-5.111-2.855-5.16-8.016
						c0-5.232,2.256-8.113,5.424-8.113C41.779,76.342,43.652,79.27,43.652,84.238z M35.18,84.479c0,4.057,1.248,6.361,3.168,6.361
						c2.16,0,3.191-2.521,3.191-6.506c0-3.84-0.984-6.359-3.168-6.359C36.523,77.975,35.18,80.23,35.18,84.479z"/>
				</g>
			</g>
		</g>
		<circle fill="#E6E6E6" cx="146" cy="146" r="95"/>
	</g>
	<rect fill="none" width="292" height="292"/>
</g>
</svg>
