<?xml version="1.0" encoding="UTF-8"?>
<!DOCTYPE svg PUBLIC "-//W3C//DTD SVG 1.1 Tiny//EN" "http://www.w3.org/Graphics/SVG/1.1/DTD/svg11-tiny.dtd">
<svg xmlns="http://www.w3.org/2000/svg" xmlns:xlink="http://www.w3.org/1999/xlink" baseProfile="tiny" height="100%" preserveAspectRatio="xMidYMid meet" version="1.1" viewBox="8.151 6.36 13.047 13" width="100%" zoomAndPan="magnify">
<g>
<path d="M20.513,15.802l-1.189-1.838c-0.126-0.207-2.813-4.224-5.794-4.284c-0.721-0.014-2.656-0.291-2.677-0.295   l-0.034-0.004h-0.034L8.198,9.205l0.005,6.488h0.5c0.945,0,3.811,0.922,5.418,1.788c0.156,0.214,1.572,1.059,2.103,1.039   c0.508-0.018,0.854-0.393,1.023-0.633c0.34,0.088,0.965,0.342,1.309,0.132c0.287-0.177,0.478-0.507,0.58-0.784   c0.316,0.025,0.76,0.023,1.063-0.208C20.636,16.693,20.583,15.981,20.513,15.802z" fill="#F5F661"/>
<path d="M20.542,16.22c-0.656,0.172-5.156,1.609-6.469-1.609c-1.688,0.344-5.87-0.904-5.87-0.904v1.987l1.307,0.136   c0.938,0.188,3.002,0.786,4.611,1.652c0.156,0.214,1.572,1.059,2.103,1.039c0.508-0.018,2.244-0.41,2.6-0.598   C19.12,17.767,20.558,17.407,20.542,16.22z" fill="#FFCC00"/>
<g>
<path d="M17.716,15.979" fill="#8CC2EA"/>
</g>
<g>
<path d="M16.339,14.626" fill="#8CC2EA"/>
</g>
<g>
<path d="M16.273,16.907" fill="#0046B7"/>
</g>
<g>
<path d="M15.166,16.005" fill="#0046B7"/>
</g>
<rect fill="none" height="13" width="13" x="8.151" y="6.36"/>
<path d="M20.488,9.385l-1.942-0.344c-0.022-0.004-3.827-0.494-3.827-0.494l-0.15-0.021l-0.137,0.069l-2.872,1.445   l-0.378,0.188l0.123,0.403c0.021,0.072,0.136,0.799,1.469,1.058c1.008,0.194,2.261-0.293,2.751-0.688l1.99,1.082   c0,0,1.617,1.816,2.374,2.803l0.92,0.817l0.39-0.088V9.385H20.488z" fill="#D98204"/>
<path d="M16.279,15.708c-0.202-0.607-1.395-1.639-1.713-1.957c-0.398-0.401-1.723-0.857-2.01-1.095   c-0.635-0.525-1.569-0.456-1.659-0.268c-0.091,0.189-0.658,2.239-0.554,3.176c0.104,0.937,0.512,1.171,0.625,1.224   c0.188,0.084,0.463,0.096,0.731,0.08c0.114,0.288,0.28,0.592,0.528,0.729c0.264,0.146,0.748,0.16,1.176,0.139   c0.225,0.203,0.596,0.482,0.975,0.518c0.549,0.049,1.05-0.486,1.263-0.752C15.811,17.339,16.563,16.561,16.279,15.708z" fill="#D98204"/>
<g>
<g>
<path d="M10.448,16.032c0.25,1.063,1.533,1.428,1.781,1.564c0.264,0.146,1.771,0.621,2.151,0.656     c0.547,0.049,1.048-0.488,1.262-0.754c0.168-0.16,0.921-0.938,0.637-1.791C14.401,18.392,10.979,16.642,10.448,16.032z      M20.345,13.552l-0.85,0.851l1.04,1.38l0.663-0.166v-2.24L20.345,13.552z" fill="#4C2B0D"/>
</g>
</g>
</g>
</svg>
